SplineFontDB: 3.0
FontName: GoudyBookletter1911
FullName: Goudy Bookletter 1911
FamilyName: Goudy Bookletter 1911
Weight: Regular
Copyright: Copyright (c) 2010, Barry Schwartz (crudfactory.com)
Version: 2010.07.03
ItalicAngle: 0
UnderlinePosition: -92
UnderlineWidth: 46
Ascent: 755
Descent: 269
LayerCount: 2
Layer: 0 1 "Back"  1
Layer: 1 1 "Fore"  0
NeedsXUIDChange: 1
XUID: [1021 658 797806517 331928]
UniqueID: 4088483
FSType: 0
OS2Version: 3
OS2_WeightWidthSlopeOnly: 0
OS2_UseTypoMetrics: 1
CreationTime: 1199071125
ModificationTime: 1291034835
PfmFamily: 17
TTFWeight: 400
TTFWidth: 5
LineGap: 92
VLineGap: 0
Panose: 2 0 5 3 0 0 0 0 0 0
OS2TypoAscent: 0
OS2TypoAOffset: 1
OS2TypoDescent: 0
OS2TypoDOffset: 1
OS2TypoLinegap: 92
OS2WinAscent: 0
OS2WinAOffset: 1
OS2WinDescent: -1
OS2WinDOffset: 1
HheadAscent: 0
HheadAOffset: 1
HheadDescent: 1
HheadDOffset: 1
OS2SubXSize: 666
OS2SubYSize: 717
OS2SubXOff: 0
OS2SubYOff: 143
OS2SupXSize: 666
OS2SupYSize: 717
OS2SupXOff: 0
OS2SupYOff: 492
OS2StrikeYSize: 50
OS2StrikeYPos: 264
OS2Vendor: 'PfEd'
OS2CodePages: 00000092.0d940000
OS2UnicodeRanges: 8000002f.0000004a.00000000.00000000
Lookup: 1 0 0 "'ss01' Style Set 1 in Latin lookup 0"  {"'ss01' Style Set 1 in Latin lookup 0 subtable"  } ['aalt' ('DFLT' <'dflt' > 'latn' <'dflt' > ) 'ss01' ('DFLT' <'dflt' > 'latn' <'dflt' > ) ]
Lookup: 4 0 1 "'liga' Standard Ligatures in Latin lookup 1"  {"'liga' Standard Ligatures in Latin lookup 1 per glyph data 0"  "'liga' Standard Ligatures in Latin lookup 1 per glyph data 1"  "'liga' Standard Ligatures in Latin lookup 1 per glyph data 2"  "'liga' Standard Ligatures in Latin lookup 1 per glyph data 3"  } ['liga' ('DFLT' <'dflt' > 'latn' <'dflt' > ) ]
Lookup: 258 0 0 "'kern' Horizontal Kerning in Latin lookup 0"  {"'kern' Horizontal Kerning in Latin lookup 0 subtable"  } ['kern' ('latn' <'dflt' > ) ]

StartChar: .notdef
Encoding: 65536 -1 0
Width: 512
Flags: W
HStem: 0 51<102 410> 452 51<102 410>
VStem: 51 51<51 452> 410 51<51 452>
LayerCount: 2
Fore
SplineSet
51 0 m 1,0,-1
 51 503 l 1,1,-1
 461 503 l 1,2,-1
 461 0 l 1,3,-1
 51 0 l 1,0,-1
102 51 m 1,4,-1
 410 51 l 1,5,-1
 410 452 l 1,6,-1
 102 452 l 1,7,-1
 102 51 l 1,4,-1
EndSplineSet
EndChar

StartChar: exclam
Encoding: 33 33 2
Width: 332
GlyphClass: 2
Flags: W
HStem: -16 103<132.986 206.014>
VStem: 117 105<-0.529785 71.5295> 117 92<377.446 657.478> 130 33<200.066 289.985>
LayerCount: 2
Fore
SplineSet
199 690 m 0,0,1
 209 690 209 690 209 664 c 2,2,-1
 209 640 l 2,3,4
 209 541 209 541 198.5 439 c 128,-1,5
 188 337 188 337 178.5 285 c 128,-1,6
 169 233 169 233 163 216 c 0,7,8
 158 200 158 200 145 200 c 0,9,10
 130 200 130 200 130 230 c 2,11,-1
 130 248 l 1,12,13
 129 284 129 284 128 320.5 c 128,-1,14
 127 357 127 357 125.5 387.5 c 128,-1,15
 124 418 124 418 122.5 446.5 c 128,-1,16
 121 475 121 475 119.5 498.5 c 128,-1,17
 118 522 118 522 117 542.5 c 128,-1,18
 116 563 116 563 115 578 c 128,-1,19
 114 593 114 593 113 604 c 128,-1,20
 112 615 112 615 111.5 620.5 c 2,21,-1
 111 626 l 1,22,23
 111 641 111 641 124 649 c 0,24,25
 194 690 194 690 199 690 c 0,0,1
170 87 m 0,26,27
 191 87 191 87 206.5 72 c 128,-1,28
 222 57 222 57 222 35 c 0,29,30
 222 14 222 14 207 -1 c 128,-1,31
 192 -16 192 -16 170 -16 c 128,-1,32
 148 -16 148 -16 132.5 -1.5 c 128,-1,33
 117 13 117 13 117 36 c 128,-1,34
 117 59 117 59 132.5 73 c 128,-1,35
 148 87 148 87 170 87 c 0,26,27
EndSplineSet
EndChar

StartChar: quotedbl
Encoding: 34 34 3
Width: 398
GlyphClass: 2
Flags: W
HStem: 468 264
VStem: 99 92<638.132 714.953> 269 91<638.132 716.845>
LayerCount: 2
Fore
SplineSet
154 732 m 0,0,1
 171 732 171 732 181 720.5 c 128,-1,2
 191 709 191 709 191 693 c 0,3,4
 191 679 191 679 177 653 c 0,5,6
 164 630 164 630 138.5 585 c 128,-1,7
 113 540 113 540 96 510 c 128,-1,8
 79 480 79 480 78 478 c 0,9,10
 70 468 70 468 59 468 c 0,11,12
 50 468 50 468 44.5 474.5 c 128,-1,13
 39 481 39 481 39 490 c 2,14,-1
 39 492 l 2,15,16
 39 497 39 497 99 675 c 1,17,18
 120 732 120 732 154 732 c 0,0,1
324 732 m 0,19,20
 340 732 340 732 350 720.5 c 128,-1,21
 360 709 360 709 360 693 c 128,-1,22
 360 677 360 677 347 653 c 0,23,24
 333 629 333 629 308 584.5 c 128,-1,25
 283 540 283 540 266 510 c 128,-1,26
 249 480 249 480 247 478 c 0,27,28
 239 468 239 468 228 468 c 0,29,30
 219 468 219 468 213.5 474.5 c 128,-1,31
 208 481 208 481 208 490 c 2,32,-1
 208 492 l 2,33,34
 208 497 208 497 269 675 c 1,35,36
 287 732 287 732 324 732 c 0,19,20
EndSplineSet
EndChar

StartChar: numbersign
Encoding: 35 35 4
Width: 565
GlyphClass: 2
Flags: W
HStem: 161 46<58.0957 156.998 211.163 326.905 381.191 509.996> 361 47<55.0186 183.998 240.002 353.998 410.001 509.809>
VStem: 131 45<-43.9451 119.742> 194 46<408.002 572.225> 223 45<462.027 629.982> 394 43<573.302 630>
LayerCount: 2
Fore
SplineSet
354 356 m 0,0,1
 354 361 354 361 347 361 c 2,2,-1
 240 361 l 2,3,4
 232 361 232 361 230 354 c 1,5,6
 228 335 228 335 223 299 c 128,-1,7
 218 263 218 263 214.5 238.5 c 128,-1,8
 211 214 211 214 211 212 c 0,9,10
 211 207 211 207 219 207 c 2,11,-1
 324 207 l 2,12,13
 334 207 334 207 335 215 c 0,14,15
 354 355 354 355 354 356 c 0,0,1
414 630 m 1,16,-1
 421 630 l 2,17,18
 437 630 437 630 437 618 c 0,19,20
 437 613 437 613 423.5 515.5 c 128,-1,21
 410 418 410 418 410 413 c 128,-1,22
 410 408 410 408 415 408 c 2,23,-1
 490 408 l 2,24,25
 510 408 510 408 510 381 c 0,26,27
 510 361 510 361 494 361 c 2,28,-1
 406 361 l 2,29,30
 402 361 402 361 400 355 c 1,31,32
 398 336 398 336 393 300 c 128,-1,33
 388 264 388 264 384.5 239.5 c 128,-1,34
 381 215 381 215 381 213 c 0,35,36
 381 207 381 207 388 207 c 2,37,-1
 492 207 l 2,38,39
 510 207 510 207 510 184 c 128,-1,40
 510 161 510 161 492 161 c 2,41,-1
 385 161 l 2,42,43
 374 161 374 161 372 150 c 0,44,45
 346 -32 346 -32 345 -34 c 0,46,47
 340 -44 340 -44 323 -44 c 0,48,49
 302 -44 302 -44 302 -30 c 0,50,51
 302 -26 302 -26 314.5 63.5 c 128,-1,52
 327 153 327 153 327 155 c 0,53,54
 327 161 327 161 318 161 c 2,55,-1
 248 161 l 2,56,57
 217 161 217 161 210.5 159.5 c 128,-1,58
 204 158 204 158 203 153 c 0,59,60
 177 -33 177 -33 176 -35 c 0,61,62
 171 -44 171 -44 151 -44 c 128,-1,63
 131 -44 131 -44 131 -30 c 0,64,65
 131 -27 131 -27 144 62.5 c 128,-1,66
 157 152 157 152 157 154 c 0,67,68
 157 161 157 161 147 161 c 2,69,-1
 72 161 l 2,70,71
 55 161 55 161 55 180 c 0,72,73
 55 195 55 195 58 201 c 128,-1,74
 61 207 61 207 72 207 c 2,75,-1
 161 207 l 2,76,77
 164 207 164 207 164 209 c 0,78,79
 184 349 184 349 184 356 c 0,80,81
 184 361 184 361 177 361 c 2,82,-1
 74 361 l 2,83,84
 55 361 55 361 55 384 c 0,85,86
 55 408 55 408 74 408 c 2,87,-1
 184 408 l 2,88,89
 194 408 194 408 194 416 c 1,90,91
 210 525 210 525 218.925 598.558 c 0,92,93
 222 620 222 620 223 622 c 0,94,95
 228 630 228 630 247 630 c 2,96,-1
 248 630 l 2,97,98
 268 630 268 630 268 616 c 0,99,100
 268 612 268 612 254 514 c 128,-1,101
 240 416 240 416 240 413 c 0,102,103
 240 408 240 408 248 408 c 2,104,-1
 354 408 l 2,105,106
 363 408 363 408 364 415 c 2,107,-1
 394 623 l 1,108,109
 399 630 399 630 411 630 c 2,110,-1
 414 630 l 1,16,-1
EndSplineSet
EndChar

StartChar: dollar
Encoding: 36 36 5
Width: 493
GlyphClass: 2
Flags: W
HStem: 1 42<133.328 189.937> 613 40<233.002 272.082>
VStem: 16 94<74.8667 175.983> 42 59<457.892 577.428> 190 42<-98.9814 1.56885 48.9551 301.998 419.001 612.993 651.455 700.98> 291.5 93.5<511.892 594.597> 340 72<103.177 244.649>
LayerCount: 2
Fore
SplineSet
385 544 m 0,0,1
 385 524 385 524 373.5 511.5 c 128,-1,2
 362 499 362 499 343 499 c 0,3,4
 321 499 321 499 308.5 515 c 128,-1,5
 296 531 296 531 291.5 551 c 128,-1,6
 287 571 287 571 274.5 590 c 128,-1,7
 262 609 262 609 241 613 c 1,8,-1
 239 613 l 2,9,10
 233 613 233 613 233 608 c 2,11,-1
 233 430 l 2,12,13
 233 427 233 427 232.5 421 c 128,-1,14
 232 415 232 415 232 414 c 0,15,16
 232 408 232 408 233.5 404.5 c 128,-1,17
 235 401 235 401 239.5 398 c 128,-1,18
 244 395 244 395 248 393.5 c 128,-1,19
 252 392 252 392 262.5 388 c 128,-1,20
 273 384 273 384 282 381 c 0,21,22
 377 340 377 340 402 256 c 0,23,24
 412 223 412 223 412 194 c 0,25,26
 412 113 412 113 362 64 c 128,-1,27
 312 15 312 15 241 3 c 0,28,29
 232 1 232 1 232 -9 c 2,30,-1
 232 -80 l 2,31,32
 232 -99 232 -99 212 -99 c 0,33,34
 191 -99 191 -99 191 -80 c 2,35,-1
 191 -9 l 2,36,37
 191 1 191 1 182 1 c 0,38,39
 111 3 111 3 63.5 47 c 128,-1,40
 16 91 16 91 16 136 c 0,41,42
 16 160 16 160 30.5 176.5 c 128,-1,43
 45 193 45 193 67 193 c 0,44,45
 86 193 86 193 98 180 c 128,-1,46
 110 167 110 167 110 145 c 0,47,48
 110 139 110 139 108 128 c 128,-1,49
 106 117 106 117 106 110 c 0,50,51
 106 75 106 75 132.5 59 c 128,-1,52
 159 43 159 43 185 43 c 0,53,54
 190 43 190 43 190 47 c 2,55,-1
 190 313 l 2,56,57
 190 326 190 326 181 327 c 0,58,59
 114 341 114 341 78 390.5 c 128,-1,60
 42 440 42 440 42 496 c 0,61,62
 42 558 42 558 82 602 c 128,-1,63
 122 646 122 646 181 651 c 0,64,65
 190 652 190 652 190 659 c 2,66,-1
 190 681 l 2,67,68
 190 701 190 701 211 701 c 2,69,-1
 212 701 l 2,70,71
 233 701 233 701 233 681 c 2,72,-1
 233 662 l 1,73,-1
 233 659 l 2,74,75
 233 653 233 653 240 653 c 0,76,77
 304 646 304 646 344.5 612.5 c 128,-1,78
 385 579 385 579 385 544 c 0,0,1
187 613 m 0,79,80
 166 613 166 613 133.5 587 c 128,-1,81
 101 561 101 561 101 516 c 0,82,83
 101 483 101 483 122 459 c 128,-1,84
 143 435 143 435 161 427 c 128,-1,85
 179 419 179 419 185 419 c 0,86,87
 190 419 190 419 190 424 c 2,88,-1
 190 501 l 1,89,-1
 190 586 l 2,90,91
 190 613 190 613 187 613 c 0,79,80
240 302 m 0,92,93
 232 302 232 302 232 293 c 0,94,95
 232 219 232 219 231.5 150 c 128,-1,96
 231 81 231 81 231 77 c 0,97,98
 231 45 231 45 236 45 c 2,99,-1
 238 45 l 2,100,101
 249 45 249 45 271.5 57.5 c 128,-1,102
 294 70 294 70 317 102 c 128,-1,103
 340 134 340 134 340 175 c 0,104,105
 340 215 340 215 316.5 246.5 c 128,-1,106
 293 278 293 278 271 290 c 128,-1,107
 249 302 249 302 240 302 c 0,92,93
EndSplineSet
EndChar

StartChar: percent
Encoding: 37 37 6
Width: 839
GlyphClass: 2
Flags: W
HStem: -95 40<608.057 703.11> 174 39<152.205 244.808> 258 39<596.204 688.432> 527 39<138.448 229.215>
VStem: 42 61<270.961 473.55> 278 61<268.191 467.005> 501 61<-0.0129395 119 121 204.537> 736 62<-0.626953 199.083>
LayerCount: 2
Fore
SplineSet
218 -126 m 0,0,1
 209 -126 209 -126 201 -120 c 128,-1,2
 193 -114 193 -114 193 -106 c 0,3,4
 193 -102 193 -102 197 -94 c 0,5,6
 601 596 601 596 604 599 c 0,7,8
 612 609 612 609 628 609 c 0,9,10
 637 609 637 609 647.5 604.5 c 128,-1,11
 658 600 658 600 658 591 c 0,12,13
 658 586 658 586 654 580 c 0,14,15
 242 -114 242 -114 241 -115 c 0,16,17
 232 -126 232 -126 218 -126 c 0,0,1
183 527 m 0,18,19
 160 527 160 527 143 512.5 c 128,-1,20
 126 498 126 498 118 475 c 128,-1,21
 110 452 110 452 106.5 430.5 c 128,-1,22
 103 409 103 409 103 388 c 0,23,24
 103 348 103 348 115.5 300 c 128,-1,25
 128 252 128 252 153 230 c 1,26,27
 174 213 174 213 198 213 c 0,28,29
 260 213 260 213 272 300 c 1,30,31
 278 336 278 336 278 356 c 0,32,33
 278 422 278 422 252.5 474.5 c 128,-1,34
 227 527 227 527 183 527 c 0,18,19
198 566 m 0,35,36
 251 566 251 566 295 522.5 c 128,-1,37
 339 479 339 479 339 384 c 0,38,39
 339 291 339 291 296 232.5 c 128,-1,40
 253 174 253 174 183 174 c 0,41,42
 130 174 130 174 86 217 c 128,-1,43
 42 260 42 260 42 354 c 0,44,45
 42 455 42 455 87 510.5 c 128,-1,46
 132 566 132 566 198 566 c 0,35,36
642 258 m 0,47,48
 619 258 619 258 602 244 c 128,-1,49
 585 230 585 230 576.5 207 c 128,-1,50
 568 184 568 184 564.5 163 c 128,-1,51
 561 142 561 142 561 121 c 1,52,-1
 562 119 l 1,53,54
 562 79 562 79 574 31 c 128,-1,55
 586 -17 586 -17 611 -38 c 0,56,57
 630 -55 630 -55 656 -55 c 0,58,59
 718 -55 718 -55 731 31 c 0,60,61
 736 61 736 61 736 88 c 0,62,63
 736 153 736 153 711 205.5 c 128,-1,64
 686 258 686 258 642 258 c 0,47,48
656 297 m 0,65,66
 709 297 709 297 753.5 253.5 c 128,-1,67
 798 210 798 210 798 115 c 0,68,69
 798 22 798 22 754.5 -36.5 c 128,-1,70
 711 -95 711 -95 642 -95 c 0,71,72
 589 -95 589 -95 545 -52 c 128,-1,73
 501 -9 501 -9 501 85 c 0,74,75
 501 186 501 186 546 241.5 c 128,-1,76
 591 297 591 297 656 297 c 0,65,66
EndSplineSet
EndChar

StartChar: ampersand
Encoding: 38 38 7
Width: 847
GlyphClass: 2
Flags: W
HStem: -24 79<254.156 451.935> 158 36<400.28 478.63> 369 32<189.757 308.418> 393 64<134.175 179.606> 451 33<185.906 307.86> 609 109<261.307 323.634> 660 58<154.735 255.663> 693 39<658.259 743.302>
VStem: 31 81<183.541 355.84> 59 45<471.189 610.972> 310 36<404.129 447.206> 346 37<212.161 308.474> 479 55<196.034 248.5> 600 34<158.717 302.547> 786 42<516.121 647.966>
LayerCount: 2
Fore
SplineSet
102 432 m 2,0,1
 102 435 102 435 91 448.5 c 128,-1,2
 80 462 80 462 69.5 487 c 128,-1,3
 59 512 59 512 59 542 c 0,4,5
 59 611 59 611 113.5 664.5 c 128,-1,6
 168 718 168 718 239 718 c 0,7,8
 261 718 261 718 284 713 c 128,-1,9
 307 708 307 708 327.5 693 c 128,-1,10
 348 678 348 678 348 655 c 0,11,12
 348 635 348 635 334 622 c 128,-1,13
 320 609 320 609 302 609 c 0,14,15
 281 609 281 609 258.5 634.5 c 128,-1,16
 236 660 236 660 213 660 c 0,17,18
 176 660 176 660 140 626.5 c 128,-1,19
 104 593 104 593 104 542 c 0,20,21
 104 512 104 512 118.5 484.5 c 128,-1,22
 133 457 133 457 144 457 c 0,23,24
 146 457 146 457 162 463.5 c 128,-1,25
 178 470 178 470 204 477 c 128,-1,26
 230 484 230 484 257 484 c 0,27,28
 295 484 295 484 320.5 468.5 c 128,-1,29
 346 453 346 453 346 427 c 128,-1,30
 346 401 346 401 319 385 c 128,-1,31
 292 369 292 369 252 369 c 2,32,-1
 251 369 l 2,33,34
 226 369 226 369 203.5 375 c 128,-1,35
 181 381 181 381 168 387 c 128,-1,36
 155 393 155 393 153 393 c 0,37,38
 150 393 150 393 147.5 391 c 128,-1,39
 145 389 145 389 143.5 387 c 128,-1,40
 142 385 142 385 140.5 383 c 2,41,-1
 139 381 l 1,42,43
 112 332 112 332 112 274 c 0,44,45
 112 238 112 238 125 203.5 c 128,-1,46
 138 169 138 169 165.5 135.5 c 128,-1,47
 193 102 193 102 245.5 80 c 128,-1,48
 298 58 298 58 368 55 c 1,49,-1
 386 55 l 2,50,51
 445 55 445 55 489 72 c 128,-1,52
 533 89 533 89 556 117 c 128,-1,53
 579 145 579 145 589.5 174 c 128,-1,54
 600 203 600 203 600 232 c 0,55,56
 600 285 600 285 571 320 c 128,-1,57
 542 355 542 355 494 355 c 0,58,59
 450 355 450 355 416.5 325 c 128,-1,60
 383 295 383 295 383 257 c 0,61,62
 383 231 383 231 399.5 212.5 c 128,-1,63
 416 194 416 194 442 194 c 0,64,65
 453 194 453 194 466 199 c 128,-1,66
 479 204 479 204 479 211 c 0,67,68
 479 215 479 215 475 217 c 128,-1,69
 471 219 471 219 465.5 220 c 128,-1,70
 460 221 460 221 453 225 c 128,-1,71
 446 229 446 229 441 236 c 0,72,73
 434 246 434 246 434 258 c 0,74,75
 434 273 434 273 445.5 284 c 128,-1,76
 457 295 457 295 474 295 c 0,77,78
 497 295 497 295 515.5 278 c 128,-1,79
 534 261 534 261 534 236 c 0,80,81
 534 205 534 205 508 181.5 c 128,-1,82
 482 158 482 158 445 158 c 0,83,84
 404 158 404 158 375 188 c 128,-1,85
 346 218 346 218 346 261 c 0,86,87
 346 301 346 301 372.5 337.5 c 128,-1,88
 399 374 399 374 445 397 c 0,89,90
 492 420 492 420 579.5 434 c 128,-1,91
 667 448 667 448 698 462 c 0,92,93
 735 478 735 478 760.5 509.5 c 128,-1,94
 786 541 786 541 786 584 c 0,95,96
 786 631 786 631 756.5 662 c 128,-1,97
 727 693 727 693 689 693 c 0,98,99
 658 693 658 693 658 684 c 1,100,-1
 666.5 673 l 2,101,102
 675 662 675 662 675 648 c 0,103,104
 675 630 675 630 663 618 c 128,-1,105
 651 606 651 606 633 606 c 0,106,107
 613 606 613 606 600 620.5 c 128,-1,108
 587 635 587 635 587 656 c 0,109,110
 587 688 587 688 614 710 c 128,-1,111
 641 732 641 732 677 732 c 0,112,113
 735 732 735 732 781.5 683 c 128,-1,114
 828 634 828 634 828 561 c 0,115,116
 828 479 828 479 764.5 420.5 c 128,-1,117
 701 362 701 362 614 360 c 0,118,119
 599 360 599 360 599 352 c 0,120,121
 599 351 599 351 607.5 337 c 128,-1,122
 616 323 616 323 625 296 c 128,-1,123
 634 269 634 269 634 238 c 2,124,-1
 634 236 l 2,125,126
 634 132 634 132 544 54 c 128,-1,127
 454 -24 454 -24 329 -24 c 0,128,129
 203 -24 203 -24 117 57.5 c 128,-1,130
 31 139 31 139 31 251 c 0,131,132
 31 281 31 281 37.5 309 c 128,-1,133
 44 337 44 337 54 357 c 128,-1,134
 64 377 64 377 73.5 391 c 128,-1,135
 83 405 83 405 91.5 414.5 c 2,136,-1
 100 424 l 1,137,138
 102 428 102 428 102 431 c 2,139,-1
 102 432 l 2,0,1
267 401 m 0,140,141
 310 401 310 401 310 425 c 0,142,143
 310 451 310 451 266 451 c 0,144,145
 242 451 242 451 221.5 447 c 128,-1,146
 201 443 201 443 190.5 437.5 c 128,-1,147
 180 432 180 432 180 427 c 0,148,149
 180 424 180 424 183 421 c 0,150,151
 211 401 211 401 267 401 c 0,140,141
EndSplineSet
EndChar

StartChar: quotesingle
Encoding: 39 39 8
Width: 229
GlyphClass: 2
Flags: W
HStem: 468 264
VStem: 99 92<638.144 714.953>
LayerCount: 2
Fore
SplineSet
154 732 m 0,0,1
 171 732 171 732 181 720.5 c 128,-1,2
 191 709 191 709 191 693 c 0,3,4
 191 679 191 679 177 653 c 0,5,6
 164 630 164 630 138.5 585 c 128,-1,7
 113 540 113 540 96 510 c 128,-1,8
 79 480 79 480 78 478 c 0,9,10
 70 468 70 468 59 468 c 0,11,12
 50 468 50 468 44.5 475.5 c 128,-1,13
 39 483 39 483 39 492 c 2,14,-1
 39 493 l 2,15,16
 39 497 39 497 99 675 c 1,17,18
 120 732 120 732 154 732 c 0,0,1
EndSplineSet
EndChar

StartChar: parenleft
Encoding: 40 40 9
Width: 371
GlyphClass: 2
Flags: W
HStem: 715 20G<298 308.5>
VStem: 46 78<115.987 419.063>
LayerCount: 2
Fore
SplineSet
324 -178 m 0,0,1
 324 -187 324 -187 317.5 -193 c 128,-1,2
 311 -199 311 -199 302 -199 c 0,3,4
 291 -199 291 -199 278 -188 c 0,5,6
 172 -104 172 -104 109 15.5 c 128,-1,7
 46 135 46 135 46 268 c 0,8,9
 46 393 46 393 105.5 513.5 c 128,-1,10
 165 634 165 634 273 721 c 1,11,12
 292 735 292 735 304 735 c 0,13,14
 313 735 313 735 319.5 729.5 c 128,-1,15
 326 724 326 724 326 716 c 0,16,17
 326 703 326 703 311 691 c 1,18,19
 227 616 227 616 175.5 507.5 c 128,-1,20
 124 399 124 399 124 269 c 0,21,22
 124 146 124 146 172 37 c 128,-1,23
 220 -72 220 -72 307 -151 c 1,24,25
 324 -168 324 -168 324 -178 c 0,0,1
EndSplineSet
EndChar

StartChar: parenright
Encoding: 41 41 10
Width: 371
GlyphClass: 2
Flags: W
HStem: 719 20G<66.5 75.5>
VStem: 248 78<120.215 423.625>
LayerCount: 2
Fore
SplineSet
49 718 m 0,0,1
 49 727 49 727 55.5 733 c 128,-1,2
 62 739 62 739 71 739 c 128,-1,3
 80 739 80 739 95 728 c 0,4,5
 201 645 201 645 263.5 524.5 c 128,-1,6
 326 404 326 404 326 271 c 0,7,8
 326 146 326 146 266 26 c 128,-1,9
 206 -94 206 -94 98 -181 c 0,10,11
 78 -196 78 -196 68 -196 c 0,12,13
 59 -196 59 -196 52.5 -190 c 128,-1,14
 46 -184 46 -184 46 -175 c 128,-1,15
 46 -166 46 -166 61 -151 c 1,16,17
 145 -75 145 -75 196.5 32.5 c 128,-1,18
 248 140 248 140 248 270 c 0,19,20
 248 394 248 394 200.5 503 c 128,-1,21
 153 612 153 612 66 691 c 1,22,23
 49 705 49 705 49 718 c 0,0,1
EndSplineSet
EndChar

StartChar: asterisk
Encoding: 42 42 11
Width: 343
GlyphClass: 2
Flags: W
HStem: 459 88<244.502 318.771> 464 93.5<38.9688 98.3556> 509 112<108.701 138.948 203.002 232.728> 593 82<24.9376 94.7847 244.977 323> 718 20G<152.5 193>
VStem: 132 80<403.316 506.278 628.13 734.684> 139 64<436.377 508.937 622.068 690.467>
LayerCount: 2
Fore
SplineSet
329 632 m 0,0,1
 329 613 329 613 305 599.5 c 128,-1,2
 281 586 281 586 257 578 c 128,-1,3
 233 570 233 570 233 565 c 0,4,5
 233 559 233 559 247.5 555 c 128,-1,6
 262 551 262 551 280 547 c 128,-1,7
 298 543 298 543 312.5 531 c 128,-1,8
 327 519 327 519 327 499 c 0,9,10
 327 482 327 482 315 470.5 c 128,-1,11
 303 459 303 459 288 459 c 0,12,13
 272 459 272 459 255 472.5 c 128,-1,14
 238 486 238 486 226 499.5 c 128,-1,15
 214 513 214 513 210 513 c 0,16,17
 203 513 203 513 203 504 c 0,18,19
 203 490 203 490 207.5 464 c 128,-1,20
 212 438 212 438 212 433 c 0,21,22
 212 412 212 412 197 402.5 c 128,-1,23
 182 393 182 393 169 393 c 128,-1,24
 156 393 156 393 144 403 c 128,-1,25
 132 413 132 413 132 436 c 0,26,27
 132 448 132 448 135.5 470 c 128,-1,28
 139 492 139 492 139 498 c 0,29,30
 139 509 139 509 133 509 c 0,31,32
 128 509 128 509 98.5 486.5 c 128,-1,33
 69 464 69 464 47 464 c 0,34,35
 30 464 30 464 22 477 c 128,-1,36
 14 490 14 490 14 500 c 0,37,38
 14 520 14 520 37.5 534.5 c 128,-1,39
 61 549 61 549 84.5 557.5 c 128,-1,40
 108 566 108 566 108 573 c 0,41,42
 108 579 108 579 94 584 c 128,-1,43
 80 589 80 589 62.5 593 c 128,-1,44
 45 597 45 597 31 609 c 128,-1,45
 17 621 17 621 17 639 c 0,46,47
 17 654 17 654 29.5 664.5 c 128,-1,48
 42 675 42 675 56 675 c 0,49,50
 74 675 74 675 99.5 648 c 128,-1,51
 125 621 125 621 136 621 c 0,52,53
 141 621 141 621 141 628 c 0,54,55
 141 632 141 632 136.5 655 c 128,-1,56
 132 678 132 678 132 692 c 0,57,58
 132 738 132 738 173 738 c 0,59,60
 213 738 213 738 213 691 c 0,61,62
 213 674 213 674 207 649.5 c 128,-1,63
 201 625 201 625 201 624 c 0,64,65
 201 622 201 622 203 622 c 0,66,67
 207 622 207 622 237.5 647 c 128,-1,68
 268 672 268 672 289 672 c 0,69,70
 304 672 304 672 316.5 660.5 c 128,-1,71
 329 649 329 649 329 632 c 0,0,1
EndSplineSet
EndChar

StartChar: plus
Encoding: 43 43 12
Width: 717
GlyphClass: 2
Flags: W
HStem: 237 58<54.0061 330 389 657.264>
VStem: 330 59<-39 237 295 569.956>
LayerCount: 2
Fore
SplineSet
78 237 m 2,0,1
 54 237 54 237 54 259 c 2,2,-1
 54 272 l 2,3,4
 54 295 54 295 79 295 c 2,5,-1
 330 295 l 1,6,-1
 330 550 l 2,7,8
 330 570 330 570 350 570 c 2,9,-1
 365 570 l 2,10,11
 389 570 389 570 389 544 c 2,12,-1
 389 295 l 1,13,-1
 644 295 l 2,14,15
 665 295 665 295 665 275 c 2,16,-1
 665 261 l 2,17,18
 665 245 665 245 657.5 241 c 128,-1,19
 650 237 650 237 637 237 c 2,20,-1
 389 237 l 1,21,-1
 389 -16 l 2,22,23
 389 -39 389 -39 367 -39 c 2,24,-1
 352 -39 l 2,25,26
 330 -39 330 -39 330 -15 c 2,27,-1
 330 237 l 1,28,-1
 78 237 l 2,0,1
EndSplineSet
EndChar

StartChar: comma
Encoding: 44 44 13
Width: 232
GlyphClass: 2
Flags: W
HStem: 0.5 101.5<59.0797 128.656>
VStem: 140 53<-88.8743 -13.4761>
LayerCount: 2
Fore
SplineSet
102 102 m 0,0,1
 139 102 139 102 166 68 c 128,-1,2
 193 34 193 34 193 -15 c 0,3,4
 193 -75 193 -75 153.5 -113 c 128,-1,5
 114 -151 114 -151 89 -151 c 0,6,7
 70 -151 70 -151 70 -133 c 0,8,9
 70 -125 70 -125 75.5 -120.5 c 128,-1,10
 81 -116 81 -116 93 -108.5 c 128,-1,11
 105 -101 105 -101 114 -93 c 0,12,13
 140 -69 140 -69 140 -45 c 0,14,15
 140 -27 140 -27 129 -18 c 128,-1,16
 118 -9 118 -9 104 -7.5 c 128,-1,17
 90 -6 90 -6 73 0.5 c 128,-1,18
 56 7 56 7 48 19 c 0,19,20
 40 30 40 30 40 46 c 0,21,22
 40 70 40 70 58.5 86 c 128,-1,23
 77 102 77 102 102 102 c 0,0,1
EndSplineSet
EndChar

StartChar: hyphen
Encoding: 45 45 14
Width: 232
GlyphClass: 2
Flags: W
HStem: 158 185
VStem: 12 208
LayerCount: 2
Fore
SplineSet
204 343 m 0,0,1
 220 343 220 343 220 303 c 0,2,3
 220 288 220 288 202 274 c 1,4,5
 179 258 179 258 157.5 243 c 128,-1,6
 136 228 136 228 121.5 217.5 c 128,-1,7
 107 207 107 207 94 197.5 c 128,-1,8
 81 188 81 188 73 182.5 c 128,-1,9
 65 177 65 177 58 172 c 128,-1,10
 51 167 51 167 47.5 164.5 c 128,-1,11
 44 162 44 162 40.5 160.5 c 128,-1,12
 37 159 37 159 35 158.5 c 128,-1,13
 33 158 33 158 31 158 c 0,14,15
 12 158 12 158 12 184 c 2,16,-1
 12 199 l 2,17,18
 12 209 12 209 15.5 213.5 c 128,-1,19
 19 218 19 218 32 227 c 0,20,21
 76 258 76 258 131.542 296.938 c 0,22,23
 197 343 197 343 204 343 c 0,0,1
EndSplineSet
EndChar

StartChar: period
Encoding: 46 46 15
Width: 232
GlyphClass: 2
Flags: W
HStem: -17 120<74.0797 158.436>
VStem: 55 122<1.04895 84.9513>
LayerCount: 2
Fore
SplineSet
116 103 m 128,-1,1
 141 103 141 103 159 85.5 c 128,-1,2
 177 68 177 68 177 43 c 128,-1,3
 177 18 177 18 160 0.5 c 128,-1,4
 143 -17 143 -17 117 -17 c 0,5,6
 92 -17 92 -17 73.5 0.5 c 128,-1,7
 55 18 55 18 55 44 c 128,-1,8
 55 70 55 70 73 86.5 c 128,-1,0
 91 103 91 103 116 103 c 128,-1,1
EndSplineSet
EndChar

StartChar: slash
Encoding: 47 47 16
Width: 445
GlyphClass: 2
Flags: W
VStem: 6 56.8118<-186.963 -162.215>
LayerCount: 2
Fore
SplineSet
37 -191 m 0,0,1
 6 -191 6 -191 6 -177 c 0,2,3
 6 -173 6 -173 392 585 c 0,4,5
 397 594 397 594 408 594 c 0,6,7
 417 594 417 594 428 589.5 c 128,-1,8
 439 585 439 585 439 575 c 0,9,10
 439 572 439 572 264 240 c 1,11,12
 131 -25 131 -25 62.8118 -162.215 c 0,13,14
 51 -186 51 -186 50 -187 c 0,15,16
 45 -191 45 -191 37 -191 c 0,0,1
EndSplineSet
EndChar

StartChar: zero
Encoding: 48 48 17
Width: 486
GlyphClass: 2
Flags: W
HStem: -18 61<163.375 321.93> 394 57<161.406 318.196>
VStem: 12 68<131.051 308.498> 403 64<126.54 306.086>
LayerCount: 2
Fore
SplineSet
241 451 m 0,0,1
 334 451 334 451 400.5 382 c 128,-1,2
 467 313 467 313 467 216 c 128,-1,3
 467 119 467 119 400.5 50.5 c 128,-1,4
 334 -18 334 -18 240 -18 c 0,5,6
 147 -18 147 -18 79.5 50 c 128,-1,7
 12 118 12 118 12 216 c 0,8,9
 12 313 12 313 79.5 382 c 128,-1,10
 147 451 147 451 241 451 c 0,0,1
240 394 m 128,-1,12
 174 394 174 394 127 342.5 c 128,-1,13
 80 291 80 291 80 220 c 0,14,15
 80 147 80 147 128 95 c 128,-1,16
 176 43 176 43 243 43 c 0,17,18
 307 43 307 43 355 92 c 128,-1,19
 403 141 403 141 403 216 c 128,-1,20
 403 291 403 291 354.5 342.5 c 128,-1,11
 306 394 306 394 240 394 c 128,-1,12
EndSplineSet
EndChar

StartChar: one
Encoding: 49 49 18
Width: 364
GlyphClass: 2
Flags: W
HStem: -0.5 40<42.356 131.807 216.11 325.561> 390 41.5<27.6247 138 216 306.894>
VStem: 138 78<42.0964 389.935>
LayerCount: 2
Fore
SplineSet
168 431 m 128,-1,1
 201 431 201 431 229.5 431.5 c 128,-1,2
 258 432 258 432 274 433 c 128,-1,3
 290 434 290 434 293 434 c 0,4,5
 307 434 307 434 307 412 c 0,6,7
 307 394 307 394 258.77 391.548 c 0,8,9
 241 391 241 391 230 390 c 0,10,11
 216 389 216 389 216 374 c 2,12,-1
 216 62 l 2,13,14
 216 42 216 42 234 41 c 0,15,16
 245 40 245 40 256.5 39.5 c 128,-1,17
 268 39 268 39 275.5 38.5 c 128,-1,18
 283 38 283 38 291 37.5 c 128,-1,19
 299 37 299 37 303 36 c 128,-1,20
 307 35 307 35 312 34 c 128,-1,21
 317 33 317 33 319 31 c 128,-1,22
 321 29 321 29 323 26.5 c 128,-1,23
 325 24 325 24 325.5 20.5 c 128,-1,24
 326 17 326 17 326 12 c 0,25,26
 326 -6 326 -6 308 -6 c 0,27,28
 307 -6 307 -6 300 -5.5 c 128,-1,29
 293 -5 293 -5 281 -4 c 128,-1,30
 269 -3 269 -3 254 -2 c 128,-1,31
 239 -1 239 -1 219.5 -0.5 c 128,-1,32
 200 0 200 0 181 0 c 128,-1,33
 162 0 162 0 143 -0.5 c 128,-1,34
 124 -1 124 -1 109 -2 c 128,-1,35
 94 -3 94 -3 82.5 -4 c 128,-1,36
 71 -5 71 -5 64 -5.5 c 128,-1,37
 57 -6 57 -6 56 -6 c 0,38,39
 42 -6 42 -6 42 15 c 0,40,41
 42 33 42 33 60 35 c 0,42,43
 75 36 75 36 97.1099 37.5769 c 0,44,45
 126 39 126 39 132 42 c 128,-1,46
 138 45 138 45 138 59 c 2,47,-1
 138 374 l 2,48,49
 138 388 138 388 123 390 c 1,50,51
 44.2843 393.887 44.2843 393.887 42.1406 394.408 c 0,52,53
 27 398.088 27 398.088 27 418 c 0,54,55
 27 434 27 434 42 434 c 0,56,57
 45 434 45 434 61 433 c 128,-1,58
 77 432 77 432 106 431.5 c 128,-1,0
 135 431 135 431 168 431 c 128,-1,1
EndSplineSet
EndChar

StartChar: two
Encoding: 50 50 19
Width: 460
GlyphClass: 2
Flags: W
HStem: -13 21G<64 80> 0 59<195.003 345.77> 371 63<87.2597 222.403>
VStem: 26 36<271.145 340.471> 283 63<211.98 315.661>
LayerCount: 2
Fore
SplineSet
78 -13 m 0,0,1
 50 -13 50 -13 50 6 c 0,2,3
 50 11 50 11 52 14.5 c 128,-1,4
 54 18 54 18 60.5 23 c 128,-1,5
 67 28 67 28 75 32.5 c 128,-1,6
 83 37 83 37 99 47.5 c 128,-1,7
 115 58 115 58 131 71 c 0,8,9
 204 129 204 129 258 197 c 0,10,11
 283 230 283 230 283 256 c 0,12,13
 283 303 283 303 239 337 c 128,-1,14
 195 371 195 371 147 371 c 0,15,16
 109 371 109 371 86.5 349 c 128,-1,17
 64 327 64 327 62 298 c 1,18,19
 62 271 62 271 47 271 c 2,20,-1
 46 271 l 2,21,22
 26 271 26 271 26 308 c 0,23,24
 26 363 26 363 66 398.5 c 128,-1,25
 106 434 106 434 167 434 c 0,26,27
 239 434 239 434 292.5 391.5 c 128,-1,28
 346 349 346 349 346 285 c 0,29,30
 346 256 346 256 331 226 c 128,-1,31
 316 196 316 196 302.5 180 c 128,-1,32
 289 164 289 164 251 127 c 128,-1,33
 213 90 213 90 199 75 c 1,34,35
 195 69 195 69 195 68 c 0,36,37
 195 59 195 59 206 59 c 0,38,39
 229 59 229 59 281 63 c 0,40,41
 320 66 320 66 347.5 82.5 c 128,-1,42
 375 99 375 99 398 148 c 1,43,44
 402 159 402 159 411 159 c 0,45,46
 429 159 429 159 429 146 c 0,47,48
 429 143 429 143 391 15 c 0,49,50
 390 11 390 11 388 8.5 c 128,-1,51
 386 6 386 6 384.5 4.5 c 128,-1,52
 383 3 383 3 379.5 2 c 128,-1,53
 376 1 376 1 374.5 1 c 128,-1,54
 373 1 373 1 368 0.5 c 128,-1,55
 363 0 363 0 361 0 c 0,56,57
 321 -2 321 -2 250.5 -5 c 128,-1,58
 180 -8 180 -8 131 -10.5 c 128,-1,59
 82 -13 82 -13 78 -13 c 0,0,1
EndSplineSet
EndChar

StartChar: three
Encoding: 51 51 20
Width: 368
GlyphClass: 2
Flags: W
HStem: -186 44<137.079 246.689> 379 75<65.4222 181.027>
VStem: 27 35<305.013 371.535> 210 9<184 280> 292 55<-83.3834 66.6206>
LayerCount: 2
Fore
SplineSet
122 454 m 0,0,1
 147 454 147 454 181 443 c 128,-1,2
 215 432 215 432 247 402.5 c 128,-1,3
 279 373 279 373 279 334 c 0,4,5
 279 307 279 307 264 271 c 128,-1,6
 249 235 249 235 234 210 c 128,-1,7
 219 185 219 185 219 184 c 0,8,9
 219 179 219 179 226.5 177 c 128,-1,10
 234 175 234 175 252.5 169.5 c 128,-1,11
 271 164 271 164 289 153 c 0,12,13
 347 121 347 121 347 36 c 0,14,15
 347 -64 347 -64 303 -120 c 0,16,17
 278 -153 278 -153 234.5 -169.5 c 128,-1,18
 191 -186 191 -186 146 -186 c 0,19,20
 91 -186 91 -186 60 -160.5 c 128,-1,21
 29 -135 29 -135 29 -112 c 0,22,23
 29 -94 29 -94 42.5 -82.5 c 128,-1,24
 56 -71 56 -71 74 -71 c 0,25,26
 91 -71 91 -71 104 -82 c 128,-1,27
 117 -93 117 -93 125 -106.5 c 128,-1,28
 133 -120 133 -120 152 -131 c 128,-1,29
 171 -142 171 -142 199 -142 c 0,30,31
 247 -142 247 -142 269.5 -103 c 128,-1,32
 292 -64 292 -64 292 -10 c 0,33,34
 292 106 292 106 167 106 c 0,35,36
 152 106 152 106 140 105 c 128,-1,37
 128 104 128 104 126 104 c 0,38,39
 118 104 118 104 113.5 108.5 c 128,-1,40
 109 113 109 113 109 118 c 0,41,42
 109 121 109 121 109.5 123 c 128,-1,43
 110 125 110 125 112.5 127.5 c 128,-1,44
 115 130 115 130 118.5 132.5 c 128,-1,45
 122 135 122 135 129 141 c 128,-1,46
 136 147 136 147 144 155 c 0,47,48
 210 219 210 219 210 280 c 0,49,50
 210 316 210 316 188.5 347.5 c 128,-1,51
 167 379 167 379 116 379 c 0,52,53
 62 379 62 379 62 340 c 0,54,55
 62 335 62 335 62.5 326.5 c 2,56,-1
 63 318 l 2,57,58
 63 305 63 305 45 305 c 128,-1,59
 27 305 27 305 27 347 c 0,60,61
 27 390 27 390 52.5 422 c 128,-1,62
 78 454 78 454 122 454 c 0,0,1
EndSplineSet
EndChar

StartChar: four
Encoding: 52 52 21
Width: 457
GlyphClass: 2
Flags: W
HStem: 0 76<338.002 416.874> 0 68<112.001 275.998> 419 20G<320 332>
VStem: 276 62<-190 -1e-07 76.2551 306.998>
LayerCount: 2
Fore
SplineSet
41 0 m 2,0,1
 24 0 24 0 24 14 c 0,2,3
 24 23 24 23 41 47 c 0,4,5
 299 418 299 418 308 430 c 0,6,7
 315 439 315 439 325 439 c 0,8,9
 339 439 339 439 339 421 c 2,10,-1
 338 87 l 2,11,12
 338 76 338 76 348 76 c 2,13,-1
 365 76 l 2,14,15
 383 76 383 76 395 77 c 128,-1,16
 407 78 407 78 408 78 c 0,17,18
 428 78 428 78 428 65 c 0,19,20
 428 61 428 61 424 34 c 128,-1,21
 420 7 420 7 417 4 c 0,22,23
 413 0 413 0 404 0 c 2,24,-1
 347 0 l 2,25,26
 338 0 338 0 338 -7 c 2,27,-1
 338 -178 l 2,28,29
 338 -190 338 -190 328 -190 c 2,30,-1
 287 -190 l 2,31,32
 276 -190 276 -190 276 -178 c 2,33,-1
 276 -10 l 2,34,35
 276 0 276 0 268 0 c 2,36,-1
 41 0 l 2,0,1
266 68 m 2,37,38
 276 68 276 68 276 81 c 2,39,-1
 276 299 l 2,40,41
 276 307 276 307 271 307 c 0,42,43
 269 307 269 307 265 303 c 1,44,45
 112 77 112 77 112 73 c 0,46,47
 112 68 112 68 118 68 c 2,48,-1
 266 68 l 2,37,38
EndSplineSet
EndChar

StartChar: five
Encoding: 53 53 22
Width: 390
GlyphClass: 2
Flags: W
HStem: 196 67<99.2089 174.837> 306 90<219.924 316.576> 355 90<116.049 198.3>
VStem: 241 62<-43.0901 127.285>
LayerCount: 2
Fore
SplineSet
120 263 m 2,0,1
 194 263 194 263 248.5 207.5 c 128,-1,2
 303 152 303 152 303 62 c 0,3,4
 303 -20 303 -20 255 -90 c 0,5,6
 228 -130 228 -130 183 -164.5 c 128,-1,7
 138 -199 138 -199 117 -199 c 0,8,9
 110 -199 110 -199 104.5 -194.5 c 128,-1,10
 99 -190 99 -190 99 -183 c 128,-1,11
 99 -176 99 -176 108.5 -168.5 c 128,-1,12
 118 -161 118 -161 132 -153.5 c 128,-1,13
 146 -146 146 -146 166.5 -127.5 c 128,-1,14
 187 -109 187 -109 204 -83 c 0,15,16
 241 -23 241 -23 241 39 c 0,17,18
 241 109 241 109 199.5 152.5 c 128,-1,19
 158 196 158 196 104 196 c 0,20,21
 87 196 87 196 69.5 190.5 c 2,22,-1
 52 185 l 1,23,24
 39 185 39 185 39 201 c 0,25,26
 39 204 39 204 55 261.5 c 128,-1,27
 71 319 71 319 87 375.5 c 2,28,-1
 103 432 l 1,29,30
 108 445 108 445 121 445 c 0,31,32
 127 445 127 445 205.5 420.5 c 128,-1,33
 284 396 284 396 292 396 c 128,-1,34
 300 396 300 396 309 405 c 128,-1,35
 318 414 318 414 325.5 426 c 128,-1,36
 333 438 333 438 335 440 c 0,37,38
 339 443 339 443 343 443 c 0,39,40
 348 443 348 443 353.5 439 c 128,-1,41
 359 435 359 435 359 429 c 0,42,43
 359 426 359 426 312 317 c 0,44,45
 308 306 308 306 299 306 c 0,46,47
 292 306 292 306 213 330.5 c 128,-1,48
 134 355 134 355 132 355 c 2,49,-1
 131 355 l 2,50,51
 123 355 123 355 119.5 345 c 128,-1,52
 116 335 116 335 100 274 c 2,53,-1
 99.5 272 l 2,54,55
 99 270 99 270 99 269 c 0,56,57
 99 263 99 263 106 263 c 2,58,-1
 120 263 l 2,0,1
EndSplineSet
EndChar

StartChar: six
Encoding: 54 54 23
Width: 494
GlyphClass: 2
Flags: W
HStem: -29 41<188.963 325.666> 374 37<152.376 272.267> 603 42<350.706 420.881>
VStem: 34 65<112.871 322.918> 377 79<75.6696 256.054>
LayerCount: 2
Fore
SplineSet
377 145 m 0,0,1
 377 194 377 194 359.5 244.5 c 128,-1,2
 342 295 342 295 301 334.5 c 128,-1,3
 260 374 260 374 205 374 c 0,4,5
 148 374 148 374 123.5 329 c 128,-1,6
 99 284 99 284 99 222 c 0,7,8
 99 132 99 132 146 72 c 128,-1,9
 193 12 193 12 259 12 c 0,10,11
 310 12 310 12 343.5 48 c 128,-1,12
 377 84 377 84 377 145 c 0,0,1
209 411 m 0,13,14
 310 411 310 411 383 342.5 c 128,-1,15
 456 274 456 274 456 173 c 0,16,17
 456 89 456 89 401.5 30 c 128,-1,18
 347 -29 347 -29 261 -29 c 0,19,20
 171 -29 171 -29 102.5 42 c 128,-1,21
 34 113 34 113 34 232 c 0,22,23
 34 379 34 379 136.5 497.5 c 128,-1,24
 239 616 239 616 393 644 c 0,25,26
 395 645 395 645 400 645 c 0,27,28
 409 645 409 645 415 637.5 c 128,-1,29
 421 630 421 630 421 622 c 0,30,31
 421 610 421 610 404 603 c 1,32,33
 242 550 242 550 153 412 c 1,34,-1
 152.5 411 l 2,35,36
 152 410 152 410 152 409 c 0,37,38
 152 406 152 406 156 406 c 2,39,-1
 159 406.5 l 2,40,41
 162 407 162 407 167 407.5 c 128,-1,42
 172 408 172 408 178 409 c 128,-1,43
 184 410 184 410 192.5 410.5 c 128,-1,44
 201 411 201 411 209 411 c 0,13,14
EndSplineSet
EndChar

StartChar: seven
Encoding: 55 55 24
Width: 460
GlyphClass: 2
Flags: W
HStem: 345 77<99.127 356.762>
VStem: 36 34<226.254 292.565>
LayerCount: 2
Fore
SplineSet
53 222 m 0,0,1
 48 222 48 222 42 226 c 128,-1,2
 36 230 36 230 36 239 c 0,3,4
 36 240 36 240 40.5 270.5 c 128,-1,5
 45 301 45 301 49.5 354 c 128,-1,6
 54 407 54 407 55 462 c 0,7,8
 55 481 55 481 74 481 c 0,9,10
 77 481 77 481 79.5 480.5 c 128,-1,11
 82 480 82 480 84 478 c 128,-1,12
 86 476 86 476 87 474 c 128,-1,13
 88 472 88 472 89 467.5 c 128,-1,14
 90 463 90 463 90.5 459 c 128,-1,15
 91 455 91 455 92.5 447.5 c 128,-1,16
 94 440 94 440 95 434 c 0,17,18
 97 422 97 422 110 422 c 2,19,-1
 419 422 l 2,20,21
 441 422 441 422 441 403 c 2,22,-1
 441 402 l 2,23,24
 441 397 441 397 382 220 c 0,25,26
 314 14 314 14 265.808 -154.46 c 0,27,28
 251 -205 251 -205 247 -213.5 c 128,-1,29
 243 -222 243 -222 233.214 -222.983 c 0,30,31
 227 -224 227 -224 214 -224 c 2,32,-1
 213 -224 l 1,33,-1
 207 -224 l 2,34,35
 178 -224 178 -224 178 -210 c 0,36,37
 178 -205 178 -205 292 128 c 1,38,39
 358 310 358 310 358 315 c 0,40,41
 358 335 358 335 328 340 c 1,42,43
 271 345 271 345 226 345 c 0,44,45
 141 345 141 345 115 338 c 1,46,47
 103 336 103 336 99 328 c 128,-1,48
 95 320 95 320 81.6007 276.276 c 0,49,50
 75 253 75 253 70 238 c 0,51,52
 65 222 65 222 53 222 c 0,0,1
EndSplineSet
EndChar

StartChar: eight
Encoding: 56 56 25
Width: 457
GlyphClass: 2
Flags: W
HStem: -23 49<148.956 299.135> 315 60<178.318 232.537> 636 48<143.627 263.852>
VStem: 16 76<81.832 231.097> 34 70<447.649 593.503> 307 76<454.916 590.088> 350 85<85.3567 208.13>
LayerCount: 2
Fore
SplineSet
104 526 m 0,0,1
 104 460 104 460 152.5 417.5 c 128,-1,2
 201 375 201 375 231 375 c 0,3,4
 239 375 239 375 246 382 c 0,5,6
 307 438 307 438 307 515 c 0,7,8
 307 565 307 565 277.5 600.5 c 128,-1,9
 248 636 248 636 203 636 c 2,10,-1
 202 636 l 1,11,12
 161 635 161 635 132.5 603 c 128,-1,13
 104 571 104 571 104 526 c 0,0,1
225 26 m 0,14,15
 276 26 276 26 313 58 c 128,-1,16
 350 90 350 90 350 139 c 128,-1,17
 350 188 350 188 309.5 232 c 128,-1,18
 269 276 269 276 203 309 c 0,19,20
 193 315 193 315 187 315 c 0,21,22
 178 315 178 315 156.5 295 c 128,-1,23
 135 275 135 275 113.5 235.5 c 128,-1,24
 92 196 92 196 92 155 c 0,25,26
 92 99 92 99 131 62.5 c 128,-1,27
 170 26 170 26 225 26 c 0,14,15
214 -23 m 0,28,29
 132 -23 132 -23 74 31 c 128,-1,30
 16 85 16 85 16 157 c 0,31,32
 16 227 16 227 87 284 c 0,33,34
 105 298 105 298 127.238 315.235 c 0,35,36
 148 331 148 331 148 334 c 128,-1,37
 148 337 148 337 143 340 c 0,38,39
 95 373 95 373 64.5 418.5 c 128,-1,40
 34 464 34 464 34 514 c 0,41,42
 34 578 34 578 85.5 631 c 128,-1,43
 137 684 137 684 214 684 c 0,44,45
 285 684 285 684 334 646 c 128,-1,46
 383 608 383 608 383 539 c 0,47,48
 383 488 383 488 352.5 440.5 c 128,-1,49
 322 393 322 393 274 366 c 0,50,51
 271 364 271 364 271 360 c 0,52,53
 271 359 271 359 274 356 c 1,54,55
 347 323 347 323 391 272 c 128,-1,56
 435 221 435 221 435 165 c 0,57,58
 435 91 435 91 368 34 c 128,-1,59
 301 -23 301 -23 214 -23 c 0,28,29
EndSplineSet
EndChar

StartChar: nine
Encoding: 57 57 26
Width: 521
GlyphClass: 2
Flags: W
HStem: -216 42<108.415 176.789> -5 40<211.665 359.708> 392 46<158.235 303.024>
VStem: 33 75<152.462 325.934> 404 79<82.0684 281.574>
LayerCount: 2
Fore
SplineSet
108 256 m 0,0,1
 108 174 108 174 157.5 104.5 c 128,-1,2
 207 35 207 35 291 35 c 0,3,4
 337 35 337 35 359.5 54 c 128,-1,5
 382 73 382 73 393 108 c 0,6,7
 404 146 404 146 404 180 c 0,8,9
 404 267 404 267 350 329.5 c 128,-1,10
 296 392 296 392 226 392 c 0,11,12
 180 392 180 392 144 358 c 128,-1,13
 108 324 108 324 108 256 c 0,0,1
282 -5 m 0,14,15
 179 -5 179 -5 106 66 c 128,-1,16
 33 137 33 137 33 232 c 0,17,18
 33 319 33 319 95 378.5 c 128,-1,19
 157 438 157 438 244 438 c 0,20,21
 342 438 342 438 412.5 362.5 c 128,-1,22
 483 287 483 287 483 179 c 0,23,24
 483 59 483 59 393 -53 c 128,-1,25
 303 -165 303 -165 159 -209 c 0,26,27
 133 -216 133 -216 127 -216 c 0,28,29
 117 -216 117 -216 112.5 -207 c 128,-1,30
 108 -198 108 -198 108 -191 c 0,31,32
 108 -179 108 -179 125 -174 c 0,33,34
 170 -160 170 -160 211.5 -136.5 c 128,-1,35
 253 -113 253 -113 280.5 -90 c 128,-1,36
 308 -67 308 -67 328.5 -45 c 128,-1,37
 349 -23 349 -23 358.5 -10 c 128,-1,38
 368 3 368 3 368 5 c 0,39,40
 368 8 368 8 365 8 c 2,41,-1
 360 6.5 l 2,42,43
 355 5 355 5 347.5 3.5 c 128,-1,44
 340 2 340 2 330 0 c 128,-1,45
 320 -2 320 -2 307 -3.5 c 128,-1,46
 294 -5 294 -5 282 -5 c 0,14,15
EndSplineSet
EndChar

StartChar: colon
Encoding: 58 58 27
Width: 233
GlyphClass: 2
Flags: W
HStem: -17 120<85.0487 169.436> 300 121<85.0487 169.436>
VStem: 67 121<1.56396 84.9513 318.564 402.436>
LayerCount: 2
Fore
SplineSet
127 421 m 128,-1,1
 152 421 152 421 170 403 c 128,-1,2
 188 385 188 385 188 360 c 0,3,4
 188 336 188 336 170.5 318 c 128,-1,5
 153 300 153 300 127 300 c 0,6,7
 102 300 102 300 84.5 317.5 c 128,-1,8
 67 335 67 335 67 361 c 128,-1,9
 67 387 67 387 84.5 404 c 128,-1,0
 102 421 102 421 127 421 c 128,-1,1
127 103 m 128,-1,11
 152 103 152 103 170 85.5 c 128,-1,12
 188 68 188 68 188 43 c 0,13,14
 188 19 188 19 170.5 1 c 128,-1,15
 153 -17 153 -17 127 -17 c 0,16,17
 102 -17 102 -17 84.5 0.5 c 128,-1,18
 67 18 67 18 67 44 c 128,-1,19
 67 70 67 70 84.5 86.5 c 128,-1,10
 102 103 102 103 127 103 c 128,-1,11
EndSplineSet
EndChar

StartChar: semicolon
Encoding: 59 59 28
Width: 232
GlyphClass: 2
Flags: W
HStem: -1.5 103.5<84.0797 158.772> 300 121<85.0487 169.436>
VStem: 67 121<318.564 402.436> 165 52<-88.1602 -13.4724>
LayerCount: 2
Fore
SplineSet
127 102 m 0,0,1
 163 102 163 102 190 68 c 128,-1,2
 217 34 217 34 217 -15 c 0,3,4
 217 -75 217 -75 178 -113 c 128,-1,5
 139 -151 139 -151 113 -151 c 0,6,7
 106 -151 106 -151 100 -146 c 128,-1,8
 94 -141 94 -141 94 -133 c 128,-1,9
 94 -125 94 -125 99.5 -120.5 c 128,-1,10
 105 -116 105 -116 117 -108.5 c 128,-1,11
 129 -101 129 -101 138 -93 c 0,12,13
 165 -67 165 -67 165 -45 c 2,14,-1
 165 -44 l 2,15,16
 165 -22 165 -22 148 -14.5 c 128,-1,17
 131 -7 131 -7 107 -1.5 c 128,-1,18
 83 4 83 4 73 19 c 1,19,20
 65 28 65 28 65 46 c 0,21,22
 65 70 65 70 83.5 86 c 128,-1,23
 102 102 102 102 127 102 c 0,0,1
127 421 m 128,-1,25
 152 421 152 421 170 403 c 128,-1,26
 188 385 188 385 188 360 c 0,27,28
 188 336 188 336 170.5 318 c 128,-1,29
 153 300 153 300 127 300 c 0,30,31
 102 300 102 300 84.5 317.5 c 128,-1,32
 67 335 67 335 67 361 c 128,-1,33
 67 387 67 387 84.5 404 c 128,-1,24
 102 421 102 421 127 421 c 128,-1,25
EndSplineSet
EndChar

StartChar: less
Encoding: 60 60 29
Width: 688
GlyphClass: 2
Flags: W
HStem: 410 59<616 634.5>
LayerCount: 2
Fore
SplineSet
53 255 m 2,0,1
 53 266 53 266 72 273 c 0,2,3
 609 469 609 469 612 469 c 0,4,5
 636 469 636 469 636 430 c 0,6,7
 636 416 636 416 616 410 c 1,8,-1
 165 245 l 1,9,-1
 623 79 l 2,10,11
 636 74 636 74 636 61 c 0,12,13
 636 49 636 49 629 36.5 c 128,-1,14
 622 24 622 24 606 24 c 0,15,16
 598 24 598 24 71 217 c 0,17,18
 53 223 53 223 53 236 c 2,19,-1
 53 255 l 2,0,1
EndSplineSet
EndChar

StartChar: equal
Encoding: 61 61 30
Width: 717
GlyphClass: 2
Flags: W
HStem: 160 59<55 657.78> 312 60<54.0059 663.815>
LayerCount: 2
Fore
SplineSet
78 312 m 2,0,1
 54 312 54 312 54 335 c 2,2,-1
 54 349 l 2,3,4
 54 372 54 372 78 372 c 2,5,-1
 643 372 l 2,6,7
 664 372 664 372 664 351 c 2,8,-1
 664 338 l 2,9,10
 664 312 664 312 637 312 c 2,11,-1
 78 312 l 2,0,1
78 160 m 2,12,13
 55 160 55 160 55 182 c 2,14,-1
 55 197 l 2,15,16
 55 219 55 219 79 219 c 2,17,-1
 644 219 l 2,18,19
 665 219 665 219 665 199 c 2,20,-1
 665 184 l 2,21,22
 665 168 665 168 658 164 c 128,-1,23
 651 160 651 160 638 160 c 2,24,-1
 78 160 l 2,12,13
EndSplineSet
EndChar

StartChar: greater
Encoding: 62 62 31
Width: 688
GlyphClass: 2
Flags: W
HStem: 410 59<54.5 73>
LayerCount: 2
Fore
SplineSet
636 255 m 2,0,-1
 636 236 l 2,1,2
 636 223 636 223 618 217 c 0,3,4
 90 24 90 24 83 24 c 0,5,6
 67 24 67 24 60 36.5 c 128,-1,7
 53 49 53 49 53 61 c 0,8,9
 53 74 53 74 67 79 c 2,10,-1
 524 245 l 1,11,-1
 73 410 l 1,12,13
 53 416 53 416 53 430 c 0,14,15
 53 469 53 469 77 469 c 0,16,17
 80 469 80 469 617 273 c 0,18,19
 636 266 636 266 636 255 c 2,0,-1
EndSplineSet
EndChar

StartChar: question
Encoding: 63 63 32
Width: 389
GlyphClass: 2
Flags: W
HStem: -17 120<120.08 205.436> 591 105<31.5 96.262> 667 39<122.6 220.103>
VStem: 101 123<1.56396 84.9513> 122 53<205.768 337.775> 258 87<482.007 627.888>
LayerCount: 2
Fore
SplineSet
163 103 m 128,-1,1
 188 103 188 103 206 85.5 c 128,-1,2
 224 68 224 68 224 43 c 0,3,4
 224 19 224 19 206.5 1 c 128,-1,5
 189 -17 189 -17 163 -17 c 0,6,7
 138 -17 138 -17 119.5 0.5 c 128,-1,8
 101 18 101 18 101 44 c 128,-1,9
 101 70 101 70 119.5 86.5 c 128,-1,0
 138 103 138 103 163 103 c 128,-1,1
164 706 m 0,10,11
 253 706 253 706 299 658 c 128,-1,12
 345 610 345 610 345 555 c 0,13,14
 345 520 345 520 327.5 489.5 c 128,-1,15
 310 459 310 459 285 435 c 128,-1,16
 260 411 260 411 235 387 c 128,-1,17
 210 363 210 363 192.5 329 c 128,-1,18
 175 295 175 295 175 256 c 0,19,20
 175 251 175 251 175.5 243.5 c 128,-1,21
 176 236 176 236 176 233 c 0,22,23
 176 214 176 214 168 205.5 c 128,-1,24
 160 197 160 197 150 197 c 0,25,26
 122 197 122 197 122 253 c 0,27,28
 122 290 122 290 136 324.5 c 128,-1,29
 150 359 150 359 170 386 c 128,-1,30
 190 413 190 413 210 439 c 128,-1,31
 230 465 230 465 244 496.5 c 128,-1,32
 258 528 258 528 258 560 c 0,33,34
 258 604 258 604 232 635.5 c 128,-1,35
 206 667 206 667 169 667 c 0,36,37
 147 667 147 667 131 655 c 128,-1,38
 115 643 115 643 107.5 629 c 128,-1,39
 100 615 100 615 87.5 603 c 128,-1,40
 75 591 75 591 58 591 c 0,41,42
 39 591 39 591 27 604 c 128,-1,43
 15 617 15 617 15 636 c 0,44,45
 15 682 15 682 81 696 c 0,46,47
 126 706 126 706 164 706 c 0,10,11
EndSplineSet
EndChar

StartChar: at
Encoding: 64 64 33
Width: 1024
GlyphClass: 2
Flags: W
HStem: -180 39<390.881 629.998> -14 67<394.771 476.743> -8 47<619.874 731.897> 372 34<546.549 600.983> 419 20G<657.5 673.5> 586 40<433.154 672.635>
VStem: 90 84<69.5055 323.956> 309 76<61.6298 168.894> 638.5 46.5<402.557 434.965> 844 43<178.574 421.162>
LayerCount: 2
Fore
SplineSet
742 -73 m 0,0,1
 755 -73 755 -73 755 -85 c 0,2,3
 755 -102 755 -102 713 -125 c 128,-1,4
 671 -148 671 -148 632 -160 c 0,5,6
 568 -180 568 -180 494 -180 c 2,7,-1
 493 -180 l 1,8,9
 320 -179 320 -179 205 -79 c 128,-1,10
 90 21 90 21 90 190 c 2,11,-1
 90 191 l 2,12,13
 90 234 90 234 99.5 278.5 c 128,-1,14
 109 323 109 323 133 377.5 c 128,-1,15
 157 432 157 432 208.5 483 c 128,-1,16
 260 534 260 534 333 570 c 1,17,18
 443 626 443 626 555 626 c 0,19,20
 702 626 702 626 794.5 532.5 c 128,-1,21
 887 439 887 439 887 303 c 0,22,23
 887 176 887 176 813 84 c 128,-1,24
 739 -8 739 -8 647 -8 c 0,25,26
 620 -8 620 -8 600 0 c 128,-1,27
 580 8 580 8 570.5 19 c 128,-1,28
 561 30 561 30 555.5 41 c 128,-1,29
 550 52 550 52 547.5 60 c 128,-1,30
 545 68 545 68 544 68 c 2,31,-1
 539 63 l 1,32,33
 513 31 513 31 477 8.5 c 128,-1,34
 441 -14 441 -14 404 -14 c 0,35,36
 364 -14 364 -14 336.5 14 c 128,-1,37
 309 42 309 42 309 85 c 0,38,39
 309 152 309 152 379.5 246.5 c 128,-1,40
 450 341 450 341 516 381 c 0,41,42
 559 406 559 406 593 406 c 0,43,44
 604 406 604 406 613 404 c 128,-1,45
 622 402 622 402 623 402 c 0,46,47
 631 402 631 402 638.5 418 c 128,-1,48
 646 434 646 434 648 435 c 0,49,50
 653 439 653 439 662 439 c 0,51,52
 685 439 685 439 685 422 c 0,53,54
 685 418 685 418 674.5 384.5 c 128,-1,55
 664 351 664 351 646 280 c 128,-1,56
 628 209 628 209 614 128 c 1,57,58
 609 106 609 106 609 88 c 0,59,60
 609 62 609 62 624 50.5 c 128,-1,61
 639 39 639 39 658 39 c 0,62,63
 691 39 691 39 729.5 60 c 128,-1,64
 768 81 768 81 792 115 c 0,65,66
 844 187 844 187 844 307 c 2,67,-1
 844 308 l 2,68,69
 844 439 844 439 761.5 512.5 c 128,-1,70
 679 586 679 586 556 586 c 0,71,72
 456 586 456 586 369 539.5 c 128,-1,73
 282 493 282 493 228 404 c 128,-1,74
 174 315 174 315 174 203 c 0,75,76
 174 52 174 52 267.5 -44.5 c 128,-1,77
 361 -141 361 -141 512 -141 c 0,78,79
 580 -141 580 -141 637.5 -123 c 128,-1,80
 695 -105 695 -105 723 -82 c 1,81,82
 738 -73 738 -73 742 -73 c 0,0,1
601 361 m 0,83,84
 601 372 601 372 590 372 c 0,85,86
 556 372 556 372 494.5 312.5 c 128,-1,87
 433 253 433 253 399 166 c 1,88,89
 385 133 385 133 385 104 c 0,90,91
 385 76 385 76 398.5 64.5 c 128,-1,92
 412 53 412 53 428 53 c 0,93,94
 446 53 446 53 476.5 68 c 128,-1,95
 507 83 507 83 528 108 c 0,96,97
 531 112 531 112 536 117 c 128,-1,98
 541 122 541 122 542.5 123.5 c 128,-1,99
 544 125 544 125 546 128.5 c 128,-1,100
 548 132 548 132 549 135 c 128,-1,101
 550 138 550 138 551 142 c 0,102,103
 601 359 601 359 601 361 c 0,83,84
EndSplineSet
EndChar

StartChar: A
Encoding: 65 65 34
Width: 840
GlyphClass: 2
Flags: W
HStem: -6 48.4034<9.18457 90.6221 199.864 274.807 556.513 636.954 762.003 836.749> 307 53<305.001 529.998>
VStem: 637 200<5 73.5>
LayerCount: 2
Fore
SplineSet
140 0 m 0,0,1
 123 0 123 0 106 -0.5 c 128,-1,2
 89 -1 89 -1 76 -2 c 128,-1,3
 63 -3 63 -3 53 -4 c 128,-1,4
 43 -5 43 -5 37 -5.5 c 128,-1,5
 31 -6 31 -6 30 -6 c 0,6,7
 9 -6 9 -6 9 15 c 0,8,9
 9 20 9 20 9.5 23.5 c 128,-1,10
 10 27 10 27 11.5 30 c 128,-1,11
 13 33 13 33 14 35 c 128,-1,12
 15 37 15 37 18.5 38.5 c 128,-1,13
 22 40 22 40 23 40.5 c 128,-1,14
 24 41 24 41 29.5 42 c 128,-1,15
 35 43 35 43 36.5 43.5 c 128,-1,16
 38 44 38 44 45.5 45 c 128,-1,17
 53 46 53 46 55 46 c 0,18,19
 79 49 79 49 91 58.5 c 128,-1,20
 103 68 103 68 114 95 c 0,21,22
 186 256 186 256 270 423 c 1,23,24
 417.546 702.763 417.546 702.763 423.38 709.742 c 0,25,26
 424.965 711.637 424.965 711.637 429 715 c 0,27,28
 440 723 440 723 454 723 c 0,29,30
 481 723 481 723 497 684 c 2,31,-1
 644 344 l 1,32,33
 756 73 756 73 758 70 c 0,34,35
 769 54 769 54 787.5 49 c 128,-1,36
 806 44 806 44 819.5 42 c 128,-1,37
 833 40 833 40 835 30 c 0,38,39
 837 22 837 22 837 16 c 0,40,41
 837 -6 837 -6 816 -6 c 1,42,-1
 799 -4.5 l 2,43,44
 782 -3 782 -3 753.5 -1.5 c 128,-1,45
 725 0 725 0 698 0 c 0,46,47
 665 0 665 0 638 -1.5 c 128,-1,48
 611 -3 611 -3 595.5 -4.5 c 128,-1,49
 580 -6 580 -6 577 -6 c 0,50,51
 556 -6 556 -6 556 11 c 0,52,53
 556 16 556 16 556.5 20 c 128,-1,54
 557 24 557 24 558.5 27.5 c 128,-1,55
 560 31 560 31 560.5 33 c 128,-1,56
 561 35 561 35 565 37 c 128,-1,57
 569 39 569 39 571 39.5 c 128,-1,58
 573 40 573 40 579 41 c 128,-1,59
 585 42 585 42 588.5 42.5 c 128,-1,60
 592 43 592 43 601 44 c 128,-1,61
 610 45 610 45 616 46 c 0,62,63
 637 50 637 50 637 66 c 0,64,65
 637 81 637 81 612.5 157.5 c 128,-1,66
 588 234 588 234 560 297 c 0,67,68
 556 307 556 307 542 307 c 2,69,-1
 301 307 l 2,70,71
 285 307 285 307 278 295 c 0,72,73
 243 230 243 230 215.5 160.5 c 128,-1,74
 188 91 188 91 188 74 c 0,75,76
 188 56 188 56 199.5 50.5 c 128,-1,77
 211 45 211 45 240.289 42.4034 c 0,78,79
 249 42 249 42 253 41 c 0,80,81
 275 39 275 39 275 16 c 0,82,83
 275 -6 275 -6 253 -6 c 0,84,85
 250 -6 250 -6 235.5 -4.5 c 128,-1,86
 221 -3 221 -3 195.5 -1.5 c 128,-1,87
 170 0 170 0 140 0 c 0,0,1
521 360 m 2,88,89
 530 360 530 360 530 368 c 128,-1,90
 530 376 530 376 490.5 468 c 128,-1,91
 451 560 451 560 440 579 c 0,92,93
 436 586 436 586 429 586 c 0,94,95
 420 586 420 586 410 568 c 0,96,97
 305 370 305 370 305 365 c 128,-1,98
 305 360 305 360 311 360 c 2,99,-1
 521 360 l 2,88,89
EndSplineSet
EndChar

StartChar: B
Encoding: 66 66 35
Width: 577
GlyphClass: 2
Flags: W
HStem: -6 48<186.419 366.573> -1 39<17.1831 36.8131> 364 44<184 353.795> 659 43<25.1582 85.1679> 667 45<187.304 349.462>
VStem: 96 88<47.9067 364 408 651.325> 412 91<472.462 605.315> 458 91<123.184 288.113>
LayerCount: 2
Fore
SplineSet
92 702 m 0,0,1
 123 702 123 702 181.5 707 c 128,-1,2
 240 712 240 712 270 712 c 0,3,4
 381 712 381 712 440 671 c 1,5,6
 503 625 503 625 503 553 c 0,7,8
 503 506 503 506 476 464 c 128,-1,9
 449 422 449 422 406 395 c 1,10,-1
 403 392 l 2,11,12
 403 391 403 391 407 389 c 1,13,14
 467 378 467 378 508 328 c 128,-1,15
 549 278 549 278 549 211 c 0,16,17
 549 143 549 143 510 91.5 c 128,-1,18
 471 40 471 40 419 17 c 0,19,20
 368 -6 368 -6 296 -6 c 0,21,22
 272 -6 272 -6 226 -3 c 128,-1,23
 180 0 180 0 156 0 c 0,24,25
 139 0 139 0 101 -1 c 128,-1,26
 63 -2 63 -2 39 -2 c 2,27,-1
 37 -2 l 2,28,29
 31 -2 31 -2 27.5 -1 c 128,-1,30
 24 0 24 0 20.5 6 c 128,-1,31
 17 12 17 12 17 23 c 0,32,33
 17 35 17 35 24.5 38 c 128,-1,34
 32 41 32 41 60.9012 44.4645 c 0,35,36
 70 45 70 45 75 46 c 0,37,38
 82 47 82 47 85.5 48.5 c 128,-1,39
 89 50 89 50 92.5 54.5 c 128,-1,40
 96 59 96 59 96 67 c 2,41,-1
 96 627 l 2,42,43
 96 646 96 646 85.5 651.5 c 128,-1,44
 75 657 75 657 48.0492 658.575 c 0,45,46
 45 659 45 659 43 659 c 0,47,48
 25 659 25 659 25 685 c 0,49,50
 25 703 25 703 43 703 c 0,51,52
 44 703 44 703 50 702.5 c 128,-1,53
 56 702 56 702 67.5 702 c 128,-1,54
 79 702 79 702 92 702 c 0,0,1
412 531 m 0,55,56
 412 552 412 552 405 573.5 c 128,-1,57
 398 595 398 595 382 617 c 128,-1,58
 366 639 366 639 334.5 653 c 128,-1,59
 303 667 303 667 261 667 c 0,60,61
 204 667 204 667 189 655 c 0,62,63
 184 651 184 651 184 642 c 2,64,-1
 184 640 l 1,65,-1
 184 421 l 2,66,67
 184 408 184 408 195 408 c 2,68,-1
 241 408 l 1,69,-1
 254 408 l 2,70,71
 362 408 362 408 397 473 c 1,72,73
 412 503 412 503 412 531 c 0,55,56
263 42 m 0,74,75
 344 42 344 42 401 85.5 c 128,-1,76
 458 129 458 129 458 206 c 0,77,78
 458 257 458 257 428.5 300.5 c 128,-1,79
 399 344 399 344 337 357 c 0,80,81
 304 364 304 364 251 364 c 2,82,-1
 199 364 l 2,83,84
 184 364 184 364 184 348 c 2,85,-1
 184 84 l 2,86,87
 184 73 184 73 185.5 67 c 128,-1,88
 187 61 187 61 194 54.5 c 128,-1,89
 201 48 201 48 215 46 c 0,90,91
 245 42 245 42 263 42 c 0,74,75
EndSplineSet
EndChar

StartChar: C
Encoding: 67 67 36
Width: 716
GlyphClass: 2
Flags: W
HStem: -25 53<300.336 512.733> 450 21G<647.5 667.5> 666 47<286.516 498.312>
VStem: 19 99<228.811 464.96> 635 43<450.004 545> 673 32<189.287 242.986>
LayerCount: 2
Fore
SplineSet
118 362 m 0,0,1
 118 221 118 221 202 124.5 c 128,-1,2
 286 28 286 28 406 28 c 0,3,4
 496 28 496 28 570.5 83 c 128,-1,5
 645 138 645 138 673 229 c 0,6,7
 678 243 678 243 688 243 c 0,8,9
 705 243 705 243 705 231 c 1,10,11
 682 72 682 72 679 65 c 0,12,13
 674 48 674 48 656 48 c 2,14,-1
 655 48 l 1,15,-1
 627 48 l 2,16,17
 615 48 615 48 609.5 46 c 128,-1,18
 604 44 604 44 594.5 37 c 128,-1,19
 585 30 585 30 579 27 c 0,20,21
 489 -25 489 -25 389 -25 c 0,22,23
 318 -25 318 -25 250 3 c 128,-1,24
 182 31 182 31 130 81 c 0,25,26
 78 132 78 132 48.5 201 c 128,-1,27
 19 270 19 270 19 343 c 0,28,29
 19 418 19 418 50 488 c 128,-1,30
 81 558 81 558 133 608 c 0,31,32
 243 713 243 713 394 713 c 2,33,-1
 395 713 l 2,34,35
 450 713 450 713 496.5 699.5 c 128,-1,36
 543 686 543 686 568.5 672 c 128,-1,37
 594 658 594 658 596 658 c 0,38,39
 604 658 604 658 610 675 c 128,-1,40
 616 692 616 692 626 695 c 0,41,42
 628 695 628 695 632 695.5 c 128,-1,43
 636 696 636 696 637 696 c 0,44,45
 648 696 648 696 650 684 c 2,46,-1
 657 631.5 l 2,47,48
 664 579 664 579 671 525 c 128,-1,49
 678 471 678 471 678 467 c 0,50,51
 678 450 678 450 657 450 c 0,52,53
 638 450 638 450 635 456.5 c 128,-1,54
 632 463 632 463 628 498 c 0,55,56
 623 536 623 536 601 565 c 0,57,58
 566 609 566 609 512 637.5 c 128,-1,59
 458 666 458 666 392 666 c 0,60,61
 281 666 281 666 199.5 582 c 128,-1,62
 118 498 118 498 118 362 c 0,0,1
EndSplineSet
EndChar

StartChar: D
Encoding: 68 68 37
Width: 726
GlyphClass: 2
Flags: W
HStem: 0 48.5<10.375 108.325 213.253 429.52> 648 43<11.0056 100.072 217.898 403.431>
VStem: 114 91<67.7682 638.808> 609 103<231.158 446.427>
LayerCount: 2
Fore
SplineSet
307 49 m 0,0,1
 429 49 429 49 519 122.5 c 128,-1,2
 609 196 609 196 609 324 c 0,3,4
 609 400 609 400 577 470.5 c 128,-1,5
 545 541 545 541 486 585 c 1,6,7
 399 648 399 648 273 648 c 0,8,9
 230 648 230 648 217.5 642 c 128,-1,10
 205 636 205 636 205 616 c 2,11,-1
 205 95 l 2,12,13
 205 76 205 76 213 67.5 c 128,-1,14
 221 59 221 59 242 55 c 0,15,16
 275 49 275 49 307 49 c 0,0,1
11 670 m 0,17,18
 11 691 11 691 34 691 c 2,19,-1
 220 691 l 2,20,21
 420 691 420 691 517 646 c 0,22,23
 600 607 600 607 656 530 c 128,-1,24
 712 453 712 453 712 351 c 0,25,26
 712 222 712 222 622 125 c 128,-1,27
 532 28 532 28 415 6 c 0,28,29
 379 0 379 0 324 0 c 2,30,-1
 34 0 l 2,31,32
 10 0 10 0 10 29 c 0,33,34
 10 35 10 35 11 38.5 c 128,-1,35
 12 42 12 42 15.5 44.5 c 128,-1,36
 19 47 19 47 22.5 48.5 c 128,-1,37
 26 50 26 50 33.5 50.5 c 128,-1,38
 41 51 41 51 47 51.5 c 128,-1,39
 53 52 53 52 65 52 c 128,-1,40
 77 52 77 52 86 53 c 0,41,42
 103 54 103 54 108.5 62.5 c 128,-1,43
 114 71 114 71 114 90 c 2,44,-1
 114 608 l 2,45,46
 114 633 114 633 100.5 639 c 128,-1,47
 87 645 87 645 47.3955 645.519 c 0,48,49
 36 646 36 646 30 646 c 0,50,51
 11 646 11 646 11 670 c 0,17,18
EndSplineSet
EndChar

StartChar: E
Encoding: 69 69 38
Width: 591
GlyphClass: 2
Flags: W
HStem: -12 46<10.4282 70.709> 0 56<205.225 475.585> 378 59<203.396 417.66> 653 55<208.675 455.755> 663.5 44.5<17.0947 104.841>
VStem: 110 91<65.459 374.693 437 642.685> 419 56<278.453 377.798 438.232 524.547>
LayerCount: 2
Fore
SplineSet
446 525 m 0,0,1
 475 525 475 525 475 496 c 2,2,-1
 475 307 l 2,3,4
 475 278 475 278 446 278 c 0,5,6
 419 278 419 278 419 300 c 2,7,-1
 419 355 l 2,8,9
 419 378 419 378 392 378 c 2,10,-1
 251 378 l 2,11,12
 240 378 240 378 233 377 c 128,-1,13
 226 376 226 376 217.5 372.5 c 128,-1,14
 209 369 209 369 205 360 c 128,-1,15
 201 351 201 351 201 337 c 2,16,-1
 201 102 l 2,17,18
 201 91 201 91 202.5 84.5 c 128,-1,19
 204 78 204 78 211.5 71.5 c 128,-1,20
 219 65 219 65 233 63 c 0,21,22
 278 56 278 56 329 56 c 0,23,24
 363 56 363 56 413 62 c 128,-1,25
 463 68 463 68 476 78 c 0,26,27
 485 85 485 85 512 133.5 c 128,-1,28
 539 182 539 182 547 187 c 0,29,30
 553 190 553 190 557 190 c 0,31,32
 564 190 564 190 569.5 184 c 128,-1,33
 575 178 575 178 575 167 c 2,34,-1
 575 166 l 2,35,36
 575 157 575 157 544 20 c 0,37,38
 542 8 542 8 535.5 4 c 128,-1,39
 529 0 529 0 513 0 c 2,40,-1
 161 0 l 2,41,42
 115 0 115 0 75.5 -6 c 128,-1,43
 36 -12 36 -12 34 -12 c 0,44,45
 22 -12 22 -12 15.5 -0.5 c 128,-1,46
 9 11 9 11 9 18 c 0,47,48
 9 29 9 29 17 34 c 128,-1,49
 25 39 25 39 56.9747 50.7268 c 0,50,51
 75 58 75 58 87 62 c 0,52,53
 110 70 110 70 110 102 c 2,54,-1
 110 636 l 2,55,56
 110 647 110 647 105 650 c 128,-1,57
 100 653 100 653 82 656 c 0,58,59
 73 657 73 657 60 658 c 128,-1,60
 47 659 47 659 40.5 660 c 128,-1,61
 34 661 34 661 27 663.5 c 128,-1,62
 20 666 20 666 17 671 c 128,-1,63
 14 676 14 676 14 685 c 0,64,65
 14 708 14 708 34 708 c 2,66,-1
 505 708 l 2,67,68
 522 708 522 708 527 691 c 1,69,70
 531 672 531 672 538.5 638 c 128,-1,71
 546 604 546 604 551.5 580.5 c 128,-1,72
 557 557 557 557 557 555 c 0,73,74
 557 540 557 540 536 540 c 0,75,76
 520 540 520 540 507 558 c 1,77,78
 462.464 637.466 462.464 637.466 456.029 644.093 c 0,79,80
 447.378 653 447.378 653 427 653 c 2,81,-1
 234 653 l 2,82,83
 214 653 214 653 208.5 643 c 128,-1,84
 203 633 203 633 203 614 c 2,85,-1
 203 460 l 2,86,87
 203 437 203 437 223 437 c 2,88,-1
 380 437 l 2,89,90
 391 437 391 437 398 438.5 c 128,-1,91
 405 440 405 440 412 448 c 128,-1,92
 419 456 419 456 419 471 c 2,93,-1
 419 503 l 2,94,95
 419 525 419 525 446 525 c 0,0,1
EndSplineSet
EndChar

StartChar: F
Encoding: 70 70 39
Width: 553
GlyphClass: 2
Flags: W
HStem: -1.5 49.5<11.709 94.3248 198.549 313.5> 369 59<199.067 404.873> 651 52<10.2969 99.7417 199.539 437.78>
VStem: 100 97<68.189 369 428 650.084> 413 48<428.33 509.812>
LayerCount: 2
Fore
SplineSet
461 495 m 0,0,1
 461 492 461 492 460 479.5 c 128,-1,2
 459 467 459 467 458 445.5 c 128,-1,3
 457 424 457 424 457 399 c 0,4,5
 457 373 457 373 458 351.5 c 128,-1,6
 459 330 459 330 460 317.5 c 128,-1,7
 461 305 461 305 461 303 c 0,8,9
 461 276 461 276 433 276 c 0,10,11
 429 276 429 276 426 276.5 c 128,-1,12
 423 277 423 277 420.5 279 c 128,-1,13
 418 281 418 281 416 283 c 128,-1,14
 414 285 414 285 413 289 c 128,-1,15
 412 293 412 293 411 297 c 128,-1,16
 410 301 410 301 409 308 c 128,-1,17
 408 315 408 315 407.5 320.5 c 128,-1,18
 407 326 407 326 406 336 c 128,-1,19
 405 346 405 346 404 354 c 0,20,21
 403 369 403 369 386 369 c 2,22,-1
 219 369 l 2,23,24
 209 369 209 369 203.5 364 c 128,-1,25
 198 359 198 359 197.5 354 c 128,-1,26
 197 349 197 349 197 340 c 2,27,-1
 197 86 l 2,28,29
 197 74 197 74 198.5 68 c 128,-1,30
 200 62 200 62 209.5 55.5 c 128,-1,31
 219 49 219 49 239 48 c 0,32,33
 249 48 249 48 260 48 c 128,-1,34
 271 48 271 48 277.5 48 c 128,-1,35
 284 48 284 48 292 47.5 c 128,-1,36
 300 47 300 47 304.5 46.5 c 128,-1,37
 309 46 309 46 313.5 45.5 c 128,-1,38
 318 45 318 45 320.5 43 c 128,-1,39
 323 41 323 41 325 39 c 128,-1,40
 327 37 327 37 328 33.5 c 128,-1,41
 329 30 329 30 329 25 c 2,42,-1
 329 15 l 2,43,44
 329 -6 329 -6 311 -6 c 1,45,-1
 291.5 -4.5 l 2,46,47
 272 -3 272 -3 239 -1.5 c 128,-1,48
 206 0 206 0 173 0 c 0,49,50
 152 0 152 0 130.5 -0.5 c 128,-1,51
 109 -1 109 -1 93 -2 c 128,-1,52
 77 -3 77 -3 64 -4 c 128,-1,53
 51 -5 51 -5 43.5 -5.5 c 128,-1,54
 36 -6 36 -6 35 -6 c 0,55,56
 11 -6 11 -6 11 17 c 0,57,58
 11 23 11 23 12 27.5 c 128,-1,59
 13 32 13 32 15.5 35 c 128,-1,60
 18 38 18 38 20 39.5 c 128,-1,61
 22 41 22 41 28.5 42 c 128,-1,62
 35 43 35 43 39 43.5 c 128,-1,63
 43 44 43 44 53 44.5 c 128,-1,64
 63 45 63 45 70 46 c 0,65,66
 89 48 89 48 94.5 55.5 c 128,-1,67
 100 63 100 63 100 78 c 2,68,-1
 100 621 l 2,69,70
 100 627 100 627 99.5 631 c 128,-1,71
 99 635 99 635 97.5 638 c 128,-1,72
 96 641 96 641 94.5 643 c 128,-1,73
 93 645 93 645 89 646.5 c 128,-1,74
 85 648 85 648 82.5 649 c 128,-1,75
 80 650 80 650 73.5 650.5 c 128,-1,76
 67 651 67 651 63 651 c 128,-1,77
 59 651 59 651 49.5 651.5 c 128,-1,78
 40 652 40 652 34 652 c 0,79,80
 10 652 10 652 10 674 c 0,81,82
 10 705 10 705 29 705 c 0,83,84
 32 705 32 705 43 703.5 c 128,-1,85
 54 702 54 702 73.5 701 c 128,-1,86
 93 700 93 700 115 700 c 0,87,88
 132 700 132 700 192 701.5 c 128,-1,89
 252 703 252 703 281 703 c 2,90,-1
 475 703 l 1,91,-1
 480 703 l 2,92,93
 508 703 508 703 514 678 c 0,94,95
 516 668 516 668 522.5 640 c 128,-1,96
 529 612 529 612 533.5 591.5 c 128,-1,97
 538 571 538 571 538 568 c 0,98,99
 538 558 538 558 532 551.5 c 128,-1,100
 526 545 526 545 517 545 c 0,101,102
 500 545 500 545 467.545 603.728 c 0,103,104
 458 620 458 620 453 630 c 0,105,106
 445 643 445 643 438 647 c 128,-1,107
 431 651 431 651 417 651 c 2,108,-1
 228 651 l 2,109,110
 215 651 215 651 208 645 c 128,-1,111
 201 639 201 639 200 632.5 c 128,-1,112
 199 626 199 626 199 614 c 2,113,-1
 199 443 l 2,114,115
 199 428 199 428 214 428 c 2,116,-1
 385 428 l 2,117,118
 389 428 389 428 391.5 428.5 c 128,-1,119
 394 429 394 429 396.5 430 c 128,-1,120
 399 431 399 431 400 432 c 128,-1,121
 401 433 401 433 402.5 436 c 128,-1,122
 404 439 404 439 405 441.5 c 128,-1,123
 406 444 406 444 407 449.5 c 128,-1,124
 408 455 408 455 408.5 459.5 c 128,-1,125
 409 464 409 464 410.5 472.5 c 128,-1,126
 412 481 412 481 413 488 c 0,127,128
 417 516 417 516 437 516 c 0,129,130
 447 516 447 516 454 510 c 128,-1,131
 461 504 461 504 461 495 c 0,0,1
EndSplineSet
EndChar

StartChar: G
Encoding: 71 71 40
Width: 707
GlyphClass: 2
Flags: W
HStem: -25 55<287.501 491.29> 266 47<433.064 544.587 645.099 692.295> 452 21G<619 640.5> 674 49<255.075 450.108>
VStem: 16 103<226.844 495.71> 558 86<96.189 244.905> 609 46<452.25 528.102>
LayerCount: 2
Fore
SplineSet
375 -25 m 0,0,1
 230 -25 230 -25 123 88.5 c 128,-1,2
 16 202 16 202 16 362 c 0,3,4
 16 516 16 516 116.5 619.5 c 128,-1,5
 217 723 217 723 360 723 c 0,6,7
 402 723 402 723 442 713 c 128,-1,8
 482 703 482 703 505.5 691 c 128,-1,9
 529 679 529 679 547.5 667.5 c 128,-1,10
 566 656 566 656 568 656 c 2,11,-1
 572 656 l 2,12,13
 583 656 583 656 598.5 675.5 c 128,-1,14
 614 695 614 695 617 696 c 0,15,16
 622 699 622 699 630 699 c 0,17,18
 644 699 644 699 644 685 c 2,19,-1
 644 657 l 2,20,21
 644 628 644 628 645 598 c 128,-1,22
 646 568 646 568 648 546 c 128,-1,23
 650 524 650 524 651.5 506.5 c 128,-1,24
 653 489 653 489 654 479 c 128,-1,25
 655 469 655 469 655 468 c 0,26,27
 655 452 655 452 626 452 c 0,28,29
 612 452 612 452 609 461.5 c 128,-1,30
 606 471 606 471 598.5 498.5 c 128,-1,31
 591 526 591 526 570 555 c 0,32,33
 531 608 531 608 472 641 c 128,-1,34
 413 674 413 674 348 674 c 0,35,36
 307 674 307 674 268.5 658 c 128,-1,37
 230 642 230 642 195.5 609 c 128,-1,38
 161 576 161 576 140 515.5 c 128,-1,39
 119 455 119 455 119 376 c 0,40,41
 119 280 119 280 145 209 c 128,-1,42
 171 138 171 138 213.5 101 c 128,-1,43
 256 64 256 64 299 47 c 128,-1,44
 342 30 342 30 386 30 c 0,45,46
 444 30 444 30 495 54 c 128,-1,47
 546 78 546 78 555 96 c 0,48,49
 558 102 558 102 558 114 c 2,50,-1
 558 229 l 2,51,52
 558 249 558 249 545 255 c 128,-1,53
 532 261 532 261 491.036 263.522 c 0,54,55
 473 265 473 265 462 266 c 0,56,57
 433 268 433 268 433 290 c 0,58,59
 433 313 433 313 456 313 c 0,60,61
 459 313 459 313 472.5 312 c 128,-1,62
 486 311 486 311 509.5 310 c 128,-1,63
 533 309 533 309 561 309 c 2,64,-1
 563 309 l 2,65,66
 592 309 592 309 617 310 c 128,-1,67
 642 311 642 311 656 312 c 128,-1,68
 670 313 670 313 673 313 c 0,69,70
 686 313 686 313 692.5 306.5 c 128,-1,71
 699 300 699 300 699 292 c 0,72,73
 699 275 699 275 673.5 266 c 128,-1,74
 648 257 648 257 645 245 c 0,75,76
 644 242 644 242 644 234 c 2,77,-1
 644 61 l 2,78,79
 644 41 644 41 630 41 c 0,80,81
 624 41 624 41 613.5 51.5 c 128,-1,82
 603 62 603 62 599 62 c 0,83,84
 593 62 593 62 585 54 c 0,85,86
 495 -25 495 -25 375 -25 c 0,0,1
EndSplineSet
EndChar

StartChar: H
Encoding: 72 72 41
Width: 780
GlyphClass: 2
Flags: W
HStem: -0.5 45.5<15.0205 106.841 204.549 301.984 477.415 575.325 672.34 762.918> 374 63<203 579.893> 654 47.5<14.2109 110.628 203.949 302.903 496.862 557.716 672.114 768.332> 660 43<485.101 527.862 675.12 768.884>
VStem: 112 91<65.1572 374 437 649.829> 581 90<56.2839 374 437 650.188>
LayerCount: 2
Fore
SplineSet
162 0 m 128,-1,1
 143 0 143 0 123 -0.5 c 128,-1,2
 103 -1 103 -1 88.5 -2 c 128,-1,3
 74 -3 74 -3 62.5 -4 c 128,-1,4
 51 -5 51 -5 44 -5.5 c 128,-1,5
 37 -6 37 -6 36 -6 c 0,6,7
 15 -6 15 -6 15 22 c 0,8,9
 15 41 15 41 59.7782 43.4727 c 0,10,11
 75 44 75 44 85 45 c 0,12,13
 102 46 102 46 107 54.5 c 128,-1,14
 112 63 112 63 112 78 c 2,15,-1
 112 620 l 2,16,17
 112 628 112 628 110 633.5 c 128,-1,18
 108 639 108 639 105.5 642.5 c 128,-1,19
 103 646 103 646 96.5 648 c 128,-1,20
 90 650 90 650 87 650.5 c 128,-1,21
 84 651 84 651 73.5 652.5 c 128,-1,22
 63 654 63 654 59 654 c 1,23,24
 56 655 56 655 45 655.5 c 128,-1,25
 34 656 34 656 29 657.5 c 128,-1,26
 24 659 24 659 19 663.5 c 128,-1,27
 14 668 14 668 14 676 c 128,-1,28
 14 684 14 684 20 693.5 c 128,-1,29
 26 703 26 703 38 703 c 0,30,31
 41 703 41 703 56.5 702.5 c 128,-1,32
 72 702 72 702 99 701.5 c 128,-1,33
 126 701 126 701 158 701 c 2,34,-1
 161 701 l 2,35,36
 194 701 194 701 221.5 701.5 c 128,-1,37
 249 702 249 702 265 702.5 c 128,-1,38
 281 703 281 703 284 703 c 0,39,40
 300 703 300 703 303 682 c 0,41,42
 303 680 303 680 303.5 677 c 128,-1,43
 304 674 304 674 304 673 c 0,44,45
 304 661 304 661 293.5 657.5 c 128,-1,46
 283 654 283 654 247.531 652.295 c 0,47,48
 234 652 234 652 226 651 c 0,49,50
 203 650 203 650 203 621 c 2,51,-1
 203 452 l 2,52,53
 203 437 203 437 216 437 c 2,54,-1
 562 437 l 2,55,56
 580 437 580 437 580 456 c 2,57,-1
 580 607 l 2,58,59
 580 643 580 643 558 651 c 0,60,61
 549 655 549 655 528.5 655.5 c 128,-1,62
 508 656 508 656 496.5 660 c 128,-1,63
 485 664 485 664 485 679 c 0,64,65
 485 703 485 703 510 703 c 0,66,67
 513 703 513 703 526.5 702.5 c 128,-1,68
 540 702 540 702 563.5 701.5 c 128,-1,69
 587 701 587 701 615 701 c 0,70,71
 635 701 635 701 656 701.5 c 128,-1,72
 677 702 677 702 693 703 c 128,-1,73
 709 704 709 704 721.5 704.5 c 128,-1,74
 734 705 734 705 741.5 705.5 c 128,-1,75
 749 706 749 706 750 706 c 0,76,77
 769 706 769 706 769 685 c 0,78,79
 769 679 769 679 768 674.5 c 128,-1,80
 767 670 767 670 763.5 666.5 c 128,-1,81
 760 663 760 663 756.5 661 c 128,-1,82
 753 659 753 659 746 657.5 c 128,-1,83
 739 656 739 656 733.5 655.5 c 128,-1,84
 728 655 728 655 717 653.5 c 128,-1,85
 706 652 706 652 698 651 c 0,86,87
 671 648 671 648 671 622 c 2,88,-1
 671 84 l 1,89,-1
 671 79 l 2,90,91
 671 48 671 48 699 46 c 0,92,93
 705 46 705 46 714.5 45.5 c 128,-1,94
 724 45 724 45 729 44.5 c 128,-1,95
 734 44 734 44 740.5 43 c 128,-1,96
 747 42 747 42 750.5 40.5 c 128,-1,97
 754 39 754 39 757 36.5 c 128,-1,98
 760 34 760 34 761.5 30 c 128,-1,99
 763 26 763 26 763 20 c 0,100,101
 763 -6 763 -6 742 -6 c 0,102,103
 741 -6 741 -6 734 -5.5 c 128,-1,104
 727 -5 727 -5 715.5 -4 c 128,-1,105
 704 -3 704 -3 689 -2 c 128,-1,106
 674 -1 674 -1 655 -0.5 c 128,-1,107
 636 0 636 0 617 0 c 128,-1,108
 598 0 598 0 579 -0.5 c 128,-1,109
 560 -1 560 -1 545.5 -2 c 128,-1,110
 531 -3 531 -3 520 -4 c 128,-1,111
 509 -5 509 -5 502 -5.5 c 128,-1,112
 495 -6 495 -6 494 -6 c 0,113,114
 477 -6 477 -6 477 14 c 0,115,116
 477 20 477 20 477.5 23.5 c 128,-1,117
 478 27 478 27 479.5 30.5 c 128,-1,118
 481 34 481 34 482 35.5 c 128,-1,119
 483 37 483 37 487 38.5 c 128,-1,120
 491 40 491 40 494 41 c 128,-1,121
 497 42 497 42 503.5 42.5 c 128,-1,122
 510 43 510 43 515.5 43.5 c 128,-1,123
 521 44 521 44 531.5 44.5 c 128,-1,124
 542 45 542 45 550 46 c 0,125,126
 570 47 570 47 575.5 56 c 128,-1,127
 581 65 581 65 581 85 c 2,128,-1
 581 362 l 2,129,130
 581 374 581 374 567 374 c 2,131,-1
 218 374 l 2,132,133
 203 374 203 374 203 356 c 2,134,-1
 203 79 l 2,135,136
 203 70 203 70 204.5 65 c 128,-1,137
 206 60 206 60 217.5 53.5 c 128,-1,138
 229 47 229 47 252 45 c 0,139,140
 254 45 254 45 265.5 44 c 128,-1,141
 277 43 277 43 283 42 c 128,-1,142
 289 41 289 41 295.5 36 c 128,-1,143
 302 31 302 31 302 23 c 0,144,145
 302 -6 302 -6 286 -6 c 0,146,147
 285 -6 285 -6 278.5 -5.5 c 128,-1,148
 272 -5 272 -5 260 -4 c 128,-1,149
 248 -3 248 -3 233.5 -2 c 128,-1,150
 219 -1 219 -1 200 -0.5 c 128,-1,0
 181 0 181 0 162 0 c 128,-1,1
EndSplineSet
EndChar

StartChar: I
Encoding: 73 73 42
Width: 330
GlyphClass: 2
Flags: W
HStem: -6 51.5<14.0978 120.092 232.313 312.604> 644.904 47.596<31.0505 113.745 214 294.402>
VStem: 121 93<49.146 640.904>
LayerCount: 2
Fore
SplineSet
53 696 m 1,0,-1
 70 695 l 2,1,2
 87 694 87 694 115 692.5 c 128,-1,3
 143 691 143 691 171 691 c 0,4,5
 200 691 200 691 224 692 c 128,-1,6
 248 693 248 693 261.5 694 c 128,-1,7
 275 695 275 695 278 695 c 0,8,9
 295 695 295 695 295 676 c 0,10,11
 295 671 295 671 294.5 667.5 c 128,-1,12
 294 664 294 664 293.5 661 c 128,-1,13
 293 658 293 658 291 656 c 128,-1,14
 289 654 289 654 287.5 652.5 c 128,-1,15
 286 651 286 651 282 650 c 128,-1,16
 278 649 278 649 275.5 648 c 128,-1,17
 273 647 273 647 267 646.5 c 128,-1,18
 261 646 261 646 257 645.5 c 128,-1,19
 253 645 253 645 244.5 644.5 c 128,-1,20
 236 644 236 644 230 643 c 0,21,22
 214 642 214 642 214 626 c 2,23,-1
 214 73 l 2,24,25
 214 49 214 49 232 47 c 0,26,27
 242 46 242 46 254 45.5 c 128,-1,28
 266 45 266 45 273 45 c 128,-1,29
 280 45 280 45 287.5 44 c 128,-1,30
 295 43 295 43 299 42 c 128,-1,31
 303 41 303 41 306.5 39 c 128,-1,32
 310 37 310 37 311.5 33 c 128,-1,33
 313 29 313 29 313 24 c 0,34,35
 313 -6 313 -6 293 -6 c 0,36,37
 292 -6 292 -6 285 -5.5 c 128,-1,38
 278 -5 278 -5 265.5 -4 c 128,-1,39
 253 -3 253 -3 238 -2 c 128,-1,40
 223 -1 223 -1 203 -0.5 c 128,-1,41
 183 0 183 0 163 0 c 128,-1,42
 143 0 143 0 123 -0.5 c 128,-1,43
 103 -1 103 -1 87.5 -2 c 128,-1,44
 72 -3 72 -3 60 -4 c 128,-1,45
 48 -5 48 -5 40.5 -5.5 c 128,-1,46
 33 -6 33 -6 32 -6 c 0,47,48
 16 -6 16 -6 14 17 c 0,49,50
 13 20 13 20 13 27 c 0,51,52
 13 39 13 39 21.5 42 c 128,-1,53
 30 45 30 45 61.5952 46.8641 c 0,54,55
 84 48 84 48 99 49 c 0,56,57
 121 50 121 50 121 78 c 2,58,-1
 121 610 l 2,59,60
 121 613 121 613 121.5 618.5 c 128,-1,61
 122 624 122 624 122 625 c 0,62,63
 122 638 122 638 114 641 c 128,-1,64
 106 644 106 644 78.1275 644.904 c 0,65,66
 63 645 63 645 54 646 c 0,67,68
 31 648 31 648 31 668 c 0,69,70
 31 696 31 696 53 696 c 1,0,-1
EndSplineSet
EndChar

StartChar: J
Encoding: 74 74 43
Width: 323
GlyphClass: 2
Flags: W
HStem: -217 61<-19.5 63.2197> 645 46.5<15.0505 119.031 216.136 305.585>
VStem: 121 93<-50.2266 640.397>
LayerCount: 2
Fore
SplineSet
169 691 m 2,0,1
 201 691 201 691 228 692 c 128,-1,2
 255 693 255 693 270.5 694 c 128,-1,3
 286 695 286 695 289 695 c 0,4,5
 306 695 306 695 306 675 c 0,6,7
 306 668 306 668 305 663 c 128,-1,8
 304 658 304 658 301 655 c 128,-1,9
 298 652 298 652 295.5 650 c 128,-1,10
 293 648 293 648 286.5 646.5 c 128,-1,11
 280 645 280 645 275 645 c 128,-1,12
 270 645 270 645 259.5 644 c 128,-1,13
 249 643 249 643 241 642 c 0,14,15
 214 640 214 640 214 607 c 2,16,-1
 214 57 l 2,17,18
 214 -3 214 -3 189 -57 c 128,-1,19
 164 -111 164 -111 124 -150 c 0,20,21
 115 -159 115 -159 98 -172.5 c 128,-1,22
 81 -186 81 -186 50.5 -201.5 c 128,-1,23
 20 -217 20 -217 -2 -217 c 0,24,25
 -37 -217 -37 -217 -60.5 -192 c 128,-1,26
 -84 -167 -84 -167 -84 -138 c 0,27,28
 -84 -117 -84 -117 -71 -102.5 c 128,-1,29
 -58 -88 -58 -88 -38 -88 c 0,30,31
 -21 -88 -21 -88 -7.5 -98.5 c 128,-1,32
 6 -109 6 -109 13.5 -122 c 128,-1,33
 21 -135 21 -135 33 -145.5 c 128,-1,34
 45 -156 45 -156 60 -156 c 0,35,36
 95 -156 95 -156 112 -93 c 0,37,38
 121 -60 121 -60 121 -27 c 2,39,-1
 121 609 l 2,40,41
 121 616 121 616 119.5 621 c 128,-1,42
 118 626 118 626 116.5 629.5 c 128,-1,43
 115 633 115 633 110 635.5 c 128,-1,44
 105 638 105 638 101.5 639.5 c 128,-1,45
 98 641 98 641 89.5 642 c 128,-1,46
 81 643 81 643 75.5 643.5 c 128,-1,47
 70 644 70 644 58 645 c 128,-1,48
 46 646 46 646 38 647 c 0,49,50
 15 650 15 650 15 669 c 0,51,52
 15 696 15 696 38 696 c 0,53,54
 39 696 39 696 46 695.5 c 128,-1,55
 53 695 53 695 65 694.5 c 128,-1,56
 77 694 77 694 92 693 c 128,-1,57
 107 692 107 692 126.5 691.5 c 128,-1,58
 146 691 146 691 165 691 c 2,59,-1
 169 691 l 2,0,1
EndSplineSet
EndChar

StartChar: K
Encoding: 75 75 44
Width: 669
GlyphClass: 2
Flags: W
HStem: -5 50<14.375 103.684 204.877 306.737 579.226 656.264> 323 56<204.107 244.867> 663.5 39.5<381.829 427.171 545.588 638.97>
VStem: 114 90<56.8016 319.481 379.004 648.007> 438 201<626 692.5>
LayerCount: 2
Back
SplineSet
286.72 -6.14355 m 0,0,1
 285.916 -6.14355 285.916 -6.14355 278.668 -5.51077 c 0
 271.419 -4.87798 271.419 -4.87798 259.407 -3.97488 c 0
 247.396 -3.07178 247.396 -3.07178 232.481 -2.16867 c 0
 217.566 -1.26557 217.566 -1.26557 197.738 -0.632786 c 0
 177.91 0 177.91 0 158.72 0 c 0,2,3
 139.817 0 139.817 0 120.199 -0.632786 c 0
 100.581 -1.26557 100.581 -1.26557 85.7641 -2.16867 c 0
 70.9477 -3.07178 70.9477 -3.07178 58.9882 -3.97488 c 0
 47.0287 -4.87798 47.0287 -4.87798 39.7908 -5.51077 c 0
 32.553 -6.14355 32.553 -6.14355 31.7441 -6.14355 c 0,4,5
 14.3359 -6.14355 14.3359 -6.14355 14.3359 17.4082 c 0,6,7
 14.3359 33.6009 14.3359 33.6009 25.714 39.2874 c 0
 37.092 44.974 37.092 44.974 58.5708 45.5801 c 0
 80.0497 46.1862 80.0497 46.1862 87.04 48.1279 c 0,8,9
 102.637 52.8074 102.637 52.8074 108.15 62.284 c 0
 113.664 71.7606 113.664 71.7606 113.664 95.2324 c 2,10,-1
 113.664 604.16 l 2,11,12
 113.664 611.591 113.664 611.591 112.887 617.422 c 0
 112.111 623.253 112.111 623.253 111.519 627.845 c 0
 110.928 632.437 110.928 632.437 108.011 635.951 c 0
 105.094 639.464 105.094 639.464 103.909 641.919 c 0
 102.724 644.374 102.724 644.374 97.4578 646.295 c 0
 92.1911 648.216 92.1911 648.216 90.2039 649.259 c 0
 88.2167 650.303 88.2167 650.303 80.3918 651.356 c 0
 72.5669 652.409 72.5669 652.409 69.5682 652.765 c 0
 66.5695 653.122 66.5695 653.122 55.9775 654.032 c 0
 45.3854 654.943 45.3854 654.943 40.96 655.36 c 0,13,14
 12.2881 657.565 12.2881 657.565 12.2881 679.936 c 0,15,16
 12.2881 688.747 12.2881 688.747 19.5644 696.629 c 0
 26.8407 704.512 26.8407 704.512 41.9844 704.512 c 0,17,18
 45.1134 704.512 45.1134 704.512 59.5844 703.488 c 0
 74.0553 702.464 74.0553 702.464 99.4772 701.44 c 0
 124.899 700.416 124.899 700.416 154.624 700.416 c 2,19,-1
 155.648 700.416 l 2,20,21
 185.373 700.416 185.373 700.416 210.795 701.44 c 0
 236.217 702.464 236.217 702.464 250.688 703.488 c 0
 265.159 704.512 265.159 704.512 268.288 704.512 c 0,22,23
 283.823 704.512 283.823 704.512 290.903 695.61 c 0
 297.984 686.709 297.984 686.709 297.984 677.888 c 0,24,25
 297.984 664.338 297.984 664.338 283.784 660.366 c 0
 269.583 656.394 269.583 656.394 248.355 656.157 c 0
 227.127 655.92 227.127 655.92 219.136 652.288 c 0,26,27
 203.776 644.608 203.776 644.608 203.776 618.496 c 2,28,-1
 203.776 396.288 l 2,29,30
 203.776 378.88 203.776 378.88 217.088 378.88 c 0,31,32
 220.027 378.88 220.027 378.88 222.759 379.981 c 0
 225.491 381.082 225.491 381.082 228.375 383.652 c 0
 231.258 386.222 231.258 386.222 233.163 388.239 c 0
 235.067 390.255 235.067 390.255 238.533 394.367 c 0
 241.998 398.479 241.998 398.479 243.712 400.384 c 0,33,34
 425.616 603.163 425.616 603.163 430.08 610.304 c 0,35,36
 438.272 620.545 438.272 620.545 438.272 631.808 c 0,37,38
 438.272 646.56 438.272 646.56 427.712 653.015 c 0
 417.152 659.47 417.152 659.47 404.48 659.609 c 0
 391.808 659.748 391.808 659.748 381.248 664.759 c 0
 370.688 669.771 370.688 669.771 370.688 681.984 c 0,39,40
 370.688 703.488 370.688 703.488 394.24 703.488 c 0,41,42
 397.454 703.488 397.454 703.488 411.264 702.976 c 0
 425.074 702.464 425.074 702.464 449.238 701.952 c 0
 473.402 701.44 473.402 701.44 501.76 701.44 c 2,43,-1
 507.904 701.44 l 2,44,45
 534.925 701.44 534.925 701.44 558.037 701.952 c 0
 581.149 702.464 581.149 702.464 594.304 702.976 c 0
 607.46 703.488 607.46 703.488 610.304 703.488 c 0,46,47
 625.571 703.488 625.571 703.488 632.273 696.983 c 0
 638.976 690.478 638.976 690.478 638.976 681.984 c 0,48,49
 638.976 669.259 638.976 669.259 625.186 663.777 c 0
 611.397 658.296 611.397 658.296 586.205 654.453 c 0
 561.014 650.609 561.014 650.609 547.84 645.12 c 0,50,51
 536.686 640.443 536.686 640.443 525.543 632.079 c 0
 514.399 623.716 514.399 623.716 508.073 617.361 c 0
 501.747 611.005 501.747 611.005 490.119 598.096 c 0
 478.491 585.186 478.491 585.186 474.112 580.608 c 0,52,53
 428.288 531.2 428.288 531.2 368.138 466.681 c 0
 310.147 404.478 310.147 404.478 300.482 393.247 c 0
 290.816 382.016 290.816 382.016 290.816 376.832 c 0,54,55
 290.816 369.663 290.816 369.663 299.008 361.472 c 0,56,57
 388.946 266.698 388.946 266.698 490.388 159.352 c 0
 555.585 90.3606 555.585 90.3606 567.656 78.0616 c 0
 579.727 65.7625 579.727 65.7625 586.957 60.9607 c 0
 587.495 60.6033 587.495 60.6033 587.776 60.416 c 0,58,59
 605.243 49.3008 605.243 49.3008 627.39 45.4823 c 0
 649.536 41.6639 649.536 41.6639 657.408 33.792 c 1,60,61
 663.552 25.6019 663.552 25.6019 663.552 18.4316 c 0,62,63
 663.552 9.9837 663.552 9.9837 656 2.43179 c 0
 648.448 -5.12012 648.448 -5.12012 633.856 -5.12012 c 0,64,65
 628.48 -5.12012 628.48 -5.12012 615.168 -3.07227 c 0
 601.856 -1.02441 601.856 -1.02441 585.729 -1.02441 c 0,66,67
 575.036 -0.879866 575.036 -0.879866 561.005 -0.90258 c 0
 546.975 -0.925294 546.975 -0.925294 541.385 -0.713891 c 0
 535.796 -0.502488 535.796 -0.502488 527.721 -0.358421 c 0
 519.646 -0.214354 519.646 -0.214354 516.441 1.07822 c 0
 513.236 2.3708 513.236 2.3708 508.693 3.64167 c 0
 504.15 4.91254 504.15 4.91254 500.905 8.24631 c 0
 497.66 11.5801 497.66 11.5801 494.225 14.9378 c 0
 490.79 18.2955 490.79 18.2955 485.376 24.5762 c 0,68,69
 415.994 104.228 415.994 104.228 328.488 205.354 c 0
 253.366 292.17 253.366 292.17 239.078 307.365 c 0
 224.79 322.56 224.79 322.56 218.112 322.56 c 2,70,-1
 217.088 322.56 l 2,71,72
 202.752 322.56 202.752 322.56 202.752 302.08 c 2,73,-1
 202.752 86.0156 l 2,74,75
 202.752 79.8865 202.752 79.8865 203.394 75.2838 c 0
 204.036 70.681 204.036 70.681 204.737 66.931 c 0
 205.437 63.1809 205.437 63.1809 208.012 60.5055 c 0
 210.587 57.8301 210.587 57.8301 212.273 55.8391 c 0
 213.959 53.848 213.959 53.848 218.897 52.461 c 0
 223.836 51.0739 223.836 51.0739 226.937 50.2029 c 0
 230.038 49.3319 230.038 49.3319 237.77 48.5943 c 0
 245.502 47.8566 245.502 47.8566 250.448 47.4667 c 0
 255.394 47.0768 255.394 47.0768 266.35 46.3496 c 0
 277.305 45.6224 277.305 45.6224 284.672 45.0557 c 0,76,77
 307.2 41.8391 307.2 41.8391 307.2 22.5283 c 0,78,79
 307.2 -6.14355 307.2 -6.14355 286.72 -6.14355 c 0,0,1
EndSplineSet
Fore
SplineSet
287 -6 m 0,0,1
 286 -6 286 -6 279 -5.5 c 128,-1,2
 272 -5 272 -5 260 -4 c 128,-1,3
 248 -3 248 -3 233 -2 c 128,-1,4
 218 -1 218 -1 198 -0.5 c 128,-1,5
 178 0 178 0 159 0 c 128,-1,6
 140 0 140 0 120.5 -0.5 c 128,-1,7
 101 -1 101 -1 86 -2 c 128,-1,8
 71 -3 71 -3 59 -4 c 128,-1,9
 47 -5 47 -5 40 -5.5 c 128,-1,10
 33 -6 33 -6 32 -6 c 0,11,12
 14 -6 14 -6 14 17 c 0,13,14
 14 23 14 23 15.5 27.5 c 128,-1,15
 17 32 17 32 20.5 35 c 128,-1,16
 24 38 24 38 27 39.5 c 128,-1,17
 30 41 30 41 36 42 c 128,-1,18
 42 43 42 43 45.5 43.5 c 128,-1,19
 49 44 49 44 57 44.5 c 128,-1,20
 65 45 65 45 68 45 c 0,21,22
 94 47 94 47 104 56.5 c 128,-1,23
 114 66 114 66 114 95 c 2,24,-1
 114 604 l 2,25,26
 114 611 114 611 113 617 c 128,-1,27
 112 623 112 623 111.5 627.5 c 128,-1,28
 111 632 111 632 108 635.5 c 128,-1,29
 105 639 105 639 104 641.5 c 128,-1,30
 103 644 103 644 97.5 646 c 128,-1,31
 92 648 92 648 90 649 c 128,-1,32
 88 650 88 650 80 651 c 128,-1,33
 72 652 72 652 69.5 652.5 c 128,-1,34
 67 653 67 653 56 654 c 128,-1,35
 45 655 45 655 41 655 c 0,36,37
 12 657 12 657 12 680 c 0,38,39
 12 689 12 689 19.5 697 c 128,-1,40
 27 705 27 705 42 705 c 0,41,42
 45 705 45 705 59.5 703.5 c 128,-1,43
 74 702 74 702 99.5 701 c 128,-1,44
 125 700 125 700 155 700 c 2,45,-1
 156 700 l 2,46,47
 186 700 186 700 211.5 701 c 128,-1,48
 237 702 237 702 251 703.5 c 128,-1,49
 265 705 265 705 268 705 c 0,50,51
 284 705 284 705 291 696 c 128,-1,52
 298 687 298 687 298 678 c 0,53,54
 298 664 298 664 284 660 c 128,-1,55
 270 656 270 656 248.5 656 c 128,-1,56
 227 656 227 656 219 652 c 0,57,58
 204 644 204 644 204 618 c 2,59,-1
 204 396 l 2,60,61
 204 379 204 379 217 379 c 0,62,63
 225 379 225 379 244 400 c 0,64,65
 265 423 265 423 315.5 479.5 c 128,-1,66
 366 536 366 536 397 571 c 128,-1,67
 428 606 428 606 430 610 c 0,68,69
 438 620 438 620 438 632 c 0,70,71
 438 647 438 647 427.5 653.5 c 128,-1,72
 417 660 417 660 404.5 660 c 128,-1,73
 392 660 392 660 381.5 665 c 128,-1,74
 371 670 371 670 371 682 c 0,75,76
 371 703 371 703 394 703 c 0,77,78
 397 703 397 703 411 702.5 c 128,-1,79
 425 702 425 702 449 701.5 c 128,-1,80
 473 701 473 701 502 701 c 2,81,-1
 508 701 l 2,82,83
 535 701 535 701 558 701.5 c 128,-1,84
 581 702 581 702 594 702.5 c 128,-1,85
 607 703 607 703 610 703 c 0,86,87
 639 703 639 703 639 682 c 0,88,89
 639 669 639 669 625.5 663.5 c 128,-1,90
 612 658 612 658 586.5 654 c 128,-1,91
 561 650 561 650 548 645 c 0,92,93
 537 640 537 640 525.5 632 c 128,-1,94
 514 624 514 624 508 618 c 128,-1,95
 502 612 502 612 490 598.5 c 128,-1,96
 478 585 478 585 474 581 c 0,97,98
 296.456 388.903 296.456 388.903 293.098 383.7 c 0,99,100
 291 380.449 291 380.449 291 377 c 0,101,102
 291 369 291 369 299 361 c 0,103,104
 577.294 68.1096 577.294 68.1096 581.566 64.6005 c 0,105,106
 583.574 62.9506 583.574 62.9506 588 60 c 0,107,108
 606 48 606 48 627.5 45 c 128,-1,109
 649 42 649 42 657 34 c 1,110,111
 664 25 664 25 664 18 c 0,112,113
 664 10 664 10 656.5 2.5 c 128,-1,114
 649 -5 649 -5 634 -5 c 0,115,116
 629 -5 629 -5 615.5 -3 c 128,-1,117
 602 -1 602 -1 586 -1 c 0,118,119
 575 -1 575 -1 561 -1 c 128,-1,120
 547 -1 547 -1 541.5 -0.5 c 128,-1,121
 536 -0 536 -0 528 -0 c 128,-1,122
 520 -0 520 -0 516.5 1.5 c 128,-1,123
 513 3 513 3 508.5 4 c 128,-1,124
 504 5 504 5 500.5 8.5 c 128,-1,125
 497 12 497 12 494 15.5 c 128,-1,126
 491 19 491 19 485 25 c 0,127,128
 416 105 416 105 328.13 205.811 c 0,129,130
 253 293 253 293 239 308 c 128,-1,131
 225 323 225 323 218 323 c 2,132,-1
 217 323 l 2,133,134
 203 323 203 323 203 302 c 2,135,-1
 203 86 l 2,136,137
 203 80 203 80 203.5 75.5 c 128,-1,138
 204 71 204 71 205 67 c 128,-1,139
 206 63 206 63 208.5 60.5 c 128,-1,140
 211 58 211 58 212.5 56 c 128,-1,141
 214 54 214 54 219 52.5 c 128,-1,142
 224 51 224 51 227 50 c 128,-1,143
 230 49 230 49 238 48.5 c 128,-1,144
 246 48 246 48 250.5 47.5 c 128,-1,145
 255 47 255 47 266.5 46.5 c 128,-1,146
 278 46 278 46 285 45 c 0,147,148
 307 42 307 42 307 23 c 0,149,150
 307 -6 307 -6 287 -6 c 0,0,1
EndSplineSet
EndChar

StartChar: L
Encoding: 76 76 45
Width: 576
GlyphClass: 2
Flags: W
HStem: -0.5 61.5<189.949 466.823> 0 44.1<22.771 92.3772> 0 33.5<14.0166 80.5178> 642 49.5<11.3125 94 189.186 292.904>
VStem: 94 95<61.7031 641.719>
LayerCount: 2
Fore
SplineSet
155 691 m 2,0,1
 188 691 188 691 216 691.5 c 128,-1,2
 244 692 244 692 260 693 c 128,-1,3
 276 694 276 694 279 694 c 0,4,5
 290 694 290 694 293 687.5 c 128,-1,6
 296 681 296 681 296 667 c 0,7,8
 296 643 296 643 273 643 c 0,9,10
 263 643 263 643 251.5 642.5 c 128,-1,11
 240 642 240 642 234 642 c 128,-1,12
 228 642 228 642 220.5 642 c 128,-1,13
 213 642 213 642 209 641.5 c 128,-1,14
 205 641 205 641 201 639.5 c 128,-1,15
 197 638 197 638 195 636 c 128,-1,16
 193 634 193 634 191.5 630.5 c 128,-1,17
 190 627 190 627 189.5 623 c 128,-1,18
 189 619 189 619 189 613 c 2,19,-1
 189 94 l 2,20,21
 189 61 189 61 216 61 c 2,22,-1
 412 61 l 1,23,-1
 415 61 l 2,24,25
 453 61 453 61 471 89 c 0,26,27
 476 97 476 97 493.5 135 c 128,-1,28
 511 173 511 173 514 176 c 0,29,30
 520 184 520 184 529 184 c 0,31,32
 534 184 534 184 540 182.5 c 128,-1,33
 546 181 546 181 553 175.5 c 128,-1,34
 560 170 560 170 560 161 c 0,35,36
 560 153 560 153 540 16 c 0,37,38
 539 9 539 9 537.5 5 c 128,-1,39
 536 1 536 1 529.5 -2.5 c 128,-1,40
 523 -6 523 -6 512 -6 c 0,41,42
 509 -6 509 -6 485 -5.5 c 128,-1,43
 461 -5 461 -5 421 -4 c 128,-1,44
 381 -3 381 -3 331 -2 c 128,-1,45
 281 -1 281 -1 215 -0.5 c 128,-1,46
 149 0 149 0 85 0 c 2,47,-1
 31 0 l 2,48,49
 14 0 14 0 14 16 c 0,50,51
 14 29 14 29 22.5 33.5 c 128,-1,52
 31 38 31 38 61.6222 44.1 c 0,53,54
 68 45 68 45 71 46 c 0,55,56
 94 52 94 52 94 79 c 2,57,-1
 94 82 l 1,58,-1
 94 620 l 2,59,60
 94 626 94 626 93.5 629.5 c 128,-1,61
 93 633 93 633 91.5 636 c 128,-1,62
 90 639 90 639 87.5 640.5 c 128,-1,63
 85 642 85 642 82 642.5 c 128,-1,64
 79 643 79 643 74.5 643.5 c 128,-1,65
 70 644 70 644 64.5 644 c 128,-1,66
 59 644 59 644 52 644 c 128,-1,67
 45 644 45 644 37 644 c 0,68,69
 11 646 11 646 11 669 c 0,70,71
 11 694 11 694 31 694 c 0,72,73
 35 694 35 694 49 693.5 c 128,-1,74
 63 693 63 693 89.5 692 c 128,-1,75
 116 691 116 691 147 691 c 2,76,-1
 155 691 l 2,0,1
EndSplineSet
EndChar

StartChar: M
Encoding: 77 77 46
Width: 1021
GlyphClass: 2
Flags: W
HStem: -15 21G<505 520.5> -6 46.5<18.0417 120.21 211.316 300.982 719.024 819.815 924.34 1014.81> 650 41<23.0439 103.044 934.532 1016.42>
VStem: 127 76<54.1621 346.703> 153 46<346.703 488.999> 828 92<52.1733 487.999>
LayerCount: 2
Back
SplineSet
738.304 -6.14355 m 4,0,1
 728.025 -6.14355 728.025 -6.14355 723.436 1.63645 c 0
 718.848 9.41645 718.848 9.41645 718.848 18.4316 c 0,2,3
 718.848 33.6839 718.848 33.6839 734.299 39.2003 c 0
 749.75 44.7167 749.75 44.7167 768.821 44.2236 c 0
 787.892 43.7305 787.892 43.7305 805.755 52.1928 c 0
 823.618 60.6552 823.618 60.6552 827.392 80.8965 c 0,4,5
 828.416 87.04 828.416 87.04 828.416 100.352 c 2,6,-1
 828.416 318.464 l 2,7,8
 828.416 473.093 828.416 473.093 825.344 482.304 c 0,9,10
 824.116 488.448 824.116 488.448 818.176 488.448 c 0,11,12
 811.213 488.448 811.213 488.448 803.84 476.16 c 0,13,14
 764.682 413.684 764.682 413.684 701.215 297.591 c 0
 637.748 181.499 637.748 181.499 590.732 93.5766 c 0
 543.716 5.65423 543.716 5.65423 536.576 -3.07227 c 0,15,16
 526.522 -15.3604 526.522 -15.3604 514.048 -15.3604 c 0,17,18
 510.889 -15.3604 510.889 -15.3604 507.983 -14.665 c 0
 505.077 -13.9696 505.077 -13.9696 502.452 -12.2631 c 0
 499.826 -10.5566 499.826 -10.5566 497.754 -9.08558 c 0
 495.683 -7.61461 495.683 -7.61461 493.403 -4.61038 c 0
 491.123 -1.60615 491.123 -1.60615 489.751 0.134725 c 0
 488.379 1.8756 488.379 1.8756 486.309 5.67185 c 0
 484.24 9.46809 484.24 9.46809 483.433 10.9732 c 0
 482.625 12.4783 482.625 12.4783 480.632 16.5608 c 0
 478.638 20.6434 478.638 20.6434 478.208 21.5039 c 0,19,20
 428.1 124.504 428.1 124.504 363.738 238.84 c 0
 299.377 353.177 299.377 353.177 258.171 419.251 c 0
 216.966 485.325 216.966 485.325 211.968 488.448 c 0,21,22
 210.944 489.472 210.944 489.472 208.896 489.472 c 0,23,24
 204.8 489.472 204.8 489.472 204.8 484.352 c 0,25,26
 198.656 376.832 198.656 376.832 198.656 271.36 c 0,27,28
 198.656 230.653 198.656 230.653 200.693 150.519 c 0
 202.73 70.3855 202.73 70.3855 204.8 63.4883 c 0,29,30
 208.154 52.4203 208.154 52.4203 224.079 48.9055 c 0
 240.004 45.3906 240.004 45.3906 256.849 46.2467 c 0
 273.694 47.1028 273.694 47.1028 287.375 40.5532 c 0
 301.056 34.0037 301.056 34.0037 301.056 17.4082 c 0,31,32
 301.056 -6.14355 301.056 -6.14355 282.624 -6.14355 c 0,33,34
 281.805 -6.14355 281.805 -6.14355 274.799 -5.51077 c 0
 267.794 -4.87798 267.794 -4.87798 256.239 -3.97488 c 0
 244.685 -3.07178 244.685 -3.07178 230.366 -2.16867 c 0
 216.047 -1.26557 216.047 -1.26557 197.06 -0.632786 c 0
 178.074 0 178.074 0 159.744 0 c 0,35,36
 141.415 0 141.415 0 122.428 -0.632786 c 0
 103.441 -1.26557 103.441 -1.26557 89.1223 -2.16867 c 0
 74.8032 -3.07178 74.8032 -3.07178 63.2489 -3.97488 c 0
 51.6947 -4.87798 51.6947 -4.87798 44.689 -5.51077 c 0
 37.6834 -6.14355 37.6834 -6.14355 36.8643 -6.14355 c 0,37,38
 18.4316 -6.14355 18.4316 -6.14355 18.4316 16.3838 c 0,39,40
 18.4316 22.9132 18.4316 22.9132 19.6748 27.5746 c 0
 20.918 32.236 20.918 32.236 24.7655 35.474 c 0
 28.6131 38.7121 28.6131 38.7121 31.8673 40.615 c 0
 35.1216 42.5179 35.1216 42.5179 43.1558 44.0005 c 0
 51.1901 45.4832 51.1901 45.4832 56.5271 46.1322 c 0
 61.8641 46.7812 61.8641 46.7812 74.1566 48.013 c 0
 86.4492 49.2448 86.4492 49.2448 94.208 50.1758 c 0,41,42
 102.434 51.173 102.434 51.173 108.168 53.9486 c 0
 113.902 56.7242 113.902 56.7242 117.027 59.3744 c 0
 120.152 62.0245 120.152 62.0245 122.125 68.4176 c 0
 124.097 74.8107 124.097 74.8107 124.612 78.2236 c 0
 125.127 81.6366 125.127 81.6366 125.841 91.0783 c 0
 126.555 100.52 126.555 100.52 126.976 104.448 c 0,43,44
 137.364 227.725 137.364 227.725 144.97 373.538 c 0
 152.576 519.351 152.576 519.351 152.576 562.176 c 0,45,46
 152.576 574.257 152.576 574.257 141.312 587.776 c 0,47,48
 140.493 588.651 140.493 588.651 128.38 603.431 c 0
 116.267 618.21 116.267 618.21 108.117 625.642 c 0
 99.9665 633.073 99.9665 633.073 81.8196 641.478 c 0
 63.6726 649.884 63.6726 649.884 43.0078 650.24 c 0,49,50
 42.3961 650.328 42.3961 650.328 41.0549 650.491 c 0
 22.5283 652.746 22.5283 652.746 22.5283 668.672 c 0,51,52
 22.5283 691.2 22.5283 691.2 40.96 691.2 c 2,53,-1
 188.416 691.2 l 2,54,55
 206.029 691.2 206.029 691.2 214.016 677.888 c 2,56,-1
 407.552 354.304 l 1,57,-1
 527.36 163.84 l 1,58,59
 533.504 151.552 533.504 151.552 544.768 151.552 c 0,60,61
 554.277 151.552 554.277 151.552 559.104 162.816 c 1,62,63
 836.608 681.984 l 2,64,65
 841.874 691.2 841.874 691.2 855.04 691.2 c 2,66,-1
 1003.52 691.2 l 2,67,68
 1008.14 691.2 1008.14 691.2 1010.9 690.234 c 0
 1013.67 689.269 1013.67 689.269 1016.27 683.974 c 0
 1018.88 678.678 1018.88 678.678 1018.88 668.672 c 0,69,70
 1018.88 660.576 1018.88 660.576 1016.22 655.889 c 0
 1013.56 651.202 1013.56 651.202 1006.35 648.302 c 0
 999.14 645.403 999.14 645.403 991.35 643.781 c 0
 983.56 642.16 983.56 642.16 968.209 638.652 c 0
 952.858 635.145 952.858 635.145 939.008 630.784 c 0,71,72
 914.432 624.641 914.432 624.641 914.432 601.088 c 0,73,74
 919.552 104.52 919.552 104.52 919.552 103.424 c 2,75,-1
 919.552 96.2559 l 2,76,77
 919.552 80.3094 919.552 80.3094 921.013 72.0742 c 0
 922.474 63.8391 922.474 63.8391 930.72 55.9258 c 0
 938.966 48.0124 938.966 48.0124 955.392 46.0801 c 0,78,79
 962.33 45.4494 962.33 45.4494 972.983 44.7227 c 0
 983.636 43.996 983.636 43.996 988.314 43.5775 c 0
 992.992 43.1589 992.992 43.1589 999.876 42.0418 c 0
 1006.76 40.9247 1006.76 40.9247 1009.55 39.2306 c 0
 1012.33 37.5366 1012.33 37.5366 1015.59 34.5602 c 0
 1018.85 31.5838 1018.85 31.5838 1019.89 27.1454 c 0
 1020.93 22.7071 1020.93 22.7071 1020.93 16.3838 c 0,80,81
 1020.93 6.36348 1020.93 6.36348 1015.28 0.109964 c 0
 1009.63 -6.14355 1009.63 -6.14355 1000.45 -6.14355 c 0,82,83
 1000.14 -6.14355 1000.14 -6.14355 981.376 -4.60767 c 0
 962.617 -3.07178 962.617 -3.07178 931.115 -1.53589 c 0
 899.612 0 899.612 0 868.352 0 c 0,84,85
 848.875 0 848.875 0 828.731 -0.632786 c 0
 808.587 -1.26557 808.587 -1.26557 793.424 -2.16867 c 0
 778.26 -3.07178 778.26 -3.07178 766.046 -3.97488 c 0
 753.832 -4.87798 753.832 -4.87798 746.467 -5.51077 c 0
 739.103 -6.14355 739.103 -6.14355 738.304 -6.14355 c 4,0,1
EndSplineSet
Fore
SplineSet
738 -6 m 0,0,1
 719 -6 719 -6 719 18 c 0,2,3
 719 33 719 33 730 37.5 c 128,-1,4
 741 42 741 42 765 44 c 0,5,6
 781 45 781 45 790.5 47 c 128,-1,7
 800 49 800 49 809.5 54 c 128,-1,8
 819 59 819 59 823.5 69.5 c 128,-1,9
 828 80 828 80 828 96 c 2,10,-1
 828 318 l 2,11,12
 828 473 828 473 825 482 c 0,13,14
 824 488 824 488 818 488 c 0,15,16
 811 488 811 488 804 476 c 0,17,18
 765 413 765 413 701.5 297.5 c 128,-1,19
 638 182 638 182 591 94 c 128,-1,20
 544 6 544 6 537 -3 c 0,21,22
 527 -15 527 -15 514 -15 c 0,23,24
 496 -15 496 -15 478 22 c 0,25,26
 428 125 428 125 363.5 239 c 128,-1,27
 299 353 299 353 258 419 c 128,-1,28
 217 485 217 485 212 488 c 0,29,30
 211 489 211 489 209 489 c 0,31,32
 205 489 205 489 205 484 c 0,33,34
 199 376 199 376 199 271 c 0,35,36
 199 184 199 184 203 88 c 0,37,38
 205 59 205 59 211 54 c 0,39,40
 221 47 221 47 244.5 47 c 128,-1,41
 268 47 268 47 284.5 41.5 c 128,-1,42
 301 36 301 36 301 17 c 0,43,44
 301 -6 301 -6 283 -6 c 0,45,46
 282 -6 282 -6 275 -5.5 c 128,-1,47
 268 -5 268 -5 256.5 -4 c 128,-1,48
 245 -3 245 -3 231 -2 c 128,-1,49
 217 -1 217 -1 197.5 -0.5 c 128,-1,50
 178 0 178 0 160 0 c 128,-1,51
 142 0 142 0 122.5 -0.5 c 128,-1,52
 103 -1 103 -1 89 -2 c 128,-1,53
 75 -3 75 -3 63.5 -4 c 128,-1,54
 52 -5 52 -5 45 -5.5 c 128,-1,55
 38 -6 38 -6 37 -6 c 0,56,57
 18 -6 18 -6 18 16 c 0,58,59
 18 23 18 23 19.5 27.5 c 128,-1,60
 21 32 21 32 24.5 35.5 c 128,-1,61
 28 39 28 39 31.5 40.5 c 128,-1,62
 35 42 35 42 43 43.5 c 128,-1,63
 51 45 51 45 56.5 46 c 128,-1,64
 62 47 62 47 74 48 c 128,-1,65
 86 49 86 49 94 50 c 128,-1,66
 102 51 102 51 108 53.5 c 128,-1,67
 114 56 114 56 117 58.5 c 128,-1,68
 120 61 120 61 122 67.5 c 128,-1,69
 124 74 124 74 124.5 77.5 c 128,-1,70
 125 81 125 81 126 90.5 c 128,-1,71
 127 100 127 100 127 104 c 0,72,73
 153 419 153 419 153 562 c 0,74,75
 153 574 153 574 141 588 c 0,76,77
 140 589 140 589 128 603.5 c 128,-1,78
 116 618 116 618 108 625.5 c 128,-1,79
 100 633 100 633 82 641.5 c 128,-1,80
 64 650 64 650 43 650 c 1,81,82
 23 653 23 653 23 669 c 0,83,84
 23 679 23 679 26.5 684.5 c 128,-1,85
 30 690 30 690 33 690.5 c 128,-1,86
 36 691 36 691 41 691 c 2,87,-1
 188 691 l 2,88,89
 206 691 206 691 214 678 c 2,90,-1
 408 354 l 1,91,-1
 527 164 l 1,92,93
 533 152 533 152 545 152 c 0,94,95
 554 152 554 152 559 163 c 2,96,-1
 837 682 l 2,97,98
 842 691 842 691 855 691 c 2,99,-1
 1004 691 l 2,100,101
 1009 691 1009 691 1011.5 690.5 c 128,-1,102
 1014 690 1014 690 1016.5 684.5 c 128,-1,103
 1019 679 1019 679 1019 669 c 0,104,105
 1019 661 1019 661 1016.5 656 c 128,-1,106
 1014 651 1014 651 1006.5 648 c 128,-1,107
 999 645 999 645 991 643.5 c 128,-1,108
 983 642 983 642 968 638.5 c 128,-1,109
 953 635 953 635 939 631 c 0,110,111
 914 625 914 625 914 601 c 0,112,113
 916 431 916 431 917.5 314 c 128,-1,114
 919 197 919 197 919.5 159.5 c 128,-1,115
 920 122 920 122 920 103 c 2,116,-1
 920 96 l 2,117,118
 920 79 920 79 921 71.5 c 128,-1,119
 922 64 922 64 930 56 c 128,-1,120
 938 48 938 48 955 46 c 0,121,122
 962 45 962 45 972.5 44.5 c 128,-1,123
 983 44 983 44 988 43.5 c 128,-1,124
 993 43 993 43 1000 42 c 128,-1,125
 1007 41 1007 41 1009.5 39 c 128,-1,126
 1012 37 1012 37 1015.5 34 c 128,-1,127
 1019 31 1019 31 1020 26.5 c 128,-1,128
 1021 22 1021 22 1021 16 c 0,129,130
 1021 6 1021 6 1015 0 c 128,-1,131
 1009 -6 1009 -6 1000 -6 c 2,132,-1
 981 -4.5 l 2,133,134
 962 -3 962 -3 930.5 -1.5 c 128,-1,135
 899 0 899 0 868 0 c 0,136,137
 848 0 848 0 828 -0.5 c 128,-1,138
 808 -1 808 -1 793 -2 c 128,-1,139
 778 -3 778 -3 765.5 -4 c 128,-1,140
 753 -5 753 -5 746 -5.5 c 128,-1,141
 739 -6 739 -6 738 -6 c 0,0,1
EndSplineSet
EndChar

StartChar: N
Encoding: 78 78 47
Width: 818
GlyphClass: 2
Flags: W
HStem: -24 21G<690 706.5> -0.5 47.5<23.1536 121.605 197.256 309.655> 649.5 47.5<9.14038 90.2002 571.221 638.587 727.801 809.952>
VStem: 653 64<366.812 632.556> 663 50<176.002 514.327>
LayerCount: 2
Back
SplineSet
9.21582 670.72 m 4,0,1
 9.21582 697.344 9.21582 697.344 31.7441 697.344 c 2,2,-1
 157.696 697.344 l 2,3,4
 172.923 697.344 172.923 697.344 181.21 693.027 c 0
 189.498 688.711 189.498 688.711 198.656 677.888 c 2,5,-1
 359.424 491.52 l 1,6,-1
 452.608 387.072 l 2,7,8
 480.208 357.183 480.208 357.183 524.156 309.539 c 0
 613.026 213.19 613.026 213.19 630.921 194.659 c 0
 648.817 176.128 648.817 176.128 653.312 176.128 c 0,9,10
 660.48 176.128 660.48 176.128 660.48 186.368 c 0,11,12
 662.528 260.132 662.528 260.132 662.528 295.936 c 0,13,14
 662.528 450.553 662.528 450.553 653.312 601.088 c 0,15,16
 652.556 617.35 652.556 617.35 649.235 626.646 c 0
 645.913 635.942 645.913 635.942 635.309 640.906 c 0
 624.705 645.871 624.705 645.871 616.722 647.318 c 0
 608.74 648.766 608.74 648.766 586.752 651.264 c 0,17,18
 564.224 654.483 564.224 654.483 564.224 672.768 c 0,19,20
 564.224 682.14 564.224 682.14 571.425 689.742 c 0
 578.627 697.344 578.627 697.344 593.92 697.344 c 0,21,22
 596.366 697.344 596.366 697.344 608.917 696.576 c 0
 621.468 695.808 621.468 695.808 643.776 695.04 c 0
 666.083 694.272 666.083 694.272 692.224 694.272 c 0,23,24
 717.909 694.272 717.909 694.272 739.712 695.04 c 0
 761.514 695.808 761.514 695.808 773.76 696.576 c 0
 786.006 697.344 786.006 697.344 788.48 697.344 c 0,25,26
 809.984 697.344 809.984 697.344 809.984 673.792 c 0,27,28
 809.984 659.379 809.984 659.379 800.386 654.479 c 0
 790.788 649.58 790.788 649.58 777.09 649.507 c 0
 763.392 649.434 763.392 649.434 749.694 647.287 c 0
 735.996 645.14 735.996 645.14 726.398 631.255 c 0
 716.8 617.37 716.8 617.37 716.8 589.824 c 0,29,30
 712.704 405.504 712.704 405.504 712.704 312.32 c 0,31,32
 712.704 236.201 712.704 236.201 713.728 171.242 c 0
 714.752 106.283 714.752 106.283 715.776 69.3979 c 0
 716.8 32.5129 716.8 32.5129 716.8 24.5762 c 0,33,34
 716.8 -23.5518 716.8 -23.5518 696.32 -23.5518 c 0,35,36
 688.778 -23.5518 688.778 -23.5518 678.43 -14.5831 c 0
 668.081 -5.61444 668.081 -5.61444 646.145 19.4561 c 2,37,-1
 434.176 261.12 l 2,38,39
 391.63 308.511 391.63 308.511 329.197 378.144 c 0
 210.102 510.976 210.102 510.976 206.848 510.976 c 1,40,41
 202.752 506.88 l 1,42,43
 189.44 312.209 189.44 312.209 189.44 143.36 c 2,44,-1
 189.44 113.664 l 2,45,46
 189.44 72.3677 189.44 72.3677 196.808 60.8551 c 0
 204.176 49.3425 204.176 49.3425 235.52 47.1035 c 0,47,48
 245.121 47.1035 245.121 47.1035 268.731 44.3261 c 0
 292.341 41.5487 292.341 41.5487 297.984 39.9355 c 1,49,50
 311.296 33.2798 311.296 33.2798 311.296 13.3115 c 0,51,52
 311.296 -6.14355 311.296 -6.14355 293.888 -6.14355 c 0,53,54
 293.074 -6.14355 293.074 -6.14355 285.952 -5.51077 c 0
 278.83 -4.87798 278.83 -4.87798 267.073 -3.97488 c 0
 255.316 -3.07178 255.316 -3.07178 240.748 -2.16867 c 0
 226.181 -1.26557 226.181 -1.26557 206.878 -0.632786 c 0
 187.576 0 187.576 0 168.96 0 c 0,55,56
 139.065 0 139.065 0 109.077 -1.53589 c 0
 79.0897 -3.07178 79.0897 -3.07178 61.2479 -4.60767 c 0
 43.4061 -6.14355 43.4061 -6.14355 43.0078 -6.14355 c 0,57,58
 33.682 -6.14355 33.682 -6.14355 27.5929 -0.460619 c 0
 21.5039 5.22232 21.5039 5.22232 21.5039 14.3359 c 0,59,60
 21.5039 17.2077 21.5039 17.2077 22.4024 21.829 c 0
 23.3009 26.4502 23.3009 26.4502 27.0908 32.7846 c 0
 30.8807 39.1191 30.8807 39.1191 36.8643 40.96 c 0,61,62
 42.7944 42.8469 42.7944 42.8469 63.9816 44.5175 c 0
 85.1688 46.1882 85.1688 46.1882 100.882 52.4206 c 0
 116.595 58.6531 116.595 58.6531 123.904 73.7275 c 0,63,64
 127.129 81.4655 127.129 81.4655 129.453 117.383 c 0
 131.778 153.301 131.778 153.301 142.524 361.121 c 0
 148.601 478.644 148.601 478.644 152.576 555.008 c 1,65,-1
 152.576 558.08 l 1,66,-1
 152.576 559.104 l 2,67,68
 152.576 567.175 152.576 567.175 146.941 575.463 c 0
 141.306 583.75 141.306 583.75 118.784 604.16 c 1,69,70
 78.4471 644.497 78.4471 644.497 27.6484 648.192 c 0,71,72
 18.7188 648.192 18.7188 648.192 13.9673 652.761 c 0
 9.21582 657.329 9.21582 657.329 9.21582 670.72 c 4,0,1
EndSplineSet
Fore
SplineSet
153 555 m 1,0,-1
 153 559 l 2,1,2
 153 573 153 573 119 604 c 1,3,4
 79 644 79 644 28 648 c 1,5,6
 9 648 9 648 9 671 c 0,7,8
 9 697 9 697 32 697 c 2,9,-1
 158 697 l 2,10,11
 183 697 183 697 199 678 c 2,12,-1
 359 492 l 1,13,-1
 453 387 l 1,14,15
 640.724 183.041 640.724 183.041 648.631 177.652 c 0,16,17
 651.054 176 651.054 176 653 176 c 0,18,19
 660 176 660 176 660 186 c 0,20,21
 660 198 660 198 661 220.5 c 128,-1,22
 662 243 662 243 662.5 261.5 c 128,-1,23
 663 280 663 280 663 296 c 0,24,25
 663 434 663 434 653 601 c 0,26,27
 652 631 652 631 639 639 c 128,-1,28
 626 647 626 647 587 651 c 0,29,30
 564 654 564 654 564 673 c 0,31,32
 564 682 564 682 571 689.5 c 128,-1,33
 578 697 578 697 594 697 c 0,34,35
 596 697 596 697 608.5 696.5 c 128,-1,36
 621 696 621 696 643.5 695 c 128,-1,37
 666 694 666 694 692 694 c 128,-1,38
 718 694 718 694 739.5 695 c 128,-1,39
 761 696 761 696 773.5 696.5 c 128,-1,40
 786 697 786 697 788 697 c 0,41,42
 810 697 810 697 810 674 c 0,43,44
 810 666 810 666 808 661 c 128,-1,45
 806 656 806 656 800 653.5 c 128,-1,46
 794 651 794 651 790.5 650.5 c 128,-1,47
 787 650 787 650 777 649.5 c 128,-1,48
 767 649 767 649 763 649 c 0,49,50
 737 647 737 647 727.5 633 c 128,-1,51
 718 619 718 619 717 578 c 0,52,53
 713 404 713 404 713 312 c 0,54,55
 713 236 713 236 714 171 c 128,-1,56
 715 106 715 106 716 69.5 c 128,-1,57
 717 33 717 33 717 25 c 0,58,59
 717 -24 717 -24 696 -24 c 0,60,61
 684 -24 684 -24 646 19 c 2,62,-1
 434 261 l 1,63,64
 209 511 209 511 207 511 c 1,65,-1
 203 507 l 1,66,67
 189 297 189 297 189 143 c 2,68,-1
 189 114 l 2,69,70
 189 73 189 73 197 61 c 128,-1,71
 205 49 205 49 236 47 c 1,72,73
 274 47 274 47 298 40 c 1,74,75
 311 34 311 34 311 13 c 0,76,77
 311 -6 311 -6 294 -6 c 0,78,79
 293 -6 293 -6 286 -5.5 c 128,-1,80
 279 -5 279 -5 267.5 -4 c 128,-1,81
 256 -3 256 -3 241 -2 c 128,-1,82
 226 -1 226 -1 207 -0.5 c 128,-1,83
 188 0 188 0 169 0 c 0,84,85
 139 0 139 0 109 -1.5 c 128,-1,86
 79 -3 79 -3 61 -4.5 c 2,87,-1
 43 -6 l 1,88,89
 22 -6 22 -6 22 14 c 0,90,91
 22 36 22 36 37 41 c 0,92,93
 43 43 43 43 64.5 44.5 c 128,-1,94
 86 46 86 46 101.5 52.5 c 128,-1,95
 117 59 117 59 124 74 c 0,96,97
 128 84 128 84 142.781 361.303 c 0,98,99
 149 479 149 479 153 555 c 1,0,-1
EndSplineSet
EndChar

StartChar: O
Encoding: 79 79 48
Width: 796
GlyphClass: 2
Flags: W
HStem: -25 60<298.022 514.427> 683 54<273.289 488.998>
VStem: 18 98<250.592 489.019> 677 101<211.852 468.122>
LayerCount: 2
Fore
SplineSet
778 345 m 0,0,1
 778 186 778 186 670.5 80.5 c 128,-1,2
 563 -25 563 -25 411 -25 c 0,3,4
 336 -25 336 -25 264 4 c 128,-1,5
 192 33 192 33 137 86 c 0,6,7
 20 199 20 199 18 361 c 1,8,9
 18 516 18 516 129.5 626.5 c 128,-1,10
 241 737 241 737 396 737 c 0,11,12
 558 737 558 737 668 621 c 128,-1,13
 778 505 778 505 778 345 c 0,0,1
116 393 m 0,14,15
 116 325 116 325 134.5 262 c 128,-1,16
 153 199 153 199 188 148 c 128,-1,17
 223 97 223 97 280 66 c 128,-1,18
 337 35 337 35 407 35 c 0,19,20
 454 35 454 35 499 51 c 128,-1,21
 544 67 544 67 585 99.5 c 128,-1,22
 626 132 626 132 651.5 191 c 128,-1,23
 677 250 677 250 677 327 c 0,24,25
 677 408 677 408 649.5 485.5 c 128,-1,26
 622 563 622 563 564 614 c 0,27,28
 486 683 486 683 380 683 c 0,29,30
 331 683 331 683 285 665.5 c 128,-1,31
 239 648 239 648 200.5 614.5 c 128,-1,32
 162 581 162 581 139 523.5 c 128,-1,33
 116 466 116 466 116 393 c 0,14,15
EndSplineSet
EndChar

StartChar: P
Encoding: 80 80 49
Width: 585
GlyphClass: 2
Flags: W
HStem: -4.5 49<14.1846 100.325 201.706 337.876> 308 36<202.677 356.031> 650 49<23.1934 105.973> 664 46<203.444 385.734>
VStem: 106 91<57.7679 308 346.064 649.813> 487 86<435.692 580.619>
LayerCount: 2
Fore
SplineSet
487 510 m 0,0,1
 487 576 487 576 425.5 620 c 128,-1,2
 364 664 364 664 259 664 c 0,3,4
 219 664 219 664 208 661 c 128,-1,5
 197 658 197 658 197 648 c 2,6,-1
 197 356 l 2,7,8
 197 348 197 348 202.5 346 c 128,-1,9
 208 344 208 344 234 344 c 0,10,11
 347 344 347 344 417 390 c 128,-1,12
 487 436 487 436 487 510 c 0,0,1
71 699 m 2,13,14
 122 699 122 699 201 704.5 c 128,-1,15
 280 710 280 710 314 710 c 0,16,17
 445 710 445 710 514 648 c 0,18,19
 573 594 573 594 573 515 c 2,20,-1
 573 514 l 1,21,22
 572 459 572 459 543 416.5 c 128,-1,23
 514 374 514 374 469 350 c 1,24,25
 395 308 395 308 239 308 c 2,26,-1
 208 308 l 2,27,28
 195 308 195 308 195 292 c 2,29,-1
 195 84 l 2,30,31
 195 66 195 66 201.5 57.5 c 128,-1,32
 208 49 208 49 227 48 c 0,33,34
 317.704 44.2596 317.704 44.2596 323.88 42.4665 c 0,35,36
 338 38.3671 338 38.3671 338 19 c 2,37,-1
 338 18 l 2,38,39
 338 -6 338 -6 318 -6 c 1,40,-1
 298 -4.5 l 2,41,42
 278 -3 278 -3 244 -1.5 c 128,-1,43
 210 0 210 0 177 0 c 0,44,45
 143 0 143 0 109 -1.5 c 128,-1,46
 75 -3 75 -3 55 -4.5 c 2,47,-1
 35 -6 l 1,48,49
 14 -6 14 -6 14 18 c 0,50,51
 14 22 14 22 14.5 25.5 c 128,-1,52
 15 29 15 29 15.5 31.5 c 128,-1,53
 16 34 16 34 18 36 c 128,-1,54
 20 38 20 38 21.5 39.5 c 128,-1,55
 23 41 23 41 26.5 42 c 128,-1,56
 30 43 30 43 32.5 43.5 c 128,-1,57
 35 44 35 44 40.5 44.5 c 128,-1,58
 46 45 46 45 50.5 45.5 c 128,-1,59
 55 46 55 46 63 46.5 c 128,-1,60
 71 47 71 47 78 48 c 0,61,62
 95 50 95 50 100.5 56.5 c 128,-1,63
 106 63 106 63 106 76 c 2,64,-1
 106 624 l 2,65,66
 106 632 106 632 105.5 636.5 c 128,-1,67
 105 641 105 641 99.5 645.5 c 128,-1,68
 94 650 94 650 84 650 c 2,69,-1
 47 650 l 2,70,71
 40 650 40 650 36 651 c 128,-1,72
 32 652 32 652 27.5 658.5 c 128,-1,73
 23 665 23 665 23 677 c 0,74,75
 23 699 23 699 45 699 c 2,76,-1
 71 699 l 2,13,14
EndSplineSet
EndChar

StartChar: Q
Encoding: 81 81 50
Width: 770
GlyphClass: 2
Flags: W
HStem: -208 50<737.377 834.168> -16 49<314.259 511.895> 691 50<279.66 493.523>
VStem: 20 100<264.357 488.039> 671 91<233.554 481.194>
LayerCount: 2
Fore
SplineSet
417 33 m 0,0,1
 524 33 524 33 597.5 116.5 c 128,-1,2
 671 200 671 200 671 337 c 0,3,4
 671 419 671 419 643.5 498.5 c 128,-1,5
 616 578 616 578 556 630 c 0,6,7
 484 691 484 691 385 691 c 0,8,9
 279 691 279 691 199.5 613.5 c 128,-1,10
 120 536 120 536 120 401 c 0,11,12
 120 310 120 310 155.5 227 c 128,-1,13
 191 144 191 144 260.5 88.5 c 128,-1,14
 330 33 330 33 417 33 c 0,0,1
467 -11 m 1,15,-1
 443.5 -13.5 l 2,16,17
 420 -16 420 -16 398 -16 c 0,18,19
 321 -16 321 -16 250.5 14 c 128,-1,20
 180 44 180 44 129 96 c 0,21,22
 20 207 20 207 20 362 c 0,23,24
 20 437 20 437 50.5 509.5 c 128,-1,25
 81 582 81 582 135 635 c 0,26,27
 243 741 243 741 397 741 c 0,28,29
 546 741 546 741 649 639 c 0,30,31
 703 585 703 585 732.5 513 c 128,-1,32
 762 441 762 441 762 365 c 0,33,34
 762 261 762 261 710 166.5 c 128,-1,35
 658 72 658 72 575 15 c 0,36,37
 572 12 572 12 572 10 c 128,-1,38
 572 8 572 8 575 6 c 0,39,40
 615 -22 615 -22 660 -68.5 c 128,-1,41
 705 -115 705 -115 728 -130 c 0,42,43
 771 -158 771 -158 815 -158 c 0,44,45
 823 -158 823 -158 829.5 -157.5 c 128,-1,46
 836 -157 836 -157 837 -157 c 0,47,48
 849 -157 849 -157 849 -167 c 0,49,50
 849 -180 849 -180 819 -194 c 128,-1,51
 789 -208 789 -208 758 -208 c 0,52,53
 741 -208 741 -208 725.5 -205 c 128,-1,54
 710 -202 710 -202 694 -194 c 128,-1,55
 678 -186 678 -186 668 -180.5 c 128,-1,56
 658 -175 658 -175 642 -161 c 128,-1,57
 626 -147 626 -147 620.5 -142 c 128,-1,58
 615 -137 615 -137 598.5 -120 c 128,-1,59
 582 -103 582 -103 579 -100 c 0,60,61
 490 -11 490 -11 467 -11 c 1,15,-1
EndSplineSet
EndChar

StartChar: R
Encoding: 82 82 51
Width: 712
GlyphClass: 2
Flags: W
HStem: -13 63<26.27 110.325 608.492 676.24> 338 37<213.322 312.842> 655 36<14.0156 102.582> 664 39<205.637 356.417>
VStem: 116 91<56.7677 338 377.581 634 634.023 639.324> 449 79<438.883 583.338>
LayerCount: 2
Fore
SplineSet
449 508 m 0,0,1
 449 571 449 571 397 617.5 c 128,-1,2
 345 664 345 664 269 664 c 0,3,4
 222 664 222 664 208 653 c 0,5,6
 202 649 202 649 202 637 c 0,7,8
 202 636 202 636 202.5 635.5 c 2,9,-1
 203 634 l 1,10,-1
 203 393 l 2,11,12
 203 380 203 380 213 377.5 c 128,-1,13
 223 375 223 375 270 375 c 0,14,15
 328 375 328 375 365 389 c 0,16,17
 400 403 400 403 424.5 434 c 128,-1,18
 449 465 449 465 449 508 c 0,0,1
290 703 m 0,19,20
 355 703 355 703 404 685.5 c 128,-1,21
 453 668 453 668 478.5 640.5 c 128,-1,22
 504 613 504 613 516 584 c 128,-1,23
 528 555 528 555 528 525 c 0,24,25
 528 459 528 459 487 413 c 128,-1,26
 446 367 446 367 412 355 c 1,27,28
 407 352 407 352 407 350 c 128,-1,29
 407 348 407 348 409 346 c 0,30,31
 464 282 464 282 502.5 226.5 c 128,-1,32
 541 171 541 171 562.5 135 c 128,-1,33
 584 99 584 99 598 83 c 0,34,35
 627 50 627 50 653 50 c 0,36,37
 668 50 668 50 680 61.5 c 128,-1,38
 692 73 692 73 697 73 c 0,39,40
 708 73 708 73 708 61 c 0,41,42
 708 44 708 44 682.5 15.5 c 128,-1,43
 657 -13 657 -13 618 -13 c 0,44,45
 566 -13 566 -13 510 61 c 1,46,-1
 408 207 l 1,47,48
 321 329 321 329 313 334 c 0,49,50
 308 338 308 338 296 338 c 2,51,-1
 221 338 l 2,52,53
 207 338 207 338 207 323 c 2,54,-1
 207 86 l 1,55,-1
 207 83 l 2,56,57
 207 53 207 53 233 50 c 0,58,59
 242 49 242 49 254 48 c 128,-1,60
 266 47 266 47 272.5 46.5 c 128,-1,61
 279 46 279 46 287.5 45.5 c 128,-1,62
 296 45 296 45 300.5 44 c 128,-1,63
 305 43 305 43 310.5 41.5 c 128,-1,64
 316 40 316 40 318.5 38 c 128,-1,65
 321 36 321 36 323 32.5 c 128,-1,66
 325 29 325 29 326 25 c 128,-1,67
 327 21 327 21 327 16 c 0,68,69
 327 -6 327 -6 306 -6 c 0,70,71
 305 -6 305 -6 297.5 -5.5 c 128,-1,72
 290 -5 290 -5 278 -4 c 128,-1,73
 266 -3 266 -3 250.5 -2 c 128,-1,74
 235 -1 235 -1 214.5 -0.5 c 128,-1,75
 194 0 194 0 174 0 c 128,-1,76
 154 0 154 0 133.5 -0.5 c 128,-1,77
 113 -1 113 -1 98 -2 c 128,-1,78
 83 -3 83 -3 70.5 -4 c 128,-1,79
 58 -5 58 -5 51 -5.5 c 128,-1,80
 44 -6 44 -6 43 -6 c 0,81,82
 25 -6 25 -6 25 22 c 0,83,84
 25 26 25 26 25.5 29 c 128,-1,85
 26 32 26 32 27.5 34 c 128,-1,86
 29 36 29 36 30.5 37.5 c 128,-1,87
 32 39 32 39 35.5 40 c 128,-1,88
 39 41 39 41 42 42 c 128,-1,89
 45 43 45 43 51 43.5 c 128,-1,90
 57 44 57 44 61 44 c 128,-1,91
 65 44 65 44 73.5 44.5 c 128,-1,92
 82 45 82 45 88 46 c 0,93,94
 105 48 105 48 110.5 56.5 c 128,-1,95
 116 65 116 65 116 82 c 2,96,-1
 116 611 l 2,97,98
 116 634 116 634 103 639.5 c 128,-1,99
 90 645 90 645 30 655 c 0,100,101
 14 658 14 658 14 672 c 0,102,103
 14 691 14 691 28 691 c 2,104,-1
 63 691 l 2,105,106
 111 691 111 691 185 697 c 128,-1,107
 259 703 259 703 290 703 c 0,19,20
EndSplineSet
EndChar

StartChar: S
Encoding: 83 83 52
Width: 503
GlyphClass: 2
Flags: W
HStem: -17 57<177.635 339.589> 650 51<141.604 278.094>
VStem: 33 73<66 144 490.756 611.964> 408 74<106.501 256.613>
LayerCount: 2
Fore
SplineSet
33 528 m 0,0,1
 33 598 33 598 85 649.5 c 128,-1,2
 137 701 137 701 216 701 c 0,3,4
 253 701 253 701 282.5 690.5 c 128,-1,5
 312 680 312 680 328.5 670 c 128,-1,6
 345 660 345 660 348 660 c 0,7,8
 354 660 354 660 365.5 680.5 c 128,-1,9
 377 701 377 701 391 701 c 0,10,11
 398 701 398 701 403 695.5 c 128,-1,12
 408 690 408 690 408 682 c 0,13,14
 408 680 408 680 407 669 c 128,-1,15
 406 658 406 658 404.5 638.5 c 128,-1,16
 403 619 403 619 403 597 c 128,-1,17
 403 575 403 575 404.5 556 c 128,-1,18
 406 537 406 537 407 526.5 c 128,-1,19
 408 516 408 516 408 514 c 0,20,21
 408 499 408 499 390 499 c 2,22,-1
 389 499 l 2,23,24
 375 499 375 499 368 509.5 c 128,-1,25
 361 520 361 520 349.5 545 c 128,-1,26
 338 570 338 570 318 593 c 0,27,28
 267 650 267 650 206 650 c 0,29,30
 164 650 164 650 135 622 c 128,-1,31
 106 594 106 594 106 554 c 0,32,33
 106 499 106 499 159 461 c 0,34,35
 190 438 190 438 260 421 c 128,-1,36
 330 404 330 404 353 394 c 0,37,38
 411 369 411 369 446.5 319.5 c 128,-1,39
 482 270 482 270 482 203 c 0,40,41
 482 111 482 111 417 47 c 128,-1,42
 352 -17 352 -17 258 -17 c 0,43,44
 166 -17 166 -17 102 39 c 0,45,46
 86 53 86 53 71 53 c 0,47,48
 66 53 66 53 57 51.5 c 128,-1,49
 48 50 48 50 44 50 c 0,50,51
 26 50 26 50 26 66 c 0,52,53
 26 69 26 69 29.5 86 c 128,-1,54
 33 103 33 103 39 142 c 128,-1,55
 45 181 45 181 49 232 c 0,56,57
 51 254 51 254 72 254 c 0,58,59
 88 254 88 254 91.5 245 c 128,-1,60
 95 236 95 236 100 195 c 0,61,62
 101 182 101 182 102 170 c 128,-1,63
 103 158 103 158 103.5 153 c 128,-1,64
 104 148 104 148 104 144 c 128,-1,65
 104 140 104 140 106 136.5 c 128,-1,66
 108 133 108 133 109 131 c 128,-1,67
 110 129 110 129 116 121.5 c 128,-1,68
 122 114 122 114 127 108 c 0,69,70
 178 40 178 40 259 40 c 0,71,72
 320 40 320 40 364 81 c 128,-1,73
 408 122 408 122 408 182 c 0,74,75
 408 251 408 251 348 295 c 0,76,77
 314 320 314 320 245 336.5 c 128,-1,78
 176 353 176 353 155 362 c 0,79,80
 95 386 95 386 64 430.5 c 128,-1,81
 33 475 33 475 33 528 c 0,0,1
EndSplineSet
EndChar

StartChar: T
Encoding: 84 84 53
Width: 708
GlyphClass: 2
Flags: W
HStem: -6 46<207.122 309.293 421.805 519.389> 637 68<110.222 315.684 412.059 624.773>
VStem: 316 96<59.2834 636.752>
LayerCount: 2
Fore
SplineSet
506 -6 m 1,0,-1
 486.5 -4.5 l 2,1,2
 467 -3 467 -3 433.5 -1.5 c 128,-1,3
 400 0 400 0 367 0 c 0,4,5
 346 0 346 0 324.5 -0.5 c 128,-1,6
 303 -1 303 -1 286.5 -2 c 128,-1,7
 270 -3 270 -3 257 -4 c 128,-1,8
 244 -5 244 -5 236 -5.5 c 128,-1,9
 228 -6 228 -6 227 -6 c 0,10,11
 207 -6 207 -6 207 20 c 0,12,13
 207 36 207 36 215.5 40 c 128,-1,14
 224 44 224 44 255.478 45.721 c 0,15,16
 272 47 272 47 282 48 c 0,17,18
 303 50 303 50 309.5 59 c 128,-1,19
 316 68 316 68 316 86 c 2,20,-1
 316 605 l 2,21,22
 316 615 316 615 315 620 c 128,-1,23
 314 625 314 625 307.5 631 c 128,-1,24
 301 637 301 637 289 637 c 2,25,-1
 136 637 l 2,26,27
 117 637 117 637 110 632.5 c 128,-1,28
 103 628 103 628 97 616 c 0,29,30
 54.9727 532.946 54.9727 532.946 51.6208 528.837 c 0,31,32
 45.2281 521 45.2281 521 35 521 c 0,33,34
 25 521 25 521 18.5 528.5 c 128,-1,35
 12 536 12 536 12 547 c 2,36,-1
 12 548 l 2,37,38
 12 552 12 552 42 689 c 0,39,40
 45 705 45 705 63 705 c 2,41,-1
 660 705 l 2,42,43
 677 705 677 705 681 681 c 0,44,45
 706 551 706 551 706 550 c 0,46,47
 706 541 706 541 700 534 c 128,-1,48
 694 527 694 527 686 527 c 0,49,50
 674 527 674 527 663 547 c 0,51,52
 657 557 657 557 650 569.5 c 128,-1,53
 643 582 643 582 639.5 588.5 c 128,-1,54
 636 595 636 595 631.5 603.5 c 128,-1,55
 627 612 627 612 624 615.5 c 128,-1,56
 621 619 621 619 618 623.5 c 128,-1,57
 615 628 615 628 612.5 629.5 c 128,-1,58
 610 631 610 631 607 633 c 128,-1,59
 604 635 604 635 600.5 635.5 c 128,-1,60
 597 636 597 636 593.5 636.5 c 128,-1,61
 590 637 590 637 585 637 c 2,62,-1
 434 637 l 2,63,64
 424 637 424 637 418.5 632 c 128,-1,65
 413 627 413 627 412.5 622.5 c 128,-1,66
 412 618 412 618 412 609 c 2,67,-1
 412 73 l 2,68,69
 412 57 412 57 421.5 53 c 128,-1,70
 431 49 431 49 472.26 45.6314 c 0,71,72
 493 44 493 44 505 43 c 0,73,74
 516 42 516 42 519.5 36 c 128,-1,75
 523 30 523 30 523 14 c 0,76,77
 523 -6 523 -6 506 -6 c 1,0,-1
EndSplineSet
EndChar

StartChar: U
Encoding: 85 85 54
Width: 774
GlyphClass: 2
Flags: W
HStem: -15 58<297.027 542.343> 660 46<542.005 628.831 702.344 759.828>
VStem: 87 93<152.797 649.516> 633 57<130.278 638.979>
LayerCount: 2
Fore
SplineSet
760 679 m 0,0,1
 760 665 760 665 749 660.5 c 128,-1,2
 738 656 738 656 725.5 656 c 128,-1,3
 713 656 713 656 702 639.5 c 128,-1,4
 691 623 691 623 691 586 c 0,5,6
 691 584 691 584 690.5 580 c 128,-1,7
 690 576 690 576 690 575 c 2,8,-1
 690 343 l 2,9,10
 690 335 690 335 690.5 319 c 128,-1,11
 691 303 691 303 691 295 c 2,12,-1
 691 262 l 2,13,14
 691 229 691 229 688.5 203.5 c 128,-1,15
 686 178 686 178 677.5 145 c 128,-1,16
 669 112 669 112 649.5 84 c 128,-1,17
 630 56 630 56 600 35 c 0,18,19
 529 -15 529 -15 407 -15 c 0,20,21
 338 -15 338 -15 282.5 0 c 128,-1,22
 227 15 227 15 196.5 34.5 c 128,-1,23
 166 54 166 54 143 81.5 c 128,-1,24
 120 109 120 109 112.5 125.5 c 128,-1,25
 105 142 105 142 100 160 c 0,26,27
 87 207 87 207 87 291 c 0,28,29
 87 304 87 304 87.5 330 c 128,-1,30
 88 356 88 356 88 369 c 2,31,-1
 88 627 l 2,32,33
 88 633 88 633 87.5 637.5 c 128,-1,34
 87 642 87 642 84 644.5 c 128,-1,35
 81 647 81 647 80 649 c 128,-1,36
 79 651 79 651 73 652 c 128,-1,37
 67 653 67 653 65.5 653.5 c 128,-1,38
 64 654 64 654 55.5 655 c 128,-1,39
 47 656 47 656 45 656 c 0,40,41
 17 660 17 660 17 681 c 0,42,43
 17 706 17 706 38 706 c 0,44,45
 41 706 41 706 54 705 c 128,-1,46
 67 704 67 704 90.5 703 c 128,-1,47
 114 702 114 702 141 702 c 2,48,-1
 147 702 l 2,49,50
 176 702 176 702 201 703 c 128,-1,51
 226 704 226 704 240 705 c 128,-1,52
 254 706 254 706 257 706 c 0,53,54
 276 706 276 706 276 679 c 0,55,56
 276 671 276 671 274 666 c 128,-1,57
 272 661 272 661 265.5 659 c 128,-1,58
 259 657 259 657 253.5 656 c 128,-1,59
 248 655 248 655 235 654 c 128,-1,60
 222 653 222 653 213 652 c 0,61,62
 180 648 180 648 180 616 c 2,63,-1
 180 296 l 2,64,65
 180 228 180 228 192 181 c 128,-1,66
 204 134 204 134 243 99 c 0,67,68
 304 43 304 43 427 43 c 0,69,70
 570 43 570 43 614 136 c 0,71,72
 634 178 634 178 634 250 c 2,73,-1
 634 264 l 2,74,75
 634 275 634 275 633.5 296 c 128,-1,76
 633 317 633 317 633 328 c 2,77,-1
 633 606 l 2,78,79
 633 624 633 624 630 634.5 c 128,-1,80
 627 645 627 645 614.5 650 c 128,-1,81
 602 655 602 655 596 656 c 128,-1,82
 590 657 590 657 564 660 c 0,83,84
 542 662 542 662 542 683 c 0,85,86
 542 706 542 706 561 706 c 0,87,88
 563 706 563 706 575 705 c 128,-1,89
 587 704 587 704 607 703 c 128,-1,90
 627 702 627 702 651 702 c 128,-1,91
 675 702 675 702 695 703 c 128,-1,92
 715 704 715 704 727 705 c 128,-1,93
 739 706 739 706 741 706 c 0,94,95
 760 706 760 706 760 679 c 0,0,1
EndSplineSet
EndChar

StartChar: V
Encoding: 86 86 55
Width: 849
GlyphClass: 2
Flags: W
HStem: -20 21G<429 443> 655 51<17.4355 75.9746 589.134 654.716 765.82 842.707> 664.5 41.5<207.805 287.992>
VStem: 16 187<623.5 695.5>
LayerCount: 2
Fore
SplineSet
46 706 m 0,0,1
 49 706 49 706 64 705 c 128,-1,2
 79 704 79 704 105 703 c 128,-1,3
 131 702 131 702 161 702 c 0,4,5
 190 702 190 702 214.5 703 c 128,-1,6
 239 704 239 704 252.5 705 c 128,-1,7
 266 706 266 706 269 706 c 0,8,9
 288 706 288 706 288 686 c 0,10,11
 288 669 288 669 280 664.5 c 128,-1,12
 272 660 272 660 242.287 655.82 c 0,13,14
 234 655 234 655 230 654 c 0,15,16
 203 651 203 651 203 628 c 0,17,18
 203 619 203 619 209 607 c 0,19,20
 257 500 257 500 314.5 387.5 c 128,-1,21
 372 275 372 275 406.5 214.5 c 128,-1,22
 441 154 441 154 446 148 c 0,23,24
 450 144 450 144 456 144 c 128,-1,25
 462 144 462 144 467 153 c 0,26,27
 588 372 588 372 672 599 c 0,28,29
 678 617 678 617 678 622 c 0,30,31
 678 644 678 644 655 652 c 0,32,33
 646 655 646 655 627.5 655 c 128,-1,34
 609 655 609 655 599 659.5 c 128,-1,35
 589 664 589 664 589 680 c 0,36,37
 589 706 589 706 611 706 c 0,38,39
 614 706 614 706 627.5 705 c 128,-1,40
 641 704 641 704 665 703 c 128,-1,41
 689 702 689 702 716 702 c 0,42,43
 744 702 744 702 767.5 703 c 128,-1,44
 791 704 791 704 804 705 c 128,-1,45
 817 706 817 706 820 706 c 0,46,47
 843 706 843 706 843 678 c 0,48,49
 843 663 843 663 831 659 c 128,-1,50
 819 655 819 655 798.5 650.5 c 128,-1,51
 778 646 778 646 765 632 c 0,52,53
 754 620 754 620 725.5 550.5 c 128,-1,54
 697 481 697 481 627 327.5 c 128,-1,55
 557 174 557 174 462 0 c 0,56,57
 450 -20 450 -20 436 -20 c 128,-1,58
 422 -20 422 -20 410 0 c 0,59,60
 320 158 320 158 251.5 284 c 128,-1,61
 183 410 183 410 153.5 471 c 128,-1,62
 124 532 124 532 104.5 573.5 c 128,-1,63
 85 615 85 615 78.5 628 c 128,-1,64
 72 641 72 641 63 647 c 0,65,66
 60 649 60 649 46.5 655 c 128,-1,67
 33 661 33 661 24.5 668 c 128,-1,68
 16 675 16 675 16 685 c 0,69,70
 16 706 16 706 46 706 c 0,0,1
EndSplineSet
EndChar

StartChar: W
Encoding: 87 87 56
Width: 1026
GlyphClass: 2
Flags: W
HStem: -23 21G<329.5 334.5 649.5 671.5> 655 51<19.7047 77.7771 181.189 243.234 309.215 381.256 782.415 869.98 948.009 1014.72> 665.5 40.5<488.125 560.934 956.991 1023.85>
LayerCount: 2
Fore
SplineSet
39 706 m 0,0,1
 41 706 41 706 53.5 705 c 128,-1,2
 66 704 66 704 88.5 703 c 128,-1,3
 111 702 111 702 137 702 c 0,4,5
 162 702 162 702 184 703 c 128,-1,6
 206 704 206 704 218.5 705 c 128,-1,7
 231 706 231 706 233 706 c 0,8,9
 252 706 252 706 252 680 c 0,10,11
 252 667 252 667 243.5 662 c 128,-1,12
 235 657 235 657 223.5 658 c 128,-1,13
 212 659 212 659 199.5 657 c 128,-1,14
 187 655 187 655 181 648 c 0,15,16
 176 642 176 642 176 635 c 128,-1,17
 176 628 176 628 179 622 c 1,18,19
 232 454 232 454 339 168 c 0,20,21
 346 150 346 150 354 150 c 0,22,23
 361 150 361 150 369 167.5 c 128,-1,24
 377 185 377 185 424.276 305.091 c 0,25,26
 448 367 448 367 464 406 c 1,27,28
 466 414 466 414 466 418 c 2,29,-1
 466 419 l 2,30,31
 466 425 466 425 398 621 c 0,32,33
 389 649 389 649 381.5 653 c 128,-1,34
 374 657 374 657 327 659 c 0,35,36
 309 659 309 659 309 682 c 0,37,38
 309 706 309 706 333 706 c 0,39,40
 336 706 336 706 349.5 705 c 128,-1,41
 363 704 363 704 386.5 703 c 128,-1,42
 410 702 410 702 438 702 c 2,43,-1
 439 702 l 2,44,45
 466 702 466 702 490 703 c 128,-1,46
 514 704 514 704 527.5 705 c 128,-1,47
 541 706 541 706 544 706 c 0,48,49
 561 706 561 706 561 683 c 0,50,51
 561 669 561 669 553.5 665.5 c 128,-1,52
 546 662 546 662 517 659 c 0,53,54
 485 655 485 655 485 634 c 0,55,56
 485 631 485 631 487 621 c 1,57,58
 520 521 520 521 563 409 c 128,-1,59
 606 297 606 297 635.5 226.5 c 128,-1,60
 665 156 665 156 672 146 c 0,61,62
 679 137 679 137 684 137 c 2,63,-1
 685 137 l 2,64,65
 695 137 695 137 701 156 c 1,66,67
 747 253 747 253 788.5 366 c 128,-1,68
 830 479 830 479 850 548 c 128,-1,69
 870 617 870 617 870 631 c 0,70,71
 870 637 870 637 869 640.5 c 128,-1,72
 868 644 868 644 864.5 647 c 128,-1,73
 861 650 861 650 858 651.5 c 128,-1,74
 855 653 855 653 848 654 c 128,-1,75
 841 655 841 655 836 655.5 c 128,-1,76
 831 656 831 656 820.5 657 c 128,-1,77
 810 658 810 658 803 659 c 0,78,79
 782 661 782 661 782 683 c 0,80,81
 782 706 782 706 801 706 c 0,82,83
 804 706 804 706 817 705 c 128,-1,84
 830 704 830 704 853.5 703 c 128,-1,85
 877 702 877 702 904 702 c 2,86,-1
 905 702 l 2,87,88
 931 702 931 702 954.5 703 c 128,-1,89
 978 704 978 704 991 705 c 128,-1,90
 1004 706 1004 706 1007 706 c 0,91,92
 1024 706 1024 706 1024 682 c 0,93,94
 1024 669 1024 669 1015 663.5 c 128,-1,95
 1006 658 1006 658 994.5 658 c 128,-1,96
 983 658 983 658 969.5 653 c 128,-1,97
 956 648 956 648 949 635 c 0,98,99
 948 633 948 633 937.5 602.5 c 128,-1,100
 927 572 927 572 907 517 c 128,-1,101
 887 462 887 462 860 392.5 c 128,-1,102
 833 323 833 323 791.5 225 c 128,-1,103
 750 127 750 127 703 27 c 1,104,105
 681 -23 681 -23 662 -23 c 0,106,107
 637 -23 637 -23 618 32 c 1,108,109
 574 142 574 142 528.713 258.896 c 0,110,111
 496 342 496 342 493 342 c 128,-1,112
 490 342 490 342 488 338 c 0,113,114
 453 247 453 247 407.933 129.436 c 0,115,116
 367 22 367 22 358.5 3 c 128,-1,117
 350 -16 350 -16 342.914 -18.5791 c 2,118,-1
 342 -19 l 1,119,120
 336 -23 336 -23 333 -23 c 0,121,122
 326 -23 326 -23 321 -19.5 c 128,-1,123
 316 -16 316 -16 312 -9 c 128,-1,124
 308 -2 308 -2 305 4 c 128,-1,125
 302 10 302 10 298.5 20 c 128,-1,126
 295 30 295 30 293 35 c 0,127,128
 254 131 254 131 218.5 225 c 128,-1,129
 183 319 183 319 159 388.5 c 128,-1,130
 135 458 135 458 117.5 511.5 c 128,-1,131
 100 565 100 565 89.5 599 c 128,-1,132
 79 633 79 633 78 636 c 0,133,134
 71 654 71 654 47 655 c 128,-1,135
 23 656 23 656 18 663 c 1,136,137
 13 668 13 668 13 677 c 0,138,139
 13 688 13 688 19.5 697 c 128,-1,140
 26 706 26 706 39 706 c 0,0,1
EndSplineSet
EndChar

StartChar: X
Encoding: 88 88 57
Width: 680
GlyphClass: 2
Flags: W
HStem: -6 50<5.52734 94.4766 181.833 261.446 374.561 457.725 589.353 673.466> 656 50<18.2512 93.5879 233.344 288.843 401.949 483.647 572.459 664.718>
VStem: 292 91<336.304 376.938>
LayerCount: 2
Fore
SplineSet
160 702 m 2,0,1
 191 702 191 702 216.5 703 c 128,-1,2
 242 704 242 704 256.5 705 c 128,-1,3
 271 706 271 706 274 706 c 0,4,5
 284 706 284 706 289 700 c 128,-1,6
 294 694 294 694 294 676 c 0,7,8
 294 665 294 665 283 661 c 128,-1,9
 272 657 272 657 258 657.5 c 128,-1,10
 244 658 244 658 233 652 c 128,-1,11
 222 646 222 646 222 632 c 0,12,13
 222 625 222 625 234 601 c 1,14,15
 346.046 418.931 346.046 418.931 349 418 c 0,16,17
 351 418 351 418 353 420 c 0,18,19
 368 441 368 441 384.5 464 c 128,-1,20
 401 487 401 487 411 501 c 128,-1,21
 421 515 421 515 432 530 c 128,-1,22
 443 545 443 545 449 554 c 128,-1,23
 455 563 455 563 461.5 572.5 c 128,-1,24
 468 582 468 582 471 587.5 c 128,-1,25
 474 593 474 593 477 599 c 128,-1,26
 480 605 480 605 481.5 609 c 128,-1,27
 483 613 483 613 483.5 617 c 128,-1,28
 484 621 484 621 484 626 c 0,29,30
 484 633 484 633 483 638 c 128,-1,31
 482 643 482 643 478 646.5 c 128,-1,32
 474 650 474 650 472 652 c 128,-1,33
 470 654 470 654 463 655 c 128,-1,34
 456 656 456 656 453 656.5 c 128,-1,35
 450 657 450 657 440.5 657.5 c 128,-1,36
 431 658 431 658 428 658 c 0,37,38
 401 660 401 660 401 688 c 0,39,40
 401 706 401 706 418 706 c 0,41,42
 421 706 421 706 436 705 c 128,-1,43
 451 704 451 704 478 703 c 128,-1,44
 505 702 505 702 536 702 c 0,45,46
 568 702 568 702 594.5 703 c 128,-1,47
 621 704 621 704 636.5 705 c 128,-1,48
 652 706 652 706 655 706 c 0,49,50
 674 706 674 706 674 687 c 0,51,52
 674 669 674 669 665 662 c 128,-1,53
 656 655 656 655 644 656 c 128,-1,54
 632 657 632 657 613 654 c 128,-1,55
 594 651 594 651 580 640 c 0,56,57
 568 631 568 631 546 603.5 c 128,-1,58
 524 576 524 576 516 564 c 0,59,60
 383 376 383 376 383 372 c 0,61,62
 383 367 383 367 559 89 c 0,63,64
 578 59 578 59 589 54 c 128,-1,65
 600 49 600 49 647 44 c 1,66,67
 674 40 674 40 674 15 c 0,68,69
 674 -6 674 -6 656 -6 c 0,70,71
 655 -6 655 -6 648 -5.5 c 128,-1,72
 641 -5 641 -5 628.5 -4 c 128,-1,73
 616 -3 616 -3 600.5 -2 c 128,-1,74
 585 -1 585 -1 564.5 -0.5 c 128,-1,75
 544 0 544 0 524 0 c 128,-1,76
 504 0 504 0 484 -0.5 c 128,-1,77
 464 -1 464 -1 448.5 -2 c 128,-1,78
 433 -3 433 -3 421 -4 c 128,-1,79
 409 -5 409 -5 401.5 -5.5 c 128,-1,80
 394 -6 394 -6 393 -6 c 0,81,82
 374 -6 374 -6 374 15 c 0,83,84
 374 35.7383 374 35.7383 392.962 40.7409 c 0,85,86
 398.779 42.2755 398.779 42.2755 435 47 c 0,87,88
 458 51 458 51 458 70 c 2,89,-1
 458 72 l 2,90,91
 458 82 458 82 386.177 196.082 c 0,92,93
 350 253 350 253 326 292 c 1,94,95
 326 295 326 295 323 295 c 0,96,97
 319 295 319 295 182 97 c 0,98,99
 171 82 171 82 171 71 c 0,100,101
 171 56 171 56 181.5 51.5 c 128,-1,102
 192 47 192 47 223.574 44.1559 c 0,103,104
 230 43 230 43 234 43 c 0,105,106
 262 38 262 38 262 16 c 128,-1,107
 262 -6 262 -6 244 -6 c 0,108,109
 243 -6 243 -6 237 -5.5 c 128,-1,110
 231 -5 231 -5 220 -4 c 128,-1,111
 209 -3 209 -3 196 -2 c 128,-1,112
 183 -1 183 -1 166 -0.5 c 128,-1,113
 149 0 149 0 132 0 c 0,114,115
 105 0 105 0 78.5 -1.5 c 128,-1,116
 52 -3 52 -3 36 -4.5 c 2,117,-1
 20 -6 l 1,118,119
 5 -6 5 -6 5 13 c 0,120,121
 5 18 5 18 5.5 21.5 c 128,-1,122
 6 25 6 25 6 27.5 c 128,-1,123
 6 30 6 30 8 32.5 c 128,-1,124
 10 35 10 35 10.5 36.5 c 128,-1,125
 11 38 11 38 14.5 39 c 128,-1,126
 18 40 18 40 19.5 41 c 128,-1,127
 21 42 21 42 26 43 c 128,-1,128
 31 44 31 44 33.5 44.5 c 128,-1,129
 36 45 36 45 43.5 46 c 128,-1,130
 51 47 51 47 55 48 c 0,131,132
 62 49 62 49 68 51 c 128,-1,133
 74 53 74 53 78.5 55 c 128,-1,134
 83 57 83 57 88.5 61.5 c 128,-1,135
 94 66 94 66 97 68.5 c 128,-1,136
 100 71 100 71 106.5 79 c 128,-1,137
 113 87 113 87 116 91 c 128,-1,138
 119 95 119 95 127.5 107.5 c 128,-1,139
 136 120 136 120 141 127 c 0,140,141
 292 338 292 338 292 341 c 0,142,143
 292 345 292 345 129 605 c 0,144,145
 107 640 107 640 94 646.5 c 128,-1,146
 81 653 81 653 44 656 c 0,147,148
 18 658 18 658 18 683 c 0,149,150
 18 706 18 706 39 706 c 0,151,152
 42 706 42 706 57 705 c 128,-1,153
 72 704 72 704 99 703 c 128,-1,154
 126 702 126 702 157 702 c 2,155,-1
 160 702 l 2,0,1
EndSplineSet
EndChar

StartChar: Y
Encoding: 89 89 58
Width: 683
GlyphClass: 2
Flags: W
HStem: -6 53<170.406 279.946 378.353 501.896> 656.5 49.5<17.7047 74.5059 186.165 279.773 444.673 524.715>
VStem: 280 87<53.6122 324.658>
LayerCount: 2
Back
SplineSet
501.76 21.5039 m 6,0,-1
 501.76 13.3115 l 2,1,2
 501.76 -6.14355 501.76 -6.14355 485.376 -6.14355 c 0,3,4
 485.234 -6.14355 485.234 -6.14355 464.64 -4.60767 c 0
 444.046 -3.07178 444.046 -3.07178 409.515 -1.53589 c 0
 374.983 0 374.983 0 340.992 0 c 0,5,6
 318.935 0 318.935 0 296.265 -0.632786 c 0
 273.595 -1.26557 273.595 -1.26557 256.645 -2.16867 c 0
 239.695 -3.07178 239.695 -3.07178 226.109 -3.97488 c 0
 212.523 -4.87798 212.523 -4.87798 204.43 -5.51077 c 0
 196.337 -6.14355 196.337 -6.14355 195.584 -6.14355 c 0,7,8
 169.984 -6.14355 169.984 -6.14355 169.984 22.5283 c 0,9,10
 169.984 38.9121 169.984 38.9121 178.354 42.5608 c 0
 186.723 46.2095 186.723 46.2095 220.002 47.6572 c 0
 238.381 48.4567 238.381 48.4567 249.856 49.1523 c 0,11,12
 250.382 49.1899 250.382 49.1899 254.533 49.4406 c 0
 258.684 49.6914 258.684 49.6914 259.503 49.8245 c 0
 260.321 49.9576 260.321 49.9576 263.81 50.4294 c 0
 267.298 50.9012 267.298 50.9012 268.256 51.5634 c 0
 269.215 52.2255 269.215 52.2255 271.771 53.3398 c 0
 274.327 54.4541 274.327 54.4541 275.156 56.0667 c 0
 275.984 57.6793 275.984 57.6793 277.339 59.8574 c 0
 278.693 62.0355 278.693 62.0355 279.123 65.0199 c 0
 279.552 68.0043 279.552 68.0043 279.552 71.6797 c 2,13,-1
 279.552 283.648 l 2,14,15
 279.552 288.909 279.552 288.909 279.268 292.997 c 0
 278.985 297.085 278.985 297.085 277.874 301.249 c 0
 276.763 305.412 276.763 305.412 276.026 307.906 c 0
 275.289 310.4 275.289 310.4 272.859 314.958 c 0
 270.428 319.516 270.428 319.516 269.13 321.74 c 0
 267.832 323.965 267.832 323.965 263.974 330.243 c 0
 260.116 336.521 260.116 336.521 258.048 339.968 c 0,16,17
 69.6318 642.048 69.6318 642.048 69.6318 642.048 c 0,18,19
 59.6564 654.648 59.6564 654.648 40.2446 656.436 c 0
 20.8327 658.224 20.8327 658.224 15.3604 668.672 c 0,20,21
 11.2637 674.815 11.2637 674.815 11.2637 683.008 c 0,22,23
 11.2637 691.754 11.2637 691.754 17.1701 698.645 c 0
 23.0766 705.536 23.0766 705.536 36.8643 705.536 c 0,24,25
 39.9931 705.536 39.9931 705.536 54.4641 704.768 c 0
 68.9351 704 68.9351 704 94.3572 703.232 c 0
 119.779 702.464 119.779 702.464 149.504 702.464 c 0,26,27
 179.229 702.464 179.229 702.464 204.395 703.232 c 0
 229.561 704 229.561 704 243.776 704.768 c 0
 257.991 705.536 257.991 705.536 261.12 705.536 c 0,28,29
 279.552 705.536 279.552 705.536 279.552 685.056 c 0,30,31
 279.552 679.856 279.552 679.856 279.108 676.049 c 0
 278.664 672.242 278.664 672.242 277.05 669.259 c 0
 275.436 666.276 275.436 666.276 274.02 664.351 c 0
 272.604 662.425 272.604 662.425 268.869 660.949 c 0
 265.135 659.473 265.135 659.473 262.359 658.721 c 0
 259.582 657.969 259.582 657.969 253.34 657.291 c 0
 247.097 656.614 247.097 656.614 242.573 656.327 c 0
 238.049 656.041 238.049 656.041 228.91 655.454 c 0
 219.771 654.868 219.771 654.868 212.992 654.336 c 0,32,33
 186.368 651.01 186.368 651.01 186.368 630.784 c 2,34,-1
 186.368 628.736 l 2,35,36
 186.368 622.852 186.368 622.852 195.652 605.804 c 0
 204.936 588.756 204.936 588.756 255.72 501.114 c 0
 299.984 424.723 299.984 424.723 331.776 369.664 c 0,37,38
 332.154 369.034 332.154 369.034 332.856 367.859 c 0
 340.342 355.328 340.342 355.328 346.112 355.328 c 0,39,40
 350.174 355.328 350.174 355.328 353.52 360.394 c 0
 354.092 361.26 354.092 361.26 354.304 361.472 c 0,41,42
 375.984 391.3 375.984 391.3 412 440.667 c 0
 493.33 552.145 493.33 552.145 513.417 583.179 c 0
 533.504 614.213 533.504 614.213 533.504 631.808 c 0,43,44
 533.504 648.512 533.504 648.512 518.784 653.959 c 0
 504.064 659.406 504.064 659.406 486.4 657.657 c 0
 468.736 655.908 468.736 655.908 454.016 661.767 c 0
 439.296 667.626 439.296 667.626 439.296 685.056 c 0,45,46
 439.296 692.697 439.296 692.697 444.512 699.116 c 0
 449.728 705.536 449.728 705.536 460.8 705.536 c 0,47,48
 463.388 705.536 463.388 705.536 475.178 704.768 c 0
 486.969 704 486.969 704 507.52 703.232 c 0
 528.071 702.464 528.071 702.464 551.936 702.464 c 2,49,-1
 555.008 702.464 l 2,50,51
 579.062 702.909 579.062 702.909 599.959 703.685 c 0
 620.855 704.46 620.855 704.46 631.913 704.998 c 0
 642.97 705.536 642.97 705.536 646.145 705.536 c 0,52,53
 660.705 705.536 660.705 705.536 667.76 699.085 c 0
 674.816 692.634 674.816 692.634 674.816 685.056 c 0,54,55
 674.816 675.743 674.816 675.743 667.244 668.893 c 0
 659.671 662.044 659.671 662.044 645.525 651.726 c 0
 631.378 641.408 631.378 641.408 621.568 628.736 c 2,56,-1
 473.088 437.248 l 2,57,58
 455.708 413.625 455.708 413.625 438.401 390.576 c 0
 421.094 367.526 421.094 367.526 411.781 354.998 c 0
 402.468 342.47 402.468 342.47 393.213 330.443 c 0
 383.958 318.416 383.958 318.416 380.117 312.134 c 0
 376.275 305.852 376.275 305.852 372.649 300.311 c 0
 369.023 294.771 369.023 294.771 368.229 290.198 c 0
 367.434 285.625 367.434 285.625 367.013 282.036 c 0
 366.592 278.446 366.592 278.446 366.592 271.36 c 2,59,-1
 366.592 71.6797 l 2,60,61
 366.592 56.7889 366.592 56.7889 377.865 53.4257 c 0
 389.139 50.0625 389.139 50.0625 437.971 47.9805 c 0
 463.388 46.8968 463.388 46.8968 479.232 46.0801 c 0,62,63
 501.76 44.828 501.76 44.828 501.76 21.5039 c 6,0,-1
EndSplineSet
Fore
SplineSet
485 657 m 4,0,1
 469 658 469 658 461 659 c 128,-1,2
 453 660 453 660 446 666.5 c 128,-1,3
 439 673 439 673 439 685 c 0,4,5
 439 692 439 692 444.5 699 c 128,-1,6
 450 706 450 706 461 706 c 0,7,8
 463 706 463 706 475 705 c 128,-1,9
 487 704 487 704 507.5 703 c 128,-1,10
 528 702 528 702 552 702 c 2,11,-1
 555 702 l 2,12,13
 579 702 579 702 600 703 c 128,-1,14
 621 704 621 704 632 705 c 128,-1,15
 643 706 643 706 646 706 c 0,16,17
 661 706 661 706 668 699.5 c 128,-1,18
 675 693 675 693 675 685 c 0,19,20
 675 675 675 675 667.5 668.5 c 128,-1,21
 660 662 660 662 646 652 c 128,-1,22
 632 642 632 642 622 629 c 2,23,-1
 473 437 l 2,24,25
 456 414 456 414 438.5 390.5 c 128,-1,26
 421 367 421 367 412 354.5 c 128,-1,27
 403 342 403 342 393.5 330 c 128,-1,28
 384 318 384 318 380.5 312 c 128,-1,29
 377 306 377 306 373 300.5 c 128,-1,30
 369 295 369 295 368.5 290 c 128,-1,31
 368 285 368 285 367.5 281.5 c 128,-1,32
 367 278 367 278 367 271 c 2,33,-1
 367 72 l 2,34,35
 367 57 367 57 378 53.5 c 128,-1,36
 389 50 389 50 439.133 47.8077 c 0,37,38
 464 47 464 47 479 46 c 0,39,40
 502 45 502 45 502 22 c 2,41,-1
 502 13 l 2,42,43
 502 -6 502 -6 485 -6 c 1,44,-1
 464.5 -4.5 l 2,45,46
 444 -3 444 -3 409.5 -1.5 c 128,-1,47
 375 0 375 0 341 0 c 0,48,49
 319 0 319 0 296.5 -0.5 c 128,-1,50
 274 -1 274 -1 257 -2 c 128,-1,51
 240 -3 240 -3 226.5 -4 c 128,-1,52
 213 -5 213 -5 205 -5.5 c 128,-1,53
 197 -6 197 -6 196 -6 c 0,54,55
 170 -6 170 -6 170 23 c 0,56,57
 170 27 170 27 170.5 30.5 c 128,-1,58
 171 34 171 34 171.5 36.5 c 128,-1,59
 172 39 172 39 174.5 40.5 c 128,-1,60
 177 42 177 42 178.5 43 c 128,-1,61
 180 44 180 44 184.5 45 c 128,-1,62
 189 46 189 46 192.5 46.5 c 128,-1,63
 196 47 196 47 202.5 47 c 128,-1,64
 209 47 209 47 215.5 47.5 c 128,-1,65
 222 48 222 48 231.5 48 c 128,-1,66
 241 48 241 48 250 49 c 2,67,-1
 254.5 49.5 l 2,68,69
 259 50 259 50 259.5 50 c 128,-1,70
 260 50 260 50 263.5 50.5 c 128,-1,71
 267 51 267 51 268 51.5 c 128,-1,72
 269 52 269 52 272 53 c 128,-1,73
 275 54 275 54 275.5 56 c 128,-1,74
 276 58 276 58 277.5 60 c 128,-1,75
 279 62 279 62 279.5 65 c 128,-1,76
 280 68 280 68 280 72 c 2,77,-1
 280 284 l 2,78,79
 280 293 280 293 278 300.5 c 128,-1,80
 276 308 276 308 275 311 c 128,-1,81
 274 314 274 314 267.5 325 c 128,-1,82
 261 336 261 336 258 340 c 0,83,84
 164 491 164 491 95.375 601.625 c 0,85,86
 72 638 72 638 70 642 c 0,87,88
 60 655 60 655 40 656.5 c 128,-1,89
 20 658 20 658 15 669 c 1,90,91
 11 675 11 675 11 683 c 0,92,93
 11 692 11 692 17.5 699 c 128,-1,94
 24 706 24 706 37 706 c 0,95,96
 40 706 40 706 54.5 705 c 128,-1,97
 69 704 69 704 94.5 703 c 128,-1,98
 120 702 120 702 150 702 c 128,-1,99
 180 702 180 702 205 703 c 128,-1,100
 230 704 230 704 244 705 c 128,-1,101
 258 706 258 706 261 706 c 0,102,103
 280 706 280 706 280 685 c 0,104,105
 280 680 280 680 279.5 676 c 128,-1,106
 279 672 279 672 277.5 669 c 128,-1,107
 276 666 276 666 274.5 664 c 128,-1,108
 273 662 273 662 269 660.5 c 128,-1,109
 265 659 265 659 262.5 658.5 c 128,-1,110
 260 658 260 658 253.5 657 c 128,-1,111
 247 656 247 656 242.5 656 c 128,-1,112
 238 656 238 656 229 655.5 c 128,-1,113
 220 655 220 655 213 654 c 0,114,115
 186 651 186 651 186 631 c 2,116,-1
 186 629 l 2,117,118
 186 622 186 622 235.01 537.736 c 0,119,120
 287 447 287 447 332 370 c 0,121,122
 341 355 341 355 346 355 c 0,123,124
 348 355 348 355 354 361 c 1,125,126
 502 565 502 565 516 588 c 0,127,128
 534 620 534 620 534 631 c 0,129,130
 534 647 534 647 525 651.5 c 128,-1,131
 516 656 516 656 491.672 656.625 c 0,132,133
 487 657 487 657 485 657 c 4,0,1
EndSplineSet
EndChar

StartChar: Z
Encoding: 90 90 59
Width: 644
GlyphClass: 2
Flags: W
HStem: 0 83<192.186 513.96> 614 77<77.7109 470.997> 723 20G<35.5 54>
VStem: 16 42<504.189 593.484> 25 48<696.359 742.414> 591 44<154.656 254.264>
LayerCount: 2
Fore
SplineSet
16 523 m 0,0,1
 16 527 16 527 18 547 c 128,-1,2
 20 567 20 567 22.5 602 c 128,-1,3
 25 637 25 637 25 677 c 2,4,-1
 25 715 l 2,5,6
 25 743 25 743 46 743 c 0,7,8
 62 743 62 743 73 719 c 1,9,10
 82 691 82 691 129 691 c 2,11,-1
 575 691 l 2,12,13
 600 691 600 691 600 673 c 0,14,15
 600 665 600 665 546.602 594.733 c 0,16,17
 523 564 523 564 508 544 c 2,18,-1
 359 357 l 1,19,20
 246 219 246 219 196 130 c 0,21,22
 190 121 190 121 190 115 c 0,23,24
 190 99 190 99 208.5 94.5 c 128,-1,25
 227 90 227 90 293 86 c 0,26,27
 342 83 342 83 393 83 c 2,28,-1
 415 83 l 2,29,30
 482 83 482 83 515 93.5 c 128,-1,31
 548 104 548 104 566 145 c 0,32,33
 572 161 572 161 580 203.5 c 128,-1,34
 588 246 588 246 591 252 c 0,35,36
 598 262 598 262 610 262 c 0,37,38
 618 262 618 262 626.5 254.5 c 128,-1,39
 635 247 635 247 635 233 c 2,40,-1
 635 232 l 2,41,42
 635 213 635 213 633 197 c 128,-1,43
 631 181 631 181 628 161 c 128,-1,44
 625 141 625 141 623 126 c 0,45,46
 622 111 622 111 620.5 86 c 128,-1,47
 619 61 619 61 617.5 50.5 c 128,-1,48
 616 40 616 40 612.5 26.5 c 128,-1,49
 609 13 609 13 602 7 c 128,-1,50
 595 1 595 1 583 0 c 1,51,-1
 47 0 l 1,52,-1
 45 0 l 2,53,54
 16 0 16 0 16 22 c 0,55,56
 16 30 16 30 25 41 c 0,57,58
 229 329 229 329 457 581 c 0,59,60
 471 597 471 597 471 603 c 0,61,62
 471 614 471 614 457 614 c 2,63,-1
 126 614 l 2,64,65
 117 614 117 614 111 613.5 c 128,-1,66
 105 613 105 613 99.5 611 c 128,-1,67
 94 609 94 609 90.5 608 c 128,-1,68
 87 607 87 607 83.5 601 c 128,-1,69
 80 595 80 595 78 592.5 c 128,-1,70
 76 590 76 590 73 580 c 128,-1,71
 70 570 70 570 69 564.5 c 128,-1,72
 68 559 68 559 64 544 c 128,-1,73
 60 529 60 529 58 520 c 0,74,75
 52 498 52 498 37 498 c 0,76,77
 29 498 29 498 22.5 504 c 128,-1,78
 16 510 16 510 16 523 c 0,0,1
EndSplineSet
EndChar

StartChar: bracketleft
Encoding: 91 91 60
Width: 387
GlyphClass: 2
Flags: W
HStem: -215 51<90 152.274> 228 79<26.2939 76.9672> 239 61<53.25 81> 669 56<239.016 318.97> 695 67<93.5 155.327>
VStem: 24 104<239.167 299.918> 82 46<-163.999 238.998 300.002 694.999> 197 43<-138.936 669.969>
LayerCount: 2
Fore
SplineSet
128 -159 m 2,0,1
 128 -164 128 -164 132 -164 c 0,2,3
 133 -164 133 -164 140 -159.5 c 128,-1,4
 147 -155 147 -155 161 -149 c 128,-1,5
 175 -143 175 -143 193 -140 c 0,6,7
 197 -139 197 -139 197 -134 c 2,8,-1
 197 665 l 2,9,10
 197 670 197 670 190.5 672 c 128,-1,11
 184 674 184 674 167.5 678.5 c 128,-1,12
 151 683 151 683 135 693 c 0,13,14
 133 695 133 695 131 695 c 0,15,16
 128 695 128 695 128 690 c 2,17,-1
 128 -159 l 2,0,1
106 762 m 0,18,19
 114 762 114 762 128.5 753 c 128,-1,20
 143 744 143 744 168 734.5 c 128,-1,21
 193 725 193 725 227 725 c 0,22,23
 257 725 257 725 286.5 732.5 c 128,-1,24
 316 740 316 740 333.5 747.5 c 2,25,-1
 351 755 l 1,26,27
 356 755 356 755 360 748.5 c 128,-1,28
 364 742 364 742 364 738 c 0,29,30
 364 731 364 731 350 715.5 c 128,-1,31
 336 700 336 700 307 684.5 c 128,-1,32
 278 669 278 669 245 669 c 0,33,34
 239 669 239 669 239 662 c 2,35,-1
 240 -130 l 2,36,37
 240 -137 240 -137 244 -139 c 128,-1,38
 248 -141 248 -141 255.5 -141.5 c 128,-1,39
 263 -142 263 -142 279.5 -147 c 128,-1,40
 296 -152 296 -152 314 -163 c 0,41,42
 333 -175 333 -175 347.5 -189.5 c 128,-1,43
 362 -204 362 -204 362 -212 c 0,44,45
 362 -225 362 -225 350 -225 c 0,46,47
 348 -225 348 -225 330.5 -216 c 128,-1,48
 313 -207 313 -207 281.5 -198 c 128,-1,49
 250 -189 250 -189 216 -189 c 0,50,51
 185 -189 185 -189 158 -195.5 c 128,-1,52
 131 -202 131 -202 116 -208.5 c 128,-1,53
 101 -215 101 -215 98 -215 c 0,54,55
 82 -215 82 -215 82 -193 c 2,56,-1
 82 231 l 2,57,58
 82 239 82 239 78 239 c 0,59,60
 77 239 77 239 69 233.5 c 128,-1,61
 61 228 61 228 53 228 c 0,62,63
 24 228 24 228 24 270 c 0,64,65
 24 307 24 307 53 307 c 0,66,67
 61 307 61 307 68.5 303.5 c 128,-1,68
 76 300 76 300 77 300 c 0,69,70
 81 300 81 300 81 307 c 2,71,-1
 81 727 l 2,72,73
 81 762 81 762 106 762 c 0,18,19
EndSplineSet
EndChar

StartChar: backslash
Encoding: 92 92 61
Width: 240
GlyphClass: 2
Flags: W
HStem: -231 21G<200.5 209>
VStem: 3 47<520.196 630.559>
LayerCount: 2
Fore
SplineSet
238 -205 m 0,0,1
 238 -214 238 -214 225 -222.5 c 128,-1,2
 212 -231 212 -231 206 -231 c 0,3,4
 195 -231 195 -231 195 -220 c 1,5,6
 3 609 3 609 3 610 c 0,7,8
 3 618 3 618 15.5 625.5 c 128,-1,9
 28 633 28 633 35 633 c 0,10,11
 45 633 45 633 50 617 c 1,12,13
 91 412 91 412 138.5 208.5 c 128,-1,14
 186 5 186 5 212 -97 c 128,-1,15
 238 -199 238 -199 238 -205 c 0,0,1
EndSplineSet
EndChar

StartChar: bracketright
Encoding: 93 93 62
Width: 387
GlyphClass: 2
Flags: W
HStem: -215 51<234.738 297> 228 79<310.033 361.627> 239 61<306 333.75> 669 56<68.3125 147.984> 695 67<231.513 293.5>
VStem: 147 43<-138.936 668.998> 259 105<239.167 299.918> 259 46<-163.999 238.998 300.002 694.999>
LayerCount: 2
Fore
SplineSet
259 -159 m 2,0,-1
 259 690 l 2,1,2
 259 695 259 695 256 695 c 0,3,4
 254 695 254 695 252 693 c 0,5,6
 241 686 241 686 230.5 681.5 c 128,-1,7
 220 677 220 677 213 676 c 128,-1,8
 206 675 206 675 200.5 673.5 c 128,-1,9
 195 672 195 672 192.5 670.5 c 128,-1,10
 190 669 190 669 190 665 c 2,11,-1
 190 -134 l 2,12,13
 190 -139 190 -139 195 -140 c 0,14,15
 213 -143 213 -143 227 -149 c 128,-1,16
 241 -155 241 -155 247.5 -159.5 c 128,-1,17
 254 -164 254 -164 255 -164 c 0,18,19
 259 -164 259 -164 259 -159 c 2,0,-1
281 762 m 0,20,21
 306 762 306 762 306 727 c 2,22,-1
 306 307 l 2,23,24
 306 300 306 300 310 300 c 0,25,26
 311 300 311 300 318.5 303.5 c 128,-1,27
 326 307 326 307 334 307 c 0,28,29
 364 307 364 307 364 270 c 0,30,31
 364 228 364 228 334 228 c 0,32,33
 326 228 326 228 318 233.5 c 128,-1,34
 310 239 310 239 309 239 c 0,35,36
 305 239 305 239 305 231 c 2,37,-1
 305 -193 l 2,38,39
 305 -215 305 -215 289 -215 c 0,40,41
 286 -215 286 -215 271 -208.5 c 128,-1,42
 256 -202 256 -202 229 -195.5 c 128,-1,43
 202 -189 202 -189 171 -189 c 0,44,45
 137 -189 137 -189 105.5 -198 c 128,-1,46
 74 -207 74 -207 56.5 -216 c 128,-1,47
 39 -225 39 -225 37 -225 c 0,48,49
 25 -225 25 -225 25 -212 c 0,50,51
 25 -204 25 -204 39.5 -189.5 c 128,-1,52
 54 -175 54 -175 73 -163 c 0,53,54
 91 -152 91 -152 107.5 -147 c 128,-1,55
 124 -142 124 -142 131.5 -141.5 c 128,-1,56
 139 -141 139 -141 143 -139 c 128,-1,57
 147 -137 147 -137 147 -130 c 2,58,-1
 148 662 l 2,59,60
 148 669 148 669 142 669 c 0,61,62
 109 669 109 669 80 684.5 c 128,-1,63
 51 700 51 700 37.5 715.5 c 128,-1,64
 24 731 24 731 24 738 c 0,65,66
 24 743 24 743 27.5 749 c 128,-1,67
 31 755 31 755 36 755 c 1,68,-1
 53.5 747.5 l 2,69,70
 71 740 71 740 100.5 732.5 c 128,-1,71
 130 725 130 725 160 725 c 0,72,73
 194 725 194 725 219 734.5 c 128,-1,74
 244 744 244 744 258.5 753 c 128,-1,75
 273 762 273 762 281 762 c 0,20,21
EndSplineSet
EndChar

StartChar: asciicircum
Encoding: 94 94 63
Width: 433
GlyphClass: 2
Flags: W
HStem: 473 257
VStem: 52 330<487 504>
LayerCount: 2
Fore
SplineSet
75 473 m 0,0,1
 65 473 65 473 58.5 480 c 128,-1,2
 52 487 52 487 52 496 c 0,3,4
 52 504 52 504 59 516 c 0,5,6
 168.896 701.978 168.896 701.978 178.264 713.8 c 0,7,8
 186.948 724.76 186.948 724.76 199 730 c 0,9,10
 206.5 733 206.5 733 214 733 c 0,11,12
 219 733 219 733 223 731.5 c 128,-1,13
 227 730 227 730 230.5 728.5 c 128,-1,14
 234 727 234 727 238 723.5 c 128,-1,15
 242 720 242 720 244.5 718 c 128,-1,16
 247 716 247 716 251 711 c 128,-1,17
 255 706 255 706 256 704.5 c 128,-1,18
 257 703 257 703 260.5 697.5 c 128,-1,19
 264 692 264 692 265 691 c 0,20,21
 297 641 297 641 336.491 577.566 c 0,22,23
 382 506 382 506 382 495 c 0,24,25
 382 485 382 485 374.5 478 c 128,-1,26
 367 471 367 471 357 471 c 0,27,28
 352 471 352 471 346.5 473.5 c 128,-1,29
 341 476 341 476 337 478.5 c 128,-1,30
 333 481 333 481 328 486.5 c 128,-1,31
 323 492 323 492 320.5 495 c 128,-1,32
 318 498 318 498 312.5 505 c 128,-1,33
 307 512 307 512 306 514 c 0,34,35
 225.343 617.28 225.343 617.28 223.508 618.779 c 0,36,37
 220.789 621 220.789 621 217 621 c 0,38,-1
 216.43 620.932 l 2,39,40
 210.814 620.275 210.814 620.275 189.375 594.014 c 0,41,42
 182.767 585.919 182.767 585.919 163.05 561.508 c 0,43,44
 139.189 531.966 139.189 531.966 123 512 c 0,45,46
 120 509 120 509 115 502.5 c 128,-1,47
 110 496 110 496 107 493 c 128,-1,48
 104 490 104 490 99.5 485.5 c 128,-1,49
 95 481 95 481 92 478.5 c 128,-1,50
 89 476 89 476 84.5 474.5 c 128,-1,51
 80 473 80 473 75 473 c 0,0,1
EndSplineSet
EndChar

StartChar: underscore
Encoding: 95 95 64
Width: 539
GlyphClass: 2
Flags: W
HStem: -78 56<28.123 512.781>
LayerCount: 2
Fore
SplineSet
28 -51 m 2,0,-1
 28 -47 l 2,1,2
 28 -22 28 -22 42 -22 c 2,3,-1
 499 -22 l 2,4,5
 513 -22 513 -22 513 -47 c 2,6,-1
 513 -49 l 2,7,8
 513 -78 513 -78 499 -78 c 2,9,-1
 42 -78 l 2,10,11
 28 -78 28 -78 28 -51 c 2,0,-1
EndSplineSet
EndChar

StartChar: grave
Encoding: 96 96 65
Width: 232
GlyphClass: 2
Flags: W
HStem: 485 233
VStem: 8 203
LayerCount: 2
Fore
SplineSet
8 680 m 0,0,1
 8 697 8 697 19.5 707.5 c 128,-1,2
 31 718 31 718 46 718 c 2,3,-1
 47 718 l 2,4,5
 75 718 75 718 103 675 c 1,6,7
 135 628 135 628 172.891 571.149 c 0,8,9
 211 515 211 515 211 506 c 0,10,11
 211 498 211 498 205 491.5 c 128,-1,12
 199 485 199 485 191 485 c 2,13,-1
 189 485 l 2,14,15
 182 485 182 485 174.5 491.5 c 128,-1,16
 167 498 167 498 115.817 550.614 c 0,17,18
 69 598 69 598 34 634 c 0,19,20
 8 660 8 660 8 680 c 0,0,1
EndSplineSet
EndChar

StartChar: a
Encoding: 97 97 66
Width: 433
GlyphClass: 2
Flags: W
HStem: -12 60<341.775 399.297> 396 48<126.537 236.284>
VStem: 30 63<326.314 362.382> 34 76<49.5674 159.052> 266 72<61.0743 192.325 236.065 365.281>
LayerCount: 2
Fore
SplineSet
30 353 m 0,0,1
 30 383 30 383 78.5 413.5 c 128,-1,2
 127 444 127 444 187 444 c 0,3,4
 206 444 206 444 226 440 c 128,-1,5
 246 436 246 436 271.5 426 c 128,-1,6
 297 416 297 416 314.5 391.5 c 128,-1,7
 332 367 332 367 336 332 c 0,8,9
 338 308 338 308 338 295 c 2,10,-1
 338 93 l 2,11,12
 338 75 338 75 345 64 c 128,-1,13
 352 53 352 53 359 50.5 c 128,-1,14
 366 48 366 48 373 48 c 0,15,16
 387 48 387 48 395 56.5 c 128,-1,17
 403 65 403 65 407.5 73.5 c 128,-1,18
 412 82 412 82 418 82 c 0,19,20
 427 82 427 82 427 69 c 0,21,22
 427 45 427 45 405 16.5 c 128,-1,23
 383 -12 383 -12 348 -12 c 0,24,25
 335 -12 335 -12 323 -8 c 128,-1,26
 311 -4 311 -4 303 2.5 c 128,-1,27
 295 9 295 9 288.5 15 c 128,-1,28
 282 21 282 21 278.5 25.5 c 2,29,-1
 275 30 l 2,30,31
 274 30 274 30 274 30.5 c 128,-1,32
 274 31 274 31 273 31 c 0,33,34
 271 31 271 31 270 29 c 128,-1,35
 269 27 269 27 263 21 c 128,-1,36
 257 15 257 15 246 8 c 0,37,38
 201 -20 201 -20 151 -20 c 0,39,40
 99 -20 99 -20 66.5 13 c 128,-1,41
 34 46 34 46 34 94 c 2,42,-1
 34 95 l 2,43,44
 34 153 34 153 77 186 c 0,45,46
 92 198 92 198 116 207.5 c 128,-1,47
 140 217 140 217 163.5 222 c 128,-1,48
 187 227 187 227 208 230.5 c 128,-1,49
 229 234 229 234 243 235 c 2,50,-1
 257 236 l 1,51,52
 265 238 265 238 265 250 c 2,53,-1
 265 287 l 2,54,55
 265 340 265 340 241 369 c 1,56,57
 216 396 216 396 181 396 c 0,58,59
 127 396 127 396 93 328 c 1,60,61
 84 316 84 316 71 316 c 0,62,63
 55 316 55 316 42.5 326 c 128,-1,64
 30 336 30 336 30 353 c 0,0,1
175 36 m 0,65,66
 198 36 198 36 218.5 46 c 128,-1,67
 239 56 239 56 247 64 c 128,-1,68
 255 72 255 72 260 78 c 0,69,70
 266 86 266 86 266 101 c 2,71,-1
 266 126 l 1,72,-1
 266 168 l 2,73,74
 266 187 266 187 264.5 192.5 c 128,-1,75
 263 198 263 198 256 198 c 0,76,77
 231 198 231 198 193.5 190 c 128,-1,78
 156 182 156 182 134 161 c 1,79,80
 110 141 110 141 110 105 c 0,81,82
 110 67 110 67 131 49 c 0,83,84
 145 36 145 36 175 36 c 0,65,66
EndSplineSet
EndChar

StartChar: b
Encoding: 98 98 67
Width: 497
GlyphClass: 2
Flags: W
HStem: -19 42<154.747 338.931> 710 20G<132 141>
VStem: 71 71<42.1907 361.086 398.001 638.522> 424 64<106.097 292.692>
LayerCount: 2
Fore
SplineSet
145 404 m 0,0,1
 145 398 145 398 150 398 c 0,2,3
 152 398 152 398 169 408.5 c 128,-1,4
 186 419 186 419 218.5 429.5 c 128,-1,5
 251 440 251 440 289 440 c 0,6,7
 379 440 379 440 433.5 377.5 c 128,-1,8
 488 315 488 315 488 214 c 0,9,10
 488 175 488 175 479 138.5 c 128,-1,11
 470 102 470 102 437.5 61.5 c 128,-1,12
 405 21 405 21 352 1 c 0,13,14
 298 -19 298 -19 238 -19 c 0,15,16
 211 -19 211 -19 181 -9.5 c 128,-1,17
 151 0 151 0 138 0 c 0,18,19
 120 0 120 0 106 -11 c 128,-1,20
 92 -22 92 -22 87 -22 c 0,21,22
 71 -22 71 -22 71 9 c 0,23,24
 71 69 71 69 72.5 308.5 c 128,-1,25
 74 548 74 548 74 608 c 0,26,27
 74 622 74 622 61 631 c 0,28,29
 54 635 54 635 47 639.5 c 128,-1,30
 40 644 40 644 35.5 646.5 c 128,-1,31
 31 649 31 649 26 652 c 128,-1,32
 21 655 21 655 18.5 657 c 128,-1,33
 16 659 16 659 13 661 c 128,-1,34
 10 663 10 663 8.5 664 c 128,-1,35
 7 665 7 665 6 666.5 c 128,-1,36
 5 668 5 668 4.5 669.5 c 128,-1,37
 4 671 4 671 4 672 c 0,38,39
 4 680 4 680 17 685 c 0,40,41
 130 730 130 730 134 730 c 0,42,43
 148 728 148 728 148 710 c 0,44,45
 148 676 148 676 146.5 546 c 128,-1,46
 145 416 145 416 145 404 c 0,0,1
424 197 m 0,47,48
 424 280 424 280 373 333 c 128,-1,49
 322 386 322 386 253 386 c 0,50,51
 217 386 217 386 179.5 369 c 128,-1,52
 142 352 142 352 142 336 c 2,53,-1
 142 74 l 2,54,55
 142 73 142 73 141.5 70.5 c 128,-1,56
 141 68 141 68 141 67 c 0,57,58
 141 48 141 48 156 42 c 0,59,60
 204 23 204 23 250 23 c 0,61,62
 328 23 328 23 376 71.5 c 128,-1,63
 424 120 424 120 424 197 c 0,47,48
EndSplineSet
EndChar

StartChar: c
Encoding: 99 99 68
Width: 390
GlyphClass: 2
Flags: W
HStem: -18 65<167.489 306.762> 385 53<143.182 258.441>
VStem: 17 68<136.616 313.1>
LayerCount: 2
Fore
SplineSet
214 -18 m 0,0,1
 126 -18 126 -18 71.5 44 c 128,-1,2
 17 106 17 106 17 202 c 0,3,4
 17 307 17 307 78 372.5 c 128,-1,5
 139 438 139 438 237 438 c 0,6,7
 291 438 291 438 329 415 c 128,-1,8
 367 392 367 392 367 362 c 0,9,10
 367 345 367 345 355 334.5 c 128,-1,11
 343 324 343 324 326 324 c 0,12,13
 304 324 304 324 268.5 354.5 c 128,-1,14
 233 385 233 385 202 385 c 0,15,16
 155 385 155 385 120 338 c 128,-1,17
 85 291 85 291 85 227 c 0,18,19
 85 154 85 154 131.5 100.5 c 128,-1,20
 178 47 178 47 247 47 c 0,21,22
 274 47 274 47 296.5 55.5 c 128,-1,23
 319 64 319 64 330.5 74.5 c 128,-1,24
 342 85 342 85 353.5 93.5 c 128,-1,25
 365 102 365 102 372 102 c 128,-1,26
 379 102 379 102 384 97 c 128,-1,27
 389 92 389 92 389 85 c 0,28,29
 389 77 389 77 383 69 c 0,30,31
 356 32 356 32 312 7 c 128,-1,32
 268 -18 268 -18 214 -18 c 0,0,1
EndSplineSet
EndChar

StartChar: d
Encoding: 100 100 69
Width: 505
GlyphClass: 2
Flags: W
HStem: -22 54<184.892 334.745> 32.5 37.5<439.285 503.512> 392 41<159.534 327.397> 711 20G<422 430>
VStem: 17 69<128.543 314.146> 364 69<76.4978 362.141 422.125 625.208>
LayerCount: 2
Fore
SplineSet
244 392 m 0,0,1
 168 392 168 392 127 346 c 128,-1,2
 86 300 86 300 86 221 c 0,3,4
 86 134 86 134 144 83 c 128,-1,5
 202 32 202 32 264 32 c 0,6,7
 295 32 295 32 324.5 44.5 c 128,-1,8
 354 57 354 57 360 76 c 1,9,10
 364 92 364 92 364 99 c 2,11,-1
 364 329 l 2,12,13
 364 342 364 342 353 353 c 0,14,15
 311 392 311 392 244 392 c 0,0,1
246 433 m 2,16,17
 276 433 276 433 302 429.5 c 128,-1,18
 328 426 328 426 342 422 c 2,19,-1
 356 418 l 1,20,21
 364 418 364 418 364 427 c 2,22,-1
 364 599 l 2,23,24
 364 602 364 602 363.5 604.5 c 128,-1,25
 363 607 363 607 362.5 609 c 128,-1,26
 362 611 362 611 360.5 613 c 128,-1,27
 359 615 359 615 358 616 c 128,-1,28
 357 617 357 617 353.5 619 c 128,-1,29
 350 621 350 621 347.5 622.5 c 128,-1,30
 345 624 345 624 339.5 626 c 128,-1,31
 334 628 334 628 329.5 630 c 128,-1,32
 325 632 325 632 317 635 c 128,-1,33
 309 638 309 638 302 641 c 1,34,35
 283 646 283 646 283 657 c 0,36,37
 283 663 283 663 292 669 c 1,38,39
 420 731 420 731 424 731 c 0,40,41
 436 731 436 731 436 717 c 0,42,43
 436 707 436 707 435 664.5 c 128,-1,44
 434 622 434 622 433.5 547.5 c 128,-1,45
 433 473 433 473 433 385 c 0,46,47
 433 111 433 111 436 84 c 0,48,49
 436 81 436 81 436.5 79.5 c 128,-1,50
 437 78 437 78 438 76.5 c 128,-1,51
 439 75 439 75 440.5 74 c 128,-1,52
 442 73 442 73 444.5 72.5 c 128,-1,53
 447 72 447 72 449 71.5 c 128,-1,54
 451 71 451 71 455.5 71 c 128,-1,55
 460 71 460 71 463.5 71 c 128,-1,56
 467 71 467 71 473 70.5 c 128,-1,57
 479 70 479 70 484 70 c 0,58,59
 504 70 504 70 504 55 c 0,60,61
 504 48 504 48 498.5 44 c 128,-1,62
 493 40 493 40 475.5 32.5 c 128,-1,63
 458 25 458 25 443 16 c 0,64,65
 423 5 423 5 407 -6.5 c 128,-1,66
 391 -18 391 -18 384 -23.5 c 128,-1,67
 377 -29 377 -29 373 -29 c 0,68,69
 365 -29 365 -29 365 -18 c 2,70,-1
 365 15 l 2,71,72
 365 18 365 18 362 18 c 1,73,-1
 356.5 14 l 2,74,75
 351 10 351 10 341 4 c 128,-1,76
 331 -2 331 -2 317.5 -8 c 128,-1,77
 304 -14 304 -14 283.5 -18 c 128,-1,78
 263 -22 263 -22 241 -22 c 0,79,80
 142 -22 142 -22 79.5 45.5 c 128,-1,81
 17 113 17 113 17 212 c 0,82,83
 17 301 17 301 74.5 367 c 128,-1,84
 132 433 132 433 245 433 c 2,85,-1
 246 433 l 2,16,17
EndSplineSet
EndChar

StartChar: e
Encoding: 101 101 70
Width: 418
GlyphClass: 2
Flags: W
HStem: -19 58<168.067 316.392> 385 56<132.339 254.314>
VStem: 23 72<118.314 325.555> 297 99<300.118 346.907>
LayerCount: 2
Fore
SplineSet
23 211 m 0,0,1
 23 315 23 315 78 378 c 128,-1,2
 133 441 133 441 212 441 c 0,3,4
 263 441 263 441 310 413 c 128,-1,5
 357 385 357 385 388 343 c 0,6,7
 396 333 396 333 396 321 c 2,8,-1
 396 319 l 2,9,10
 396 310 396 310 391 303 c 128,-1,11
 386 296 386 296 375 290.5 c 128,-1,12
 364 285 364 285 356 282 c 128,-1,13
 348 279 348 279 332.5 274 c 128,-1,14
 317 269 317 269 313 268 c 0,15,16
 103.666 195.918 103.666 195.918 98.938 192.998 c 0,17,18
 95 190.566 95 190.566 95 187 c 0,19,20
 95 181 95 181 98 167 c 128,-1,21
 101 153 101 153 111.5 130 c 128,-1,22
 122 107 122 107 137.5 87.5 c 128,-1,23
 153 68 153 68 182 53.5 c 128,-1,24
 211 39 211 39 247 39 c 0,25,26
 317 39 317 39 369 89 c 0,27,28
 383 103 383 103 392 103 c 0,29,30
 409 103 409 103 409 88 c 0,31,32
 409 82 409 82 401 72 c 0,33,34
 369 30 369 30 321 5.5 c 128,-1,35
 273 -19 273 -19 220 -19 c 0,36,37
 186 -19 186 -19 153.5 -7 c 128,-1,38
 121 5 121 5 90.5 30 c 128,-1,39
 60 55 60 55 41.5 102 c 128,-1,40
 23 149 23 149 23 211 c 0,0,1
297 317 m 0,41,42
 297 330 297 330 262 357.5 c 128,-1,43
 227 385 227 385 189 385 c 0,44,45
 144 385 144 385 117.5 346 c 128,-1,46
 91 307 91 307 91 239 c 0,47,48
 91 231 91 231 96 231 c 0,49,50
 98 231 98 231 191.5 267.5 c 128,-1,51
 285 304 285 304 288 305 c 0,52,53
 297 310 297 310 297 317 c 0,41,42
EndSplineSet
EndChar

StartChar: f
Encoding: 102 102 71
Width: 299
GlyphClass: 2
Flags: W
HStem: -0.5 40.5<24.7068 81.5308 157.044 194.688> 368 53<11.0527 79.8083 157.548 288.321> 669 68<226.819 330.421>
VStem: 86 71<39.4902 366.936 424.095 581.18>
LayerCount: 2
Fore
SplineSet
34 -6 m 0,0,1
 18 -6 18 -6 18 19 c 0,2,3
 18 29 18 29 24.5 32 c 128,-1,4
 31 35 31 35 52.5469 37.8203 c 0,5,6
 62 39 62 39 67 40 c 0,7,8
 70 40 70 40 72.5 41 c 128,-1,9
 75 42 75 42 76.5 44 c 128,-1,10
 78 46 78 46 79 47 c 128,-1,11
 80 48 80 48 80.5 51 c 128,-1,12
 81 54 81 54 81 55 c 128,-1,13
 81 56 81 56 81.5 60 c 128,-1,14
 82 64 82 64 82 65 c 0,15,16
 86 117 86 117 86 358 c 0,17,18
 86 365 86 365 80 367 c 128,-1,19
 74 369 74 369 50.8654 368.7 c 0,20,21
 39 369 39 369 32 369 c 0,22,23
 10 369 10 369 10 387 c 0,24,25
 10 418 10 418 32 418 c 1,26,27
 45 419 45 419 61.6933 418.719 c 0,28,29
 78 419 78 419 81 420 c 128,-1,30
 84 421 84 421 84 428 c 2,31,-1
 84 429 l 1,32,33
 87 554 87 554 128 626 c 0,34,35
 157 676 157 676 211.5 706.5 c 128,-1,36
 266 737 266 737 315 737 c 0,37,38
 352 737 352 737 370.5 720.5 c 128,-1,39
 389 704 389 704 389 684 c 0,40,41
 389 668 389 668 377.5 656 c 128,-1,42
 366 644 366 644 346 644 c 0,43,44
 332 644 332 644 304.5 656.5 c 128,-1,45
 277 669 277 669 261 669 c 0,46,47
 209 669 209 669 182.5 606 c 128,-1,48
 156 543 156 543 156 446 c 2,49,-1
 156 437 l 2,50,51
 156 427 156 427 157.5 424 c 128,-1,52
 159 421 159 421 166 421 c 2,53,-1
 266 421 l 2,54,55
 289 421 289 421 289 400 c 2,56,-1
 289 399 l 2,57,58
 289 368 289 368 262 368 c 2,59,-1
 166 368 l 2,60,61
 157 368 157 368 157 359 c 2,62,-1
 157 66 l 1,63,-1
 157 62 l 2,64,65
 157 39 157 39 177 38 c 0,66,67
 185 37 185 37 195 36.5 c 128,-1,68
 205 36 205 36 209.5 36 c 128,-1,69
 214 36 214 36 219.5 35.5 c 128,-1,70
 225 35 225 35 227.5 33.5 c 128,-1,71
 230 32 230 32 232.5 30 c 128,-1,72
 235 28 235 28 235.5 24.5 c 128,-1,73
 236 21 236 21 236 16 c 0,74,75
 236 -6 236 -6 219 -6 c 0,76,77
 218 -6 218 -6 213 -5.5 c 128,-1,78
 208 -5 208 -5 199.5 -4 c 128,-1,79
 191 -3 191 -3 180 -2 c 128,-1,80
 169 -1 169 -1 155 -0.5 c 128,-1,81
 141 0 141 0 127 0 c 128,-1,82
 113 0 113 0 98.5 -0.5 c 128,-1,83
 84 -1 84 -1 73.5 -2 c 128,-1,84
 63 -3 63 -3 54 -4 c 128,-1,85
 45 -5 45 -5 40 -5.5 c 128,-1,86
 35 -6 35 -6 34 -6 c 0,0,1
EndSplineSet
EndChar

StartChar: g
Encoding: 103 103 72
Width: 450
GlyphClass: 2
Flags: W
HStem: -240 49<143.394 351.969> -31 56<110.764 335.641> 115 36<155.588 259.335> 368.5 94.5<372.216 424.454> 409 34<141.901 242.111>
VStem: 23 79<206.284 364.404> 28 57<-143.477 -47.4282> 45 52<42.6211 104.279> 299 74<200.783 351.652> 382 59<-162.076 -67.6971>
LayerCount: 2
Fore
SplineSet
191 409 m 0,0,1
 152 409 152 409 127 377.5 c 128,-1,2
 102 346 102 346 102 296 c 0,3,4
 102 237 102 237 132 194 c 128,-1,5
 162 151 162 151 208 151 c 0,6,7
 249 151 249 151 274 183.5 c 128,-1,8
 299 216 299 216 299 264 c 0,9,10
 299 321 299 321 268.5 365 c 128,-1,11
 238 409 238 409 191 409 c 0,0,1
85 -90 m 0,12,13
 85 -135 85 -135 132.5 -163 c 128,-1,14
 180 -191 180 -191 252 -191 c 0,15,16
 323 -191 323 -191 352.5 -168.5 c 128,-1,17
 382 -146 382 -146 382 -117 c 0,18,19
 382 -75 382 -75 341 -56 c 1,20,21
 320 -45 320 -45 292 -41.5 c 128,-1,22
 264 -38 264 -38 213.5 -36.5 c 128,-1,23
 163 -35 163 -35 125 -31 c 1,24,-1
 122 -31 l 2,25,26
 115 -31 115 -31 104 -42 c 0,27,28
 85 -61 85 -61 85 -90 c 0,12,13
23 284 m 0,29,30
 23 349 23 349 70.5 396 c 128,-1,31
 118 443 118 443 188 443 c 0,32,33
 231 443 231 443 271.5 425 c 128,-1,34
 312 407 312 407 317 407 c 0,35,36
 349 407 349 407 371 439 c 1,37,38
 386 463 386 463 400 463 c 128,-1,39
 414 463 414 463 426.5 449.5 c 128,-1,40
 439 436 439 436 439 421 c 0,41,42
 439 403 439 403 423.5 390 c 128,-1,43
 408 377 408 377 387.5 368.5 c 128,-1,44
 367 360 367 360 366 359 c 0,45,46
 361 354 361 354 361 351 c 0,47,48
 361 349 361 349 364 341 c 128,-1,49
 367 333 367 333 370 318.5 c 128,-1,50
 373 304 373 304 373 287 c 0,51,52
 373 216 373 216 323.5 165.5 c 128,-1,53
 274 115 274 115 203 115 c 0,54,55
 183 115 183 115 165 119.5 c 128,-1,56
 147 124 147 124 143 124 c 0,57,58
 129 124 129 124 113 106.5 c 128,-1,59
 97 89 97 89 97 72 c 0,60,61
 97 45 97 45 140.5 36 c 128,-1,62
 184 27 184 27 251.5 25 c 128,-1,63
 319 23 319 23 348 14 c 0,64,65
 394 1 394 1 417.5 -30.5 c 128,-1,66
 441 -62 441 -62 441 -99 c 0,67,68
 441 -122 441 -122 431 -145 c 128,-1,69
 421 -168 421 -168 398.5 -190 c 128,-1,70
 376 -212 376 -212 332 -226 c 128,-1,71
 288 -240 288 -240 228 -240 c 0,72,73
 117 -240 117 -240 72.5 -199.5 c 128,-1,74
 28 -159 28 -159 28 -111 c 0,75,76
 28 -101 28 -101 30 -91.5 c 128,-1,77
 32 -82 32 -82 35 -74.5 c 128,-1,78
 38 -67 38 -67 41.5 -60.5 c 128,-1,79
 45 -54 45 -54 49.5 -48.5 c 128,-1,80
 54 -43 54 -43 58.5 -39 c 128,-1,81
 63 -35 63 -35 67 -32 c 128,-1,82
 71 -29 71 -29 74 -26.5 c 128,-1,83
 77 -24 77 -24 79 -23 c 2,84,-1
 81 -22 l 2,85,86
 83 -20 83 -20 83 -17 c 0,87,88
 83 -16 83 -16 73.5 -10 c 128,-1,89
 64 -4 64 -4 54.5 10 c 128,-1,90
 45 24 45 24 45 44 c 0,91,92
 45 93 45 93 102.303 139.425 c 2,93,-1
 103 140 l 2,94,95
 104 141 104 141 104 143 c 0,96,97
 104 147 104 147 95 152 c 128,-1,98
 86 157 86 157 70.5 171.5 c 128,-1,99
 55 186 55 186 42 209 c 0,100,101
 23 243 23 243 23 284 c 0,29,30
EndSplineSet
EndChar

StartChar: h
Encoding: 104 104 73
Width: 526
GlyphClass: 2
Flags: W
HStem: -6 42.5<160.459 235.997 455.89 509.987> -6 35<22.0732 76.7285> 716 20G<144 155>
VStem: 89 68<39.9933 329.874 394.002 623.212> 379 76<55.4485 299.959>
LayerCount: 2
Fore
SplineSet
300 8 m 2,0,-1
 300 15 l 2,1,2
 300 20 300 20 300.5 23 c 128,-1,3
 301 26 301 26 303.5 28.5 c 128,-1,4
 306 31 306 31 308.5 32 c 128,-1,5
 311 33 311 33 316.5 34 c 128,-1,6
 322 35 322 35 326.5 35.5 c 128,-1,7
 331 36 331 36 340.5 37 c 128,-1,8
 350 38 350 38 358 39 c 0,9,10
 373 41 373 41 376 55 c 128,-1,11
 379 69 379 69 379 128 c 0,12,13
 379 228 379 228 366.5 272.5 c 128,-1,14
 354 317 354 317 330 343 c 1,15,16
 293 380 293 380 247 380 c 0,17,18
 216 380 216 380 189 363.5 c 128,-1,19
 162 347 162 347 158 330 c 0,20,21
 157 326 157 326 157 316 c 0,22,23
 157 70 157 70 159 63 c 0,24,25
 162 48 162 48 174.5 42 c 128,-1,26
 187 36 187 36 200.5 36.5 c 128,-1,27
 214 37 214 37 225 32 c 128,-1,28
 236 27 236 27 236 15 c 0,29,30
 236 -6 236 -6 224 -6 c 0,31,32
 223 -6 223 -6 218 -5.5 c 128,-1,33
 213 -5 213 -5 204 -4 c 128,-1,34
 195 -3 195 -3 184 -2 c 128,-1,35
 173 -1 173 -1 158.5 -0.5 c 128,-1,36
 144 0 144 0 130 0 c 0,37,38
 115 0 115 0 100.5 -0.5 c 128,-1,39
 86 -1 86 -1 74.5 -2 c 128,-1,40
 63 -3 63 -3 54 -4 c 128,-1,41
 45 -5 45 -5 40 -5.5 c 128,-1,42
 35 -6 35 -6 34 -6 c 0,43,44
 22 -6 22 -6 22 14 c 0,45,46
 22 26 22 26 28 29 c 128,-1,47
 34 32 34 32 59 37 c 0,48,49
 70 39 70 39 76 45.5 c 128,-1,50
 82 52 82 52 82.5 56.5 c 128,-1,51
 83 61 83 61 84 72 c 0,52,53
 89 227 89 227 89 353 c 2,54,-1
 89 357 l 2,55,56
 89 584 89 584 85 608 c 0,57,58
 83 621 83 621 47.5 629 c 128,-1,59
 12 637 12 637 12 651 c 0,60,61
 12 662 12 662 29 671 c 0,62,63
 142 736 142 736 146 736 c 2,64,-1
 147 736 l 2,65,66
 163 736 163 736 163 717 c 2,67,-1
 162 401 l 2,68,69
 162 394 162 394 167 394 c 0,70,71
 168 394 168 394 184 403.5 c 128,-1,72
 200 413 200 413 228.5 422.5 c 128,-1,73
 257 432 257 432 288 432 c 0,74,75
 384 432 384 432 425 339 c 0,76,77
 441 301 441 301 446.5 253.5 c 128,-1,78
 452 206 452 206 455 68 c 0,79,80
 455 54 455 54 460 47 c 128,-1,81
 465 40 465 40 471 38.5 c 128,-1,82
 477 37 477 37 493 35 c 0,83,84
 510 33 510 33 510 16 c 0,85,86
 510 -6 510 -6 497 -6 c 0,87,88
 496 -6 496 -6 491 -5.5 c 128,-1,89
 486 -5 486 -5 477 -4 c 128,-1,90
 468 -3 468 -3 457.5 -2 c 128,-1,91
 447 -1 447 -1 432 -0.5 c 128,-1,92
 417 0 417 0 403 0 c 128,-1,93
 389 0 389 0 375 -0.5 c 128,-1,94
 361 -1 361 -1 350 -2 c 128,-1,95
 339 -3 339 -3 330.5 -4 c 128,-1,96
 322 -5 322 -5 317 -5.5 c 128,-1,97
 312 -6 312 -6 311 -6 c 0,98,99
 300 -6 300 -6 300 8 c 2,0,-1
EndSplineSet
EndChar

StartChar: i
Encoding: 105 105 74
Width: 248
GlyphClass: 2
Flags: HW
HStem: -6 37<18.0156 90.8848 170.375 233.895> 432 20<155.5 164> 585 96<120.439 190.045>
VStem: 96 69<57.5503 337.358> 106 99<599.439 672.793>
LayerCount: 2
Fore
SplineSet
96 124 m 2,0,1
 96 176 96 176 96 221 c 128,-1,2
 96 266 96 266 96.5 291.5 c 128,-1,3
 97 317 97 317 97 322 c 0,4,5
 97 333 97 333 89.5 337.5 c 128,-1,6
 82 342 82 342 28 364 c 0,7,8
 15 369 15 369 15 377 c 0,9,10
 15 380 15 380 16.5 383 c 128,-1,11
 18 386 18 386 21.5 388 c 128,-1,12
 25 390 25 390 28 391.5 c 128,-1,13
 31 393 31 393 36 395 c 128,-1,14
 41 397 41 397 43 398 c 0,15,16
 155 452 155 452 156 452 c 2,17,-1
 157 452 l 2,18,19
 171 452 171 452 171 435 c 2,20,-1
 169.5 402 l 2,21,22
 168 369 168 369 166.5 313.5 c 128,-1,23
 165 258 165 258 165 203 c 2,24,-1
 165 169 l 2,25,26
 165 74 165 74 168 57 c 128,-1,27
 171 40 171 40 188 38 c 0,28,29
 218 34 218 34 226 31 c 128,-1,30
 234 28 234 28 234 16 c 0,31,32
 234 -6 234 -6 222 -6 c 0,33,34
 221 -6 221 -6 216 -5.5 c 128,-1,35
 211 -5 211 -5 202 -4 c 128,-1,36
 193 -3 193 -3 182 -2 c 128,-1,37
 171 -1 171 -1 156.5 -0.5 c 128,-1,38
 142 0 142 0 128 0 c 128,-1,39
 114 0 114 0 99 -0.5 c 128,-1,40
 84 -1 84 -1 73.5 -2 c 128,-1,41
 63 -3 63 -3 54 -4 c 128,-1,42
 45 -5 45 -5 40 -5.5 c 128,-1,43
 35 -6 35 -6 34 -6 c 0,44,45
 18 -6 18 -6 18 11 c 128,-1,46
 18 28 18 28 24.5 31 c 128,-1,47
 31 34 31 34 69 39 c 0,48,49
 87 42 87 42 91.5 50.5 c 128,-1,50
 96 59 96 59 96 76 c 2,51,-1
 96 124 l 2,0,1
106 633 m 0,52,53
 106 653 106 653 121 667 c 128,-1,54
 136 681 136 681 156 681 c 128,-1,55
 176 681 176 681 190.5 667 c 128,-1,56
 205 653 205 653 205 634 c 0,57,58
 205 613 205 613 190.5 599 c 128,-1,59
 176 585 176 585 155 585 c 128,-1,60
 134 585 134 585 120 598.5 c 128,-1,61
 106 612 106 612 106 633 c 0,52,53
EndSplineSet
EndChar

StartChar: j
Encoding: 106 106 75
Width: 237
GlyphClass: 2
Flags: HW
HStem: -237 79<-24.6228 56.0458> 433 20<156.5 163> 571 96<120.955 190.046>
VStem: 96.5 69.5<-127.352 355.078> 106 99<584.923 652.561>
LayerCount: 2
Fore
SplineSet
96 104 m 0,0,1
 96 161 96 161 96.5 210 c 128,-1,2
 97 259 97 259 97.5 287.5 c 128,-1,3
 98 316 98 316 98 322 c 0,4,5
 98 327 98 327 97.5 330 c 128,-1,6
 97 333 97 333 96.5 335.5 c 128,-1,7
 96 338 96 338 93 341 c 128,-1,8
 90 344 90 344 88 346 c 128,-1,9
 86 348 86 348 80 351.5 c 128,-1,10
 74 355 74 355 69.5 358 c 128,-1,11
 65 361 65 361 55 367 c 128,-1,12
 45 373 45 373 37 378 c 1,13,14
 28 382 28 382 28 390 c 0,15,16
 28 397 28 397 40.5 403 c 128,-1,17
 53 409 53 409 151 451 c 0,18,19
 155 453 155 453 158 453 c 0,20,21
 168 453 168 453 168 436 c 0,22,23
 168 431 168 431 167.5 406 c 128,-1,24
 167 381 167 381 166.5 337 c 128,-1,25
 166 293 166 293 166 241 c 0,26,27
 166 160 166 160 167 90.5 c 128,-1,28
 168 21 168 21 169 -18.5 c 128,-1,29
 170 -58 170 -58 170 -67 c 0,30,31
 170 -90 170 -90 155 -112 c 0,32,33
 141 -132 141 -132 122 -154.5 c 128,-1,34
 103 -177 103 -177 66 -207 c 128,-1,35
 29 -237 29 -237 2 -237 c 0,36,37
 -15 -237 -15 -237 -26 -227 c 128,-1,38
 -37 -217 -37 -217 -37 -202 c 0,39,40
 -37 -186 -37 -186 -25 -172 c 128,-1,41
 -13 -158 -13 -158 8 -158 c 0,42,43
 14 -158 14 -158 24 -159.5 c 128,-1,44
 34 -161 34 -161 39 -161 c 0,45,46
 47 -161 47 -161 55.5 -158 c 128,-1,47
 64 -155 64 -155 74 -147.5 c 128,-1,48
 84 -140 84 -140 90.5 -122.5 c 128,-1,49
 97 -105 97 -105 97 -80 c 0,50,51
 97 -75 97 -75 96.5 -51.5 c 128,-1,52
 96 -28 96 -28 96 13.5 c 128,-1,53
 96 55 96 55 96 104 c 0,0,1
106 618 m 0,54,55
 106 639 106 639 120.5 653 c 128,-1,56
 135 667 135 667 156 667 c 0,57,58
 176 667 176 667 190.5 653.5 c 128,-1,59
 205 640 205 640 205 620 c 128,-1,60
 205 600 205 600 190 585.5 c 128,-1,61
 175 571 175 571 155 571 c 128,-1,62
 135 571 135 571 120.5 584.5 c 128,-1,63
 106 598 106 598 106 618 c 0,54,55
EndSplineSet
EndChar

StartChar: k
Encoding: 107 107 76
Width: 464
GlyphClass: 2
Flags: W
HStem: -4 39<24.2504 59.2341 145.225 206.833 236.735 270.265 385.28 455.983> 384 41<338.07 425.84> 715 20G<125 132.5>
VStem: 69 69<42.0964 175.905 230.001 640.434>
LayerCount: 2
Fore
SplineSet
229 12 m 2,0,1
 229 25 229 25 236.5 30.5 c 128,-1,2
 244 36 244 36 253.5 35.5 c 128,-1,3
 263 35 263 35 270.5 39 c 128,-1,4
 278 43 278 43 278 53 c 128,-1,5
 278 63 278 63 251 101 c 128,-1,6
 224 139 224 139 199.5 170 c 128,-1,7
 175 201 175 201 172 204 c 1,8,9
 172 206 172 206 168 206 c 128,-1,10
 164 206 164 206 152 193 c 128,-1,11
 140 180 140 180 139 176 c 0,12,13
 138 173 138 173 138 165 c 2,14,-1
 138 59 l 2,15,16
 138 45 138 45 145 42 c 128,-1,17
 152 39 152 39 185 35 c 1,18,19
 207 30 207 30 207 13 c 128,-1,20
 207 -4 207 -4 193 -4 c 0,21,22
 191 -4 191 -4 181 -3 c 128,-1,23
 171 -2 171 -2 153 -1 c 128,-1,24
 135 0 135 0 114 0 c 128,-1,25
 93 0 93 0 75 -1 c 128,-1,26
 57 -2 57 -2 46.5 -3 c 128,-1,27
 36 -4 36 -4 34 -4 c 0,28,29
 16 -4 16 -4 16 14 c 0,30,31
 16 26 16 26 24 30.5 c 128,-1,32
 32 35 32 35 41.5 35 c 128,-1,33
 51 35 51 35 59.5 40 c 128,-1,34
 68 45 68 45 69 57 c 1,35,-1
 69 609 l 2,36,37
 69 625 69 625 56 634 c 0,38,39
 11 665 11 665 9 667 c 2,40,-1
 5 675 l 1,41,42
 5 685 5 685 26 692 c 1,43,44
 123 735 123 735 127 735 c 0,45,46
 138 735 138 735 138 718 c 2,47,-1
 138 234 l 2,48,49
 138 230 138 230 141 230 c 0,50,51
 145 230 145 230 147 234 c 1,52,53
 162 249 162 249 177.5 264.5 c 128,-1,54
 193 280 193 280 201.5 288.5 c 128,-1,55
 210 297 210 297 219 306 c 128,-1,56
 228 315 228 315 232.5 320 c 128,-1,57
 237 325 237 325 241 330 c 128,-1,58
 245 335 245 335 246 338.5 c 128,-1,59
 247 342 247 342 248 346 c 128,-1,60
 249 350 249 350 249 355 c 0,61,62
 249 372 249 372 235.5 382.5 c 128,-1,63
 222 393 222 393 222 398 c 2,64,-1
 222 409 l 2,65,66
 222 422 222 422 244 422 c 2,67,-1
 303 422 l 2,68,69
 333 422 333 422 358.5 423 c 128,-1,70
 384 424 384 424 398.5 424.5 c 128,-1,71
 413 425 413 425 416 425 c 0,72,73
 431 425 431 425 431 406 c 0,74,75
 431 394 431 394 426 390 c 128,-1,76
 421 386 421 386 402.5 384 c 128,-1,77
 384 382 384 382 372 379 c 0,78,79
 350 373 350 373 325 355 c 128,-1,80
 300 337 300 337 284 321 c 128,-1,81
 268 305 268 305 223 259 c 0,82,83
 216 252 216 252 216 250 c 0,84,85
 216 246 216 246 335 104 c 0,86,87
 353 83 353 83 364 71.5 c 128,-1,88
 375 60 375 60 395.5 48 c 128,-1,89
 416 36 416 36 439 33 c 0,90,91
 456 31 456 31 456 15 c 0,92,93
 456 -6 456 -6 439 -6 c 0,94,95
 438 -6 438 -6 432.5 -5.5 c 128,-1,96
 427 -5 427 -5 418 -4 c 128,-1,97
 409 -3 409 -3 397.5 -2 c 128,-1,98
 386 -1 386 -1 371 -0.5 c 128,-1,99
 356 0 356 0 341 0 c 128,-1,100
 326 0 326 0 311 -0.5 c 128,-1,101
 296 -1 296 -1 284.5 -2 c 128,-1,102
 273 -3 273 -3 264 -4 c 128,-1,103
 255 -5 255 -5 249.5 -5.5 c 128,-1,104
 244 -6 244 -6 243 -6 c 0,105,106
 229 -6 229 -6 229 11 c 2,107,-1
 229 12 l 2,0,1
EndSplineSet
EndChar

StartChar: l
Encoding: 108 108 77
Width: 244
GlyphClass: 2
Flags: W
HStem: -5 37.5<18.0916 83.3251 167.438 232.996> 720 20G<146.5 157>
VStem: 89 75<50.799 624.727>
LayerCount: 2
Fore
SplineSet
233 14 m 0,0,1
 233 -6 233 -6 221 -6 c 0,2,3
 220 -6 220 -6 214.5 -5.5 c 128,-1,4
 209 -5 209 -5 200 -4 c 128,-1,5
 191 -3 191 -3 180 -2 c 128,-1,6
 169 -1 169 -1 154 -0.5 c 128,-1,7
 139 0 139 0 125 0 c 128,-1,8
 111 0 111 0 97 -0.5 c 128,-1,9
 83 -1 83 -1 72 -1.5 c 128,-1,10
 61 -2 61 -2 52.5 -3 c 128,-1,11
 44 -4 44 -4 39 -4.5 c 128,-1,12
 34 -5 34 -5 33 -5 c 0,13,14
 18 -5 18 -5 18 13 c 2,15,-1
 18 16 l 2,16,17
 18 29 18 29 24.5 32.5 c 128,-1,18
 31 36 31 36 60 39 c 0,19,20
 78 41 78 41 83.5 50.5 c 128,-1,21
 89 60 89 60 89 78 c 2,22,-1
 89 599 l 2,23,24
 89 602 89 602 88.5 604.5 c 128,-1,25
 88 607 88 607 87 609 c 128,-1,26
 86 611 86 611 85.5 612.5 c 128,-1,27
 85 614 85 614 82.5 615.5 c 128,-1,28
 80 617 80 617 78.5 618 c 128,-1,29
 77 619 77 619 72.5 621.5 c 128,-1,30
 68 624 68 624 66 625 c 0,31,32
 56 631 56 631 44.5 637.5 c 128,-1,33
 33 644 33 644 28.5 647 c 128,-1,34
 24 650 24 650 19 653.5 c 128,-1,35
 14 657 14 657 12.5 659.5 c 128,-1,36
 11 662 11 662 11 665 c 2,37,-1
 11 666 l 2,38,39
 11 671 11 671 49.0745 690.666 c 0,40,41
 96 714 96 714 137 736 c 0,42,43
 143 740 143 740 150 740 c 0,44,45
 164 740 164 740 164 721 c 2,46,-1
 164 73 l 2,47,48
 164 67 164 67 164.5 63 c 128,-1,49
 165 59 165 59 166 55.5 c 128,-1,50
 167 52 167 52 168 50 c 128,-1,51
 169 48 169 48 172.5 46 c 128,-1,52
 176 44 176 44 177.5 43 c 128,-1,53
 179 42 179 42 184.5 40.5 c 128,-1,54
 190 39 190 39 192.5 38.5 c 128,-1,55
 195 38 195 38 203.5 37 c 128,-1,56
 212 36 212 36 216 35 c 0,57,58
 233 32 233 32 233 14 c 0,0,1
EndSplineSet
EndChar

StartChar: m
Encoding: 109 109 78
Width: 740
GlyphClass: 2
Flags: W
HStem: -6 41<23.0332 69.203 143.969 211.781 248.037 324.841 396.077 465.995 526.672 588.846 709.48 725.996> 380 52<178.28 293.232 428.048 547.09> 424 20G<131 136.5>
VStem: 80 63<41.1895 333.811> 330 66<49.2529 344.254> 590 73<38.3296 330.255>
LayerCount: 2
Fore
SplineSet
145 387 m 0,0,1
 146 387 146 387 161 398.5 c 128,-1,2
 176 410 176 410 202.5 421 c 128,-1,3
 229 432 229 432 256 432 c 0,4,5
 270 432 270 432 283 429 c 128,-1,6
 296 426 296 426 307 421 c 128,-1,7
 318 416 318 416 327.5 410 c 128,-1,8
 337 404 337 404 344 398 c 128,-1,9
 351 392 351 392 356 387.5 c 128,-1,10
 361 383 361 383 364 379.5 c 2,11,-1
 367 376 l 2,12,13
 368 375 368 375 371 375 c 128,-1,14
 374 375 374 375 376 376 c 128,-1,15
 378 377 378 377 380.5 379.5 c 128,-1,16
 383 382 383 382 392 388 c 128,-1,17
 401 394 401 394 414 402 c 0,18,19
 465 432 465 432 513 432 c 0,20,21
 558 432 558 432 596 405.5 c 128,-1,22
 634 379 634 379 651 321 c 0,23,24
 663 278 663 278 663 201 c 2,25,-1
 663 71 l 2,26,27
 663 64 663 64 663.5 59 c 128,-1,28
 664 54 664 54 666.5 50.5 c 128,-1,29
 669 47 669 47 670 45 c 128,-1,30
 671 43 671 43 676.5 41 c 128,-1,31
 682 39 682 39 684.5 38.5 c 128,-1,32
 687 38 687 38 697 36 c 128,-1,33
 707 34 707 34 712 33 c 0,34,35
 726 31 726 31 726 14 c 0,36,37
 726 -6 726 -6 711 -6 c 0,38,39
 709 -6 709 -6 698 -4.5 c 128,-1,40
 687 -3 687 -3 667 -1.5 c 128,-1,41
 647 0 647 0 625 0 c 0,42,43
 602 0 602 0 582.5 -1.5 c 128,-1,44
 563 -3 563 -3 551.5 -4.5 c 128,-1,45
 540 -6 540 -6 538 -6 c 0,46,47
 532 -6 532 -6 526.5 -2 c 128,-1,48
 521 2 521 2 521 11 c 0,49,50
 521 25 521 25 527.5 28 c 128,-1,51
 534 31 534 31 569 38 c 1,52,53
 590 41 590 41 590 66 c 2,54,-1
 590 208 l 2,55,56
 590 320 590 320 548 357 c 1,57,58
 519 380 519 380 484 380 c 0,59,60
 453 380 453 380 422 363 c 128,-1,61
 391 346 391 346 391 333 c 1,62,-1
 391.5 330 l 2,63,64
 392 327 392 327 393 321 c 128,-1,65
 394 315 394 315 395 307 c 128,-1,66
 396 299 396 299 396.5 287.5 c 128,-1,67
 397 276 397 276 397 264 c 2,68,-1
 397 67 l 2,69,70
 397 66 397 66 396.5 63 c 128,-1,71
 396 60 396 60 396 58 c 2,72,-1
 396 57 l 2,73,74
 396 40 396 40 431.164 36.67 c 0,75,76
 440 36 440 36 446 35 c 0,77,78
 466 32 466 32 466 15 c 0,79,80
 466 -6 466 -6 453 -6 c 0,81,82
 452 -6 452 -6 446.5 -5.5 c 128,-1,83
 441 -5 441 -5 432 -4 c 128,-1,84
 423 -3 423 -3 412 -2 c 128,-1,85
 401 -1 401 -1 386 -0.5 c 128,-1,86
 371 0 371 0 357 0 c 128,-1,87
 343 0 343 0 328 -0.5 c 128,-1,88
 313 -1 313 -1 302 -2 c 128,-1,89
 291 -3 291 -3 282 -4 c 128,-1,90
 273 -5 273 -5 267.5 -5.5 c 2,91,-1
 262 -6 l 1,92,93
 248 -6 248 -6 248 16 c 0,94,95
 248 30 248 30 285.717 35.3114 c 0,96,97
 297 37 297 37 303 38 c 0,98,99
 320 41 320 41 325 49 c 128,-1,100
 330 57 330 57 330 77 c 2,101,-1
 330 266 l 2,102,103
 330 330 330 330 297 355 c 128,-1,104
 264 380 264 380 225 380 c 0,105,106
 196 380 196 380 175 366.5 c 128,-1,107
 154 353 154 353 147 340 c 1,108,109
 143 330 143 330 143 313 c 2,110,-1
 143 67 l 2,111,112
 143 62 143 62 143.5 58.5 c 128,-1,113
 144 55 144 55 144.5 52.5 c 128,-1,114
 145 50 145 50 146.5 47.5 c 128,-1,115
 148 45 148 45 149 43.5 c 128,-1,116
 150 42 150 42 153.5 41 c 128,-1,117
 157 40 157 40 159 39 c 128,-1,118
 161 38 161 38 166.5 37 c 128,-1,119
 172 36 172 36 175 35.5 c 128,-1,120
 178 35 178 35 185.5 34 c 128,-1,121
 193 33 193 33 198 32 c 0,122,123
 212 30 212 30 212 10 c 0,124,125
 212 -6 212 -6 199 -6 c 1,126,-1
 186.5 -4.5 l 2,127,128
 174 -3 174 -3 153.5 -1.5 c 128,-1,129
 133 0 133 0 112 0 c 0,130,131
 92 0 92 0 75 -1 c 128,-1,132
 58 -2 58 -2 48.5 -3 c 128,-1,133
 39 -4 39 -4 37 -4 c 0,134,135
 23 -4 23 -4 23 16 c 0,136,137
 23 27 23 27 31.5 31 c 128,-1,138
 40 35 40 35 50 35 c 128,-1,139
 60 35 60 35 69.5 41 c 128,-1,140
 79 47 79 47 80 61 c 1,141,-1
 80 315 l 2,142,143
 80 328 80 328 75.5 334 c 128,-1,144
 71 340 71 340 49.5599 355.986 c 0,145,146
 43 361 43 361 39 364 c 0,147,148
 30 370 30 370 30 376 c 0,149,150
 30 381 30 381 35 385.5 c 128,-1,151
 40 390 40 390 65.0156 404.688 c 1,152,153
 92 422 92 422 113 435 c 1,154,155
 130 444 130 444 132 444 c 0,156,157
 141 444 141 444 141 432 c 2,158,-1
 141 393 l 2,159,160
 141 387 141 387 145 387 c 0,0,1
EndSplineSet
EndChar

StartChar: n
Encoding: 110 110 79
Width: 510
GlyphClass: 2
Flags: W
HStem: -6 34<156.541 225.997 301.094 367.389> 0 36<11.415 73.3561 307.192 367.389 438.357 500.75> 393 50<202.033 326.879>
VStem: 78 70<48.252 340.294> 371 66<44.6427 346.781>
LayerCount: 2
Fore
SplineSet
144 386 m 2,0,1
 144 382 144 382 147 382 c 2,2,-1
 148 382 l 2,3,4
 149 382 149 382 155.5 388 c 128,-1,5
 162 394 162 394 174 403 c 128,-1,6
 186 412 186 412 202 421 c 128,-1,7
 218 430 218 430 241 436.5 c 128,-1,8
 264 443 264 443 289 443 c 2,9,-1
 291 443 l 2,10,11
 312 443 312 443 332.5 437.5 c 128,-1,12
 353 432 353 432 376.5 417.5 c 128,-1,13
 400 403 400 403 416 372 c 128,-1,14
 432 341 432 341 436 296 c 0,15,16
 438 279 438 279 438 244 c 0,17,18
 438 240 438 240 438 224.5 c 128,-1,19
 438 209 438 209 437.5 169 c 128,-1,20
 437 129 437 129 437 67 c 2,21,-1
 437 65 l 2,22,23
 437 60 437 60 438 55.5 c 128,-1,24
 439 51 439 51 439.5 48.5 c 128,-1,25
 440 46 440 46 443 43.5 c 128,-1,26
 446 41 446 41 447.5 40 c 128,-1,27
 449 39 449 39 454.5 37.5 c 128,-1,28
 460 36 460 36 462.5 36 c 128,-1,29
 465 36 465 36 473.5 35 c 128,-1,30
 482 34 482 34 486 33 c 0,31,32
 501 31 501 31 501 14 c 0,33,34
 501 -6 501 -6 485 -6 c 0,35,36
 482 -6 482 -6 471 -4.5 c 128,-1,37
 460 -3 460 -3 440.5 -1.5 c 128,-1,38
 421 0 421 0 399 0 c 0,39,40
 386 0 386 0 373 -0.5 c 128,-1,41
 360 -1 360 -1 350.5 -2 c 128,-1,42
 341 -3 341 -3 333 -4 c 128,-1,43
 325 -5 325 -5 320 -5.5 c 2,44,-1
 315 -6 l 1,45,46
 301 -6 301 -6 301 14 c 0,47,48
 301 25 301 25 307 28 c 128,-1,49
 313 31 313 31 338.517 35.4689 c 0,50,51
 348 37 348 37 354 38 c 0,52,53
 364 40 364 40 367.5 44.5 c 128,-1,54
 371 49 371 49 371 62 c 2,55,-1
 371 221 l 2,56,57
 371 296 371 296 357 332 c 1,58,59
 342 366 342 366 312 379.5 c 128,-1,60
 282 393 282 393 255 393 c 0,61,62
 216 393 216 393 185 369 c 128,-1,63
 154 345 154 345 150 327 c 0,64,65
 148 319 148 319 148 313 c 2,66,-1
 148 71 l 1,67,-1
 148 68 l 2,68,69
 148 42 148 42 171 39 c 0,70,71
 215.578 31.7431 215.578 31.7431 220.326 27.8084 c 0,72,73
 226 23.1066 226 23.1066 226 11 c 0,74,75
 226 -7 226 -7 213 -7 c 0,76,77
 212 -7 212 -7 206.5 -6.5 c 128,-1,78
 201 -6 201 -6 192 -5 c 128,-1,79
 183 -4 183 -4 172 -2.5 c 128,-1,80
 161 -1 161 -1 146.5 -0.5 c 128,-1,81
 132 0 132 0 118 0 c 128,-1,82
 104 0 104 0 90 -0.5 c 128,-1,83
 76 -1 76 -1 65.5 -2 c 128,-1,84
 55 -3 55 -3 47 -4 c 128,-1,85
 39 -5 39 -5 34 -5.5 c 128,-1,86
 29 -6 29 -6 28 -6 c 0,87,88
 11 -6 11 -6 11 12 c 0,89,90
 11 26 11 26 17.5 29.5 c 128,-1,91
 24 33 24 33 51 37 c 0,92,93
 69 40 69 40 73.5 48 c 128,-1,94
 78 56 78 56 78 72 c 2,95,-1
 78 316 l 2,96,97
 78 334 78 334 73 340.5 c 128,-1,98
 68 347 68 347 32 374 c 1,99,100
 26 380 26 380 26 384 c 2,101,-1
 26 385 l 2,102,103
 26 390 26 390 33 394.5 c 128,-1,104
 40 399 40 399 75.5218 417.668 c 0,105,106
 104 433 104 433 123 443 c 0,107,108
 129 447 129 447 133 447 c 0,109,110
 145 447 145 447 145 432 c 2,111,-1
 145 392 l 2,112,113
 145 391 145 391 144.5 388.5 c 2,114,-1
 144 386 l 2,0,1
EndSplineSet
EndChar

StartChar: o
Encoding: 111 111 80
Width: 478
GlyphClass: 2
Flags: W
HStem: -19 50<169.533 314.287> 394 48<169.167 306.023>
VStem: 22 79<110.262 315.675> 387 70<111.76 304.688>
LayerCount: 2
Fore
SplineSet
22 209 m 0,0,1
 22 312 22 312 87.5 377 c 128,-1,2
 153 442 153 442 243 442 c 0,3,4
 335 442 335 442 396 376.5 c 128,-1,5
 457 311 457 311 457 209 c 0,6,7
 457 104 457 104 393.5 42.5 c 128,-1,8
 330 -19 330 -19 239 -19 c 0,9,10
 143 -19 143 -19 82.5 47 c 128,-1,11
 22 113 22 113 22 209 c 0,0,1
242 31 m 128,-1,13
 305 31 305 31 346 82.5 c 128,-1,14
 387 134 387 134 387 205 c 0,15,16
 387 285 387 285 341.5 339.5 c 128,-1,17
 296 394 296 394 236 394 c 0,18,19
 186 394 186 394 143.5 350 c 128,-1,20
 101 306 101 306 101 214 c 0,21,22
 101 134 101 134 140 82.5 c 128,-1,12
 179 31 179 31 242 31 c 128,-1,13
EndSplineSet
EndChar

StartChar: p
Encoding: 112 112 81
Width: 505
GlyphClass: 2
Flags: W
HStem: -229 21G<21.5 49 261 268> -7 35<185.62 326.34> 381 60<206.253 333.027> 432 20G<139 144>
VStem: 95 75<-181.862 -3.21875> 95 67<45.9238 341.655> 418 68<117.832 289.582>
LayerCount: 2
Fore
SplineSet
256 28 m 0,0,1
 321 28 321 28 369.5 77 c 128,-1,2
 418 126 418 126 418 200 c 0,3,4
 418 273 418 273 369.5 327 c 128,-1,5
 321 381 321 381 259 381 c 0,6,7
 221 381 221 381 191 359 c 1,8,9
 162 339 162 339 162 296 c 2,10,-1
 162 76 l 2,11,12
 162 56 162 56 188 44 c 0,13,14
 220 28 220 28 256 28 c 0,0,1
293 441 m 0,15,16
 377 441 377 441 431.5 376 c 128,-1,17
 486 311 486 311 486 220 c 0,18,19
 486 119 486 119 418 56 c 128,-1,20
 350 -7 350 -7 243 -7 c 0,21,22
 233 -7 233 -7 223 -6.5 c 128,-1,23
 213 -6 213 -6 205 -5 c 128,-1,24
 197 -4 197 -4 191 -3 c 128,-1,25
 185 -2 185 -2 181 -1.5 c 2,26,-1
 177 -1 l 2,27,28
 170 -1 170 -1 170 -12 c 2,29,-1
 170 -153 l 1,30,-1
 170 -156 l 2,31,32
 170 -180 170 -180 193 -182 c 0,33,34
 203 -183 203 -183 216.5 -184 c 128,-1,35
 230 -185 230 -185 236 -185.5 c 128,-1,36
 242 -186 242 -186 250 -187 c 128,-1,37
 258 -188 258 -188 261.5 -190 c 128,-1,38
 265 -192 265 -192 268.5 -195 c 128,-1,39
 272 -198 272 -198 273 -202.5 c 128,-1,40
 274 -207 274 -207 274 -214 c 0,41,42
 274 -229 274 -229 262 -229 c 0,43,44
 260 -229 260 -229 247.5 -228 c 128,-1,45
 235 -227 235 -227 213 -226 c 128,-1,46
 191 -225 191 -225 166 -225 c 0,47,48
 133 -225 133 -225 100.5 -227 c 128,-1,49
 68 -229 68 -229 49 -231 c 2,50,-1
 30 -233 l 1,51,52
 13 -233 13 -233 13 -213 c 0,53,54
 13 -210 13 -210 13.5 -207.5 c 128,-1,55
 14 -205 14 -205 15.5 -203.5 c 128,-1,56
 17 -202 17 -202 18 -200.5 c 128,-1,57
 19 -199 19 -199 22.5 -197.5 c 128,-1,58
 26 -196 26 -196 28.5 -195.5 c 128,-1,59
 31 -195 31 -195 36.5 -193.5 c 128,-1,60
 42 -192 42 -192 46.5 -191.5 c 128,-1,61
 51 -191 51 -191 59 -189 c 128,-1,62
 67 -187 67 -187 73 -186 c 0,63,64
 95 -182 95 -182 95 -158 c 2,65,-1
 95 315 l 1,66,-1
 95 317 l 2,67,68
 95 333 95 333 82 338 c 0,69,70
 68 344 68 344 47.5834 353.258 c 0,71,72
 22 364 22 364 17.5 367 c 128,-1,73
 13 370 13 370 13 374 c 2,74,-1
 13 375 l 2,75,76
 13 379 13 379 57.7106 405.177 c 0,77,78
 94 426 94 426 123 443 c 0,79,80
 126 445 126 445 129 446.5 c 128,-1,81
 132 448 132 448 133.5 449.5 c 128,-1,82
 135 451 135 451 136.5 451.5 c 128,-1,83
 138 452 138 452 140 452 c 0,84,85
 148 452 148 452 148 440 c 2,86,-1
 148 380 l 2,87,88
 148 374 148 374 152 374 c 1,89,-1
 165 388 l 2,90,91
 178 402 178 402 206 418.5 c 128,-1,92
 234 435 234 435 269 440 c 0,93,94
 277 441 277 441 293 441 c 0,15,16
EndSplineSet
EndChar

StartChar: q
Encoding: 113 113 82
Width: 537
GlyphClass: 2
Flags: W
HStem: -241 21G<306 315.5> -230 36<315.033 378.748 465.775 527.785> -9 62<190.64 346.186> 411 33<189.954 341.49> 437 20G<443.5 451>
VStem: 16 74<151.453 310.967> 383 75<-187.94 29.9983 80.2844 380.685>
LayerCount: 2
Fore
SplineSet
265 411 m 0,0,1
 193 411 193 411 141.5 361 c 128,-1,2
 90 311 90 311 90 239 c 0,3,4
 90 162 90 162 146.5 107.5 c 128,-1,5
 203 53 203 53 280 53 c 0,6,7
 307 53 307 53 336 61.5 c 128,-1,8
 365 70 365 70 375 80 c 0,9,10
 384 89 384 89 384 111 c 0,11,12
 384 158 384 158 381 351 c 0,13,14
 381 371 381 371 367 381 c 0,15,16
 320 411 320 411 265 411 c 0,0,1
16 218 m 0,17,18
 16 257 16 257 31 294.5 c 128,-1,19
 46 332 46 332 76.5 366.5 c 128,-1,20
 107 401 107 401 162.5 422.5 c 128,-1,21
 218 444 218 444 290 444 c 0,22,23
 328 444 328 444 367 437.5 c 128,-1,24
 406 431 406 431 407 431 c 0,25,26
 424 431 424 431 433 444 c 128,-1,27
 442 457 442 457 445 457 c 0,28,29
 457 457 457 457 457 400 c 0,30,31
 457 396 457 396 457.5 387 c 128,-1,32
 458 378 458 378 458 373 c 2,33,-1
 458 -142 l 2,34,35
 458 -164 458 -164 464.5 -174.5 c 128,-1,36
 471 -185 471 -185 480.5 -188 c 128,-1,37
 490 -191 490 -191 514 -194 c 1,38,39
 528 -197 528 -197 528 -208 c 0,40,41
 528 -230 528 -230 510 -230 c 0,42,43
 508 -230 508 -230 501 -229.5 c 128,-1,44
 494 -229 494 -229 481.5 -228.5 c 128,-1,45
 469 -228 469 -228 454 -228 c 0,46,47
 432 -228 432 -228 410 -229.5 c 128,-1,48
 388 -231 388 -231 372 -232.5 c 128,-1,49
 356 -234 356 -234 343.5 -236 c 128,-1,50
 331 -238 331 -238 323.5 -239.5 c 128,-1,51
 316 -241 316 -241 315 -241 c 0,52,53
 297 -241 297 -241 297 -222 c 0,54,55
 297 -219 297 -219 297.5 -216 c 128,-1,56
 298 -213 298 -213 299.5 -211 c 128,-1,57
 301 -209 301 -209 303 -207.5 c 128,-1,58
 305 -206 305 -206 308 -204.5 c 128,-1,59
 311 -203 311 -203 314 -202.5 c 128,-1,60
 317 -202 317 -202 322 -201 c 128,-1,61
 327 -200 327 -200 330.5 -199 c 128,-1,62
 334 -198 334 -198 341 -197 c 128,-1,63
 348 -196 348 -196 353 -195 c 0,64,65
 383 -189 383 -189 383 -154 c 2,66,-1
 383 23 l 2,67,68
 383 30 383 30 377 30 c 0,69,70
 375 30 375 30 358.5 20 c 128,-1,71
 342 10 342 10 311.5 0.5 c 128,-1,72
 281 -9 281 -9 245 -9 c 0,73,74
 151 -9 151 -9 83.5 57.5 c 128,-1,75
 16 124 16 124 16 218 c 0,17,18
EndSplineSet
EndChar

StartChar: r
Encoding: 114 114 83
Width: 366
GlyphClass: 2
Flags: W
HStem: -6 36.5<12.0374 74.5461 156.493 250.967> 375 82<295.25 337>
VStem: 77 74<39.3555 337.811>
LayerCount: 2
Fore
SplineSet
148 386 m 0,0,1
 149 386 149 386 170 400.5 c 128,-1,2
 191 415 191 415 217 432 c 128,-1,3
 243 449 243 449 255 453 c 128,-1,4
 267 457 267 457 285 457 c 0,5,6
 313 457 313 457 339 444.5 c 128,-1,7
 365 432 365 432 365 412 c 2,8,-1
 365 411 l 2,9,10
 365 405 365 405 361 399 c 128,-1,11
 357 393 357 393 354 390 c 128,-1,12
 351 387 351 387 344 381 c 2,13,-1
 337 375 l 2,14,15
 336 375 336 375 326.5 367.5 c 128,-1,16
 317 360 317 360 310 357 c 128,-1,17
 303 354 303 354 295 354 c 0,18,19
 283 354 283 354 267.5 367 c 128,-1,20
 252 380 252 380 234 380 c 0,21,22
 212 380 212 380 187 364 c 128,-1,23
 162 348 162 348 155 338 c 0,24,25
 151 332 151 332 151 319 c 2,26,-1
 151 74 l 1,27,-1
 151 70 l 2,28,29
 151 41 151 41 176 39 c 0,30,31
 186 38 186 38 203.2 37.0483 c 0,32,33
 234 35 234 35 242.5 31.5 c 128,-1,34
 251 28 251 28 251 14 c 0,35,36
 251 -6 251 -6 237 -6 c 0,37,38
 236 -6 236 -6 230.5 -5.5 c 128,-1,39
 225 -5 225 -5 215 -4 c 128,-1,40
 205 -3 205 -3 193 -2 c 128,-1,41
 181 -1 181 -1 164.5 -0.5 c 128,-1,42
 148 0 148 0 133 0 c 0,43,44
 117 0 117 0 101 -0.5 c 128,-1,45
 85 -1 85 -1 72.5 -2 c 128,-1,46
 60 -3 60 -3 50.5 -4 c 128,-1,47
 41 -5 41 -5 35.5 -5.5 c 128,-1,48
 30 -6 30 -6 29 -6 c 0,49,50
 12 -6 12 -6 12 11 c 0,51,52
 12 20 12 20 16 24.5 c 128,-1,53
 20 29 20 29 24 30.5 c 128,-1,54
 28 32 28 32 39.5 33.5 c 128,-1,55
 51 35 51 35 58 37 c 0,56,57
 77 41 77 41 77 61 c 2,58,-1
 77 333 l 2,59,60
 77 339 77 339 76 342.5 c 128,-1,61
 75 346 75 346 70.5 350.5 c 128,-1,62
 66 355 66 355 61.5 358 c 128,-1,63
 57 361 57 361 44 370 c 128,-1,64
 31 379 31 379 20 387 c 0,65,66
 17 390 17 390 16 394 c 0,67,68
 16 398 16 398 56.8009 417.306 c 0,69,70
 94 435 94 435 124 450 c 0,71,72
 125 450 125 450 127 451.222 c 0,73,74
 131 453 131 453 133 453 c 0,75,76
 145 453 145 453 145 432 c 2,77,-1
 145 391 l 2,78,79
 145 386 145 386 148 386 c 0,0,1
EndSplineSet
EndChar

StartChar: s
Encoding: 115 115 84
Width: 346
GlyphClass: 2
Flags: W
HStem: -19 55<107.614 244.944> 389 48<102.695 217.079> 422 20G<253 262>
VStem: 32 55<290.571 375.047> 253.5 38.5<299.191 350.865> 268 69<56.9209 153.049>
LayerCount: 2
Fore
SplineSet
32 316 m 0,0,1
 32 364 32 364 72.5 400.5 c 128,-1,2
 113 437 113 437 179 437 c 0,3,4
 193 437 193 437 204.5 435.5 c 128,-1,5
 216 434 216 434 222.5 433 c 128,-1,6
 229 432 229 432 230 432 c 0,7,8
 234 432 234 432 242 437 c 128,-1,9
 250 442 250 442 256 442 c 0,10,11
 268 442 268 442 272 423 c 0,12,13
 275 408 275 408 280 381 c 128,-1,14
 285 354 285 354 288.5 335.5 c 128,-1,15
 292 317 292 317 292 315 c 0,16,17
 292 299 292 299 268 299 c 0,18,19
 258 299 258 299 253.5 306.5 c 128,-1,20
 249 314 249 314 245 328 c 128,-1,21
 241 342 241 342 236 349 c 0,22,23
 225 364 225 364 200.5 376.5 c 128,-1,24
 176 389 176 389 152 389 c 0,25,26
 125 389 125 389 106 374 c 128,-1,27
 87 359 87 359 87 335 c 0,28,29
 87 284 87 284 168 261 c 0,30,31
 178 258 178 258 198 253.5 c 128,-1,32
 218 249 218 249 229 246 c 128,-1,33
 240 243 240 243 255.5 237 c 128,-1,34
 271 231 271 231 283 222 c 128,-1,35
 295 213 295 213 306 200 c 0,36,37
 337 164 337 164 337 119 c 0,38,39
 337 65 337 65 294.5 23 c 128,-1,40
 252 -19 252 -19 181 -19 c 0,41,42
 142 -19 142 -19 101.5 -6 c 128,-1,43
 61 7 61 7 40 32 c 0,44,45
 28 45 28 45 28 67 c 0,46,47
 28 83 28 83 27.5 103 c 128,-1,48
 27 123 27 123 27 128 c 0,49,50
 27 148 27 148 30.5 154 c 128,-1,51
 34 160 34 160 45 160 c 128,-1,52
 56 160 56 160 59 151 c 128,-1,53
 62 142 62 142 63 124.5 c 128,-1,54
 64 107 64 107 69 96 c 0,55,56
 78 76 78 76 111.5 56 c 128,-1,57
 145 36 145 36 185 36 c 0,58,59
 220 36 220 36 244 55 c 128,-1,60
 268 74 268 74 268 104 c 0,61,62
 268 123 268 123 259.5 137.5 c 128,-1,63
 251 152 251 152 233 161.5 c 128,-1,64
 215 171 215 171 204 175.5 c 128,-1,65
 193 180 193 180 169 185.5 c 2,66,-1
 145 191 l 1,67,68
 32 224 32 224 32 316 c 0,0,1
EndSplineSet
EndChar

StartChar: t
Encoding: 116 116 85
Width: 340
GlyphClass: 2
Flags: W
HStem: -19 66<159.625 245.976> 372 55<160.005 297.842>
VStem: 77 71<56.8154 371.888>
LayerCount: 2
Fore
SplineSet
41 374 m 2,0,1
 20 374 20 374 20 387 c 0,2,3
 20 393 20 393 34.5 405.5 c 128,-1,4
 49 418 49 418 76 447.5 c 128,-1,5
 103 477 103 477 127 517 c 0,6,7
 138 536 138 536 147 536 c 0,8,9
 161 536 161 536 161 519 c 0,10,11
 161 512 161 512 160.5 483 c 128,-1,12
 160 454 160 454 160 447 c 0,13,14
 160 427 160 427 180 427 c 2,15,-1
 272 427 l 2,16,17
 274 427 274 427 277 426.5 c 128,-1,18
 280 426 280 426 281 426 c 0,19,20
 307 426 307 426 307 407 c 128,-1,21
 307 388 307 388 298 377 c 0,22,23
 293 372 293 372 280 372 c 2,24,-1
 160 372 l 2,25,26
 150 372 150 372 150 362 c 0,27,28
 150 279 150 279 149.5 224 c 128,-1,29
 149 169 149 169 148.5 150 c 128,-1,30
 148 131 148 131 148 123 c 0,31,32
 148 47 148 47 201 47 c 0,33,34
 222 47 222 47 245 62.5 c 128,-1,35
 268 78 268 78 285.5 93.5 c 128,-1,36
 303 109 303 109 312 109 c 0,37,38
 320 109 320 109 325.5 103 c 128,-1,39
 331 97 331 97 331 90 c 0,40,41
 331 84 331 84 324 73 c 1,42,43
 243 -19 243 -19 181 -19 c 0,44,45
 144 -19 144 -19 113.5 10.5 c 128,-1,46
 83 40 83 40 78 105 c 0,47,48
 77 116 77 116 77 138 c 0,49,50
 77 163 77 163 79 259.5 c 128,-1,51
 81 356 81 356 81 365 c 128,-1,52
 81 374 81 374 74 374 c 2,53,-1
 41 374 l 2,0,1
EndSplineSet
EndChar

StartChar: u
Encoding: 117 117 86
Width: 517
GlyphClass: 2
Flags: W
HStem: -14 21G<378 387.5> 391 34<10.0956 59.5557 284.004 347.252>
VStem: 66 69<97.1715 384.046> 367 72<70.8528 381.645>
LayerCount: 2
Fore
SplineSet
368 34 m 0,0,1
 367 34 367 34 359.5 28.5 c 128,-1,2
 352 23 352 23 339.5 15.5 c 128,-1,3
 327 8 327 8 311 0.5 c 128,-1,4
 295 -7 295 -7 272 -12.5 c 128,-1,5
 249 -18 249 -18 225 -18 c 0,6,7
 162 -18 162 -18 120 21 c 128,-1,8
 78 60 78 60 69 130 c 0,9,10
 66 160 66 160 66 193 c 0,11,12
 66 212 66 212 66.5 281.5 c 128,-1,13
 67 351 67 351 67 357 c 0,14,15
 67 376 67 376 39 386 c 0,16,17
 34 388 34 388 23.5 391 c 128,-1,18
 13 394 13 394 10 397 c 128,-1,19
 7 400 7 400 7 408 c 2,20,-1
 7 411 l 2,21,22
 7 424 7 424 18 425 c 0,23,24
 120 431 120 431 125 431 c 0,25,26
 135 431 135 431 135 419 c 2,27,-1
 135 209 l 2,28,29
 135 142 135 142 154 103 c 0,30,31
 168 76 168 76 196.5 55.5 c 128,-1,32
 225 35 225 35 262 35 c 0,33,34
 312 35 312 35 349 72 c 0,35,36
 351 75 351 75 354.5 78.5 c 128,-1,37
 358 82 358 82 359 83.5 c 128,-1,38
 360 85 360 85 362 87 c 128,-1,39
 364 89 364 89 364.5 90.5 c 128,-1,40
 365 92 365 92 366 94 c 128,-1,41
 367 96 367 96 367 97.5 c 128,-1,42
 367 99 367 99 367 102 c 2,43,-1
 367 354 l 2,44,45
 367 375.762 367 375.762 347.438 381.839 c 0,46,47
 341.788 383.594 341.788 383.594 299 391 c 0,48,49
 284 394 284 394 284 408 c 0,50,51
 284 423 284 423 298 425 c 1,52,53
 331 426 331 426 357.5 427 c 128,-1,54
 384 428 384 428 394.5 428.5 c 128,-1,55
 405 429 405 429 412.5 429 c 128,-1,56
 420 429 420 429 424 429 c 0,57,58
 439 429 439 429 439 409 c 2,59,-1
 439 88 l 2,60,61
 439 85 439 85 439.5 83.5 c 128,-1,62
 440 82 440 82 441.5 80.5 c 128,-1,63
 443 79 443 79 445 78 c 128,-1,64
 447 77 447 77 451 75 c 128,-1,65
 455 73 455 73 460 71 c 128,-1,66
 465 69 465 69 473 65 c 128,-1,67
 481 61 481 61 490 57 c 128,-1,68
 499 53 499 53 499 45 c 0,69,70
 499 34 499 34 494.5 30 c 128,-1,71
 490 26 490 26 481 24.5 c 128,-1,72
 472 23 472 23 448 14.5 c 128,-1,73
 424 6 424 6 396 -10 c 0,74,75
 390 -14 390 -14 385 -14 c 0,76,77
 371 -14 371 -14 371 6 c 2,78,-1
 371 30 l 2,79,80
 371 34 371 34 368 34 c 0,0,1
EndSplineSet
EndChar

StartChar: v
Encoding: 118 118 87
Width: 501
GlyphClass: 2
Flags: W
HStem: -26 21G<257.5 272> 386 39<7.15662 52.8438 146.082 219.359 305.016 381 437.019 489.781>
LayerCount: 2
Fore
SplineSet
305 406 m 2,0,-1
 305 411 l 2,1,2
 305 425 305 425 317 425 c 0,3,4
 319 425 319 425 329.5 424.5 c 128,-1,5
 340 424 340 424 358.5 423 c 128,-1,6
 377 422 377 422 399 422 c 128,-1,7
 421 422 421 422 439.5 423 c 128,-1,8
 458 424 458 424 468.5 424.5 c 128,-1,9
 479 425 479 425 481 425 c 0,10,11
 497 425 497 425 497 406 c 0,12,13
 497 394 497 394 490 390 c 128,-1,14
 483 386 483 386 473.5 386.5 c 128,-1,15
 464 387 464 387 454 385 c 128,-1,16
 444 383 444 383 440 375 c 0,17,18
 438 372 438 372 434 354 c 0,19,20
 410 266 410 266 375.5 177 c 128,-1,21
 341 88 341 88 317.5 40 c 128,-1,22
 294 -8 294 -8 286 -16 c 1,23,24
 278 -26 278 -26 266 -26 c 0,25,26
 249 -26 249 -26 232 6 c 0,27,28
 175 107 175 107 132 195.5 c 128,-1,29
 89 284 89 284 71.5 325 c 128,-1,30
 54 366 54 366 50 372 c 0,31,32
 44 380 44 380 34.5 383.5 c 128,-1,33
 25 387 25 387 18.5 387 c 128,-1,34
 12 387 12 387 7 392.5 c 128,-1,35
 2 398 2 398 2 412 c 0,36,37
 2 425 2 425 14 425 c 0,38,39
 17 425 17 425 29.5 424.5 c 128,-1,40
 42 424 42 424 64 423 c 128,-1,41
 86 422 86 422 112 422 c 128,-1,42
 138 422 138 422 160 423 c 128,-1,43
 182 424 182 424 194.5 424.5 c 128,-1,44
 207 425 207 425 210 425 c 0,45,46
 224 425 224 425 224 404 c 0,47,48
 224 395 224 395 219.5 390.5 c 128,-1,49
 215 386 215 386 209 386 c 128,-1,50
 203 386 203 386 190 385.5 c 128,-1,51
 177 385 177 385 167 383 c 1,52,53
 146 381 146 381 146 365 c 0,54,55
 146 357 146 357 160.5 317 c 128,-1,56
 175 277 175 277 205 211.5 c 128,-1,57
 235 146 235 146 268 89 c 1,58,59
 276 81 276 81 278 81 c 0,60,61
 283 81 283 81 283 86 c 1,62,63
 318 147 318 147 342 215 c 128,-1,64
 366 283 366 283 373.5 319 c 128,-1,65
 381 355 381 355 381 368 c 0,66,67
 381 371 381 371 380.5 373.5 c 128,-1,68
 380 376 380 376 378 378 c 128,-1,69
 376 380 376 380 374 381 c 128,-1,70
 372 382 372 382 368.5 383 c 128,-1,71
 365 384 365 384 362 384.5 c 128,-1,72
 359 385 359 385 353.5 385.5 c 128,-1,73
 348 386 348 386 344 386.5 c 128,-1,74
 340 387 340 387 333 387.5 c 128,-1,75
 326 388 326 388 321 388 c 0,76,77
 305 391 305 391 305 406 c 2,0,-1
EndSplineSet
EndChar

StartChar: w
Encoding: 119 119 88
Width: 770
GlyphClass: 2
Flags: W
HStem: -26 112<240.283 267.375 526.578 558.922> 385 40<11.1566 53.6481 126.008 188.763 245.141 317.823 579.158 658.924 714.284 767.868>
LayerCount: 2
Fore
SplineSet
753 425 m 0,0,1
 768 425 768 425 768 408 c 0,2,3
 768 400 768 400 765.5 395 c 128,-1,4
 763 390 763 390 759 388.5 c 128,-1,5
 755 387 755 387 751.5 386 c 128,-1,6
 748 385 748 385 742.5 385 c 128,-1,7
 737 385 737 385 736 385 c 0,8,9
 718 381 718 381 710.5 354.5 c 128,-1,10
 703 328 703 328 667 228.5 c 128,-1,11
 631 129 631 129 561 0 c 0,12,13
 547 -26 547 -26 532 -26 c 0,14,15
 520 -26 520 -26 509.5 -10 c 128,-1,16
 499 6 499 6 471.197 56.9265 c 0,17,18
 460 77 460 77 454 89 c 0,19,20
 387.845 214.441 387.845 214.441 386 215 c 0,21,22
 383 215 383 215 345 134 c 1,23,24
 273 -11 273 -11 268 -16 c 0,25,26
 260 -26 260 -26 250 -26 c 0,27,28
 234 -26 234 -26 220 1 c 0,29,30
 171 93 171 93 131 182 c 128,-1,31
 91 271 91 271 71.5 320.5 c 128,-1,32
 52 370 52 370 51 371 c 0,33,34
 46 381 46 381 37.5 384.5 c 128,-1,35
 29 388 29 388 22.5 387.5 c 128,-1,36
 16 387 16 387 11 391.5 c 128,-1,37
 6 396 6 396 6 408 c 0,38,39
 6 425 6 425 25 425 c 0,40,41
 27 425 27 425 36.5 424.5 c 128,-1,42
 46 424 46 424 63 423 c 128,-1,43
 80 422 80 422 100 422 c 2,44,-1
 103 422 l 2,45,46
 122 422 122 422 139 423 c 128,-1,47
 156 424 156 424 165.5 424.5 c 128,-1,48
 175 425 175 425 177 425 c 0,49,50
 189 425 189 425 189 408 c 0,51,52
 189 388 189 388 157.5 387 c 128,-1,53
 126 386 126 386 126 371 c 0,54,55
 126 363 126 363 132 351 c 1,56,57
 181 223 181 223 247 94 c 0,58,59
 251 86 251 86 257 86 c 0,60,61
 260 86 260 86 262.5 88 c 128,-1,62
 265 90 265 90 266 91.5 c 128,-1,63
 267 93 267 93 267 94 c 0,64,65
 296 138 296 138 327.5 199.5 c 128,-1,66
 359 261 359 261 360 273 c 1,67,-1
 360 274 l 2,68,69
 360 279 360 279 343 316.5 c 128,-1,70
 326 354 326 354 322 360 c 0,71,72
 313 373 313 373 299 378.5 c 128,-1,73
 285 384 285 384 273.5 383.5 c 128,-1,74
 262 383 262 383 253.5 386.5 c 128,-1,75
 245 390 245 390 245 401 c 0,76,77
 245 425 245 425 261 425 c 0,78,79
 264 425 264 425 277.5 424.5 c 128,-1,80
 291 424 291 424 315 423 c 128,-1,81
 339 422 339 422 367 422 c 128,-1,82
 395 422 395 422 418.5 423 c 128,-1,83
 442 424 442 424 455.5 424.5 c 128,-1,84
 469 425 469 425 472 425 c 0,85,86
 486 425 486 425 486 410 c 2,87,-1
 486 403 l 2,88,89
 486 393 486 393 481.5 391 c 128,-1,90
 477 389 477 389 450.919 386.94 c 0,91,92
 436 386 436 386 427 385 c 0,93,94
 403 383 403 383 403 364 c 0,95,96
 403 347 403 347 444 260 c 128,-1,97
 485 173 485 173 531 101 c 0,98,99
 539 87 539 87 548 87 c 128,-1,100
 557 87 557 87 560 96 c 1,101,102
 593 154 593 154 617.5 219 c 128,-1,103
 642 284 642 284 650.5 318.5 c 128,-1,104
 659 353 659 353 659 362 c 0,105,106
 659 366 659 366 658.5 369.5 c 128,-1,107
 658 373 658 373 656 375 c 128,-1,108
 654 377 654 377 652.5 379 c 128,-1,109
 651 381 651 381 647.5 382 c 128,-1,110
 644 383 644 383 641 383.5 c 128,-1,111
 638 384 638 384 632.5 384.5 c 128,-1,112
 627 385 627 385 623 385.5 c 128,-1,113
 619 386 619 386 611 386.5 c 128,-1,114
 603 387 603 387 597 387 c 0,115,116
 579 389 579 389 579 408 c 0,117,118
 579 425 579 425 591 425 c 0,119,120
 593 425 593 425 603 424 c 128,-1,121
 613 423 613 423 631.5 422 c 128,-1,122
 650 421 650 421 671 421 c 0,123,124
 693 421 693 421 711.5 422 c 128,-1,125
 730 423 730 423 740.5 424 c 128,-1,126
 751 425 751 425 753 425 c 0,0,1
EndSplineSet
EndChar

StartChar: x
Encoding: 120 120 89
Width: 453
GlyphClass: 2
Flags: W
HStem: -4 37<9.02197 55.8707 118.027 177.869 255.644 313.988 398.703 443.756> 385 40<11.123 64.0157 154.004 202.356 256.22 305.994 352.923 429.906>
VStem: 185 70<207.801 243.04>
LayerCount: 2
Fore
SplineSet
25 425 m 0,0,1
 27 425 27 425 38 424.5 c 128,-1,2
 49 424 49 424 68 423 c 128,-1,3
 87 422 87 422 109 422 c 128,-1,4
 131 422 131 422 150.5 423 c 128,-1,5
 170 424 170 424 181 424.5 c 128,-1,6
 192 425 192 425 194 425 c 0,7,8
 206 425 206 425 206 411 c 2,9,-1
 206 409 l 2,10,11
 206 407 206 407 206.5 403.5 c 128,-1,12
 207 400 207 400 207 399 c 0,13,14
 207 392 207 392 202.5 390 c 128,-1,15
 198 388 198 388 179.886 385.941 c 0,16,17
 174 385 174 385 170 385 c 0,18,19
 154 383 154 383 154 371 c 0,20,21
 154 366 154 366 168 346 c 1,22,23
 192 315 192 315 214.275 285.443 c 0,24,25
 227 269 227 269 229 269 c 128,-1,26
 231 269 231 269 234 272 c 0,27,28
 306 368 306 368 306 373 c 0,29,30
 306 384 306 384 281 385 c 128,-1,31
 256 386 256 386 256 399 c 0,32,33
 256 425 256 425 269 425 c 0,34,35
 271 425 271 425 280.5 424.5 c 128,-1,36
 290 424 290 424 306.5 423 c 128,-1,37
 323 422 323 422 342 422 c 2,38,-1
 345 422 l 2,39,40
 365 422 365 422 382 423 c 128,-1,41
 399 424 399 424 408.5 424.5 c 128,-1,42
 418 425 418 425 420 425 c 0,43,44
 433 425 433 425 433 410 c 0,45,46
 433 400 433 400 430 395.5 c 128,-1,47
 427 391 427 391 422 389.5 c 128,-1,48
 417 388 417 388 401.844 385.86 c 0,49,50
 397 385 397 385 395 385 c 0,51,52
 374 382 374 382 365 376 c 128,-1,53
 356 370 356 370 342 353 c 0,54,55
 255 238 255 238 255 237 c 0,56,57
 255 234 255 234 396 55 c 0,58,59
 399 51 399 51 401.5 48 c 128,-1,60
 404 45 404 45 406.5 42.5 c 128,-1,61
 409 40 409 40 410.5 39 c 128,-1,62
 412 38 412 38 415.5 37 c 128,-1,63
 419 36 419 36 420.5 35.5 c 128,-1,64
 422 35 422 35 427 34 c 128,-1,65
 432 33 432 33 434 33 c 0,66,67
 444 31 444 31 444 20 c 0,68,69
 444 -4 444 -4 429 -4 c 0,70,71
 427 -4 427 -4 416.5 -3 c 128,-1,72
 406 -2 406 -2 387 -1 c 128,-1,73
 368 0 368 0 346 0 c 128,-1,74
 324 0 324 0 305 -1 c 128,-1,75
 286 -2 286 -2 275.5 -3 c 128,-1,76
 265 -4 265 -4 263 -4 c 0,77,78
 251 -4 251 -4 251 13 c 0,79,80
 251 24 251 24 255.5 28.5 c 128,-1,81
 260 33 260 33 277 35 c 128,-1,82
 294 37 294 37 302 39 c 0,83,84
 314 43 314 43 314 52 c 0,85,86
 314 54 314 54 310 62 c 1,87,88
 216 179 216 179 215 180 c 0,89,90
 214 180 214 180 213.5 180.5 c 2,91,-1
 212 181 l 1,92,93
 208 181 208 181 176.882 138.508 c 0,94,95
 152 104 152 104 132 78 c 0,96,97
 118 60 118 60 118 52 c 0,98,99
 118 37 118 37 146 34.5 c 128,-1,100
 174 32 174 32 178 27 c 0,101,102
 180 24 180 24 180 16 c 0,103,104
 180 -4 180 -4 167 -4 c 0,105,106
 165 -4 165 -4 155.5 -3 c 128,-1,107
 146 -2 146 -2 129.5 -1 c 128,-1,108
 113 0 113 0 93 0 c 0,109,110
 74 0 74 0 57 -1 c 128,-1,111
 40 -2 40 -2 30.5 -3.5 c 128,-1,112
 21 -5 21 -5 19 -5 c 0,113,114
 9 -5 9 -5 9 16 c 0,115,116
 9 32 9 32 30.5 36 c 128,-1,117
 52 40 52 40 56 43 c 128,-1,118
 60 46 60 46 66 54 c 0,119,120
 184.389 210.471 184.389 210.471 185 214 c 0,121,122
 185 217 185 217 181 221 c 0,123,124
 63.2673 367.531 63.2673 367.531 56.7961 373.86 c 0,125,126
 46.5293 382.821 46.5293 382.821 30 385 c 0,127,128
 11 387 11 387 11 408 c 0,129,130
 11 425 11 425 25 425 c 0,0,1
EndSplineSet
EndChar

